{"glyphs":{"0":{"ha":732,"x_min":0,"x_max":0,"o":"m 0 117 b 17 14 0 82 3 47 b 111 -51 35 -32 75 -51 b 133 -49 119 -51 126 -50 b 197 -25 156 -44 178 -36 b 325 75 244 3 285 38 b 569 382 421 167 500 271 b 685 607 614 454 654 528 b 715 754 703 654 715 703 l 715 769 b 693 842 714 796 707 819 b 606 892 672 874 640 892 b 568 885 593 892 581 889 b 528 864 554 881 540 872 b 365 714 467 822 414 769 b 293 610 338 682 313 647 b 271 546 282 589 274 568 b 269 531 269 540 269 536 b 279 497 269 518 272 507 b 290 488 282 493 286 488 b 294 489 292 488 293 489 b 299 496 299 490 299 493 b 297 503 299 499 299 501 b 296 518 297 508 296 513 b 319 594 296 546 306 571 b 468 767 358 663 411 717 b 560 835 497 793 526 815 b 610 853 575 843 592 850 b 625 854 615 854 619 854 b 682 804 654 854 675 836 b 686 765 685 792 686 778 b 679 704 686 744 683 725 b 615 528 668 642 643 585 b 379 179 551 401 472 286 b 221 24 332 122 281 69 b 132 -26 194 3 165 -17 b 110 -29 124 -29 117 -29 b 60 8 88 -29 71 -17 b 47 71 51 29 47 50 l 47 82 b 68 222 47 129 56 178 b 196 531 97 331 140 433 b 425 832 258 640 333 743 b 496 890 447 853 471 874 b 517 899 503 894 510 899 b 526 896 519 899 524 897 b 535 893 529 894 532 893 b 543 907 540 893 543 899 b 540 922 543 913 542 917 b 467 965 526 949 496 965 b 439 960 457 965 447 964 b 389 929 421 953 404 940 b 272 806 343 893 307 850 b 32 311 158 658 81 492 b 0 117 14 249 1 183 z "},"1":{"ha":583,"x_min":0,"x_max":0,"o":"m 463 872 l 463 868 b 458 857 463 863 461 860 b 297 571 396 767 344 669 b 74 100 221 415 142 260 b 10 -68 50 44 26 -11 b 0 -115 6 -83 1 -100 b 19 -144 0 -132 7 -140 b 28 -146 22 -146 25 -146 b 38 -133 33 -146 36 -142 b 64 -40 39 -100 51 -71 b 189 228 100 51 144 139 b 478 731 274 401 367 571 b 525 807 494 756 510 781 b 561 875 539 828 551 850 b 565 901 564 883 565 893 b 553 942 565 915 561 929 b 519 965 542 957 532 965 b 496 958 513 965 506 963 b 314 838 431 926 369 888 b 296 815 307 832 300 825 b 292 803 293 811 292 807 b 315 774 292 789 301 775 l 319 774 b 328 776 324 774 326 775 b 413 844 349 808 383 824 b 463 872 428 854 443 864 z "},"2":{"ha":696,"x_min":0,"x_max":0,"o":"m 92 -8 l 81 -8 b 63 0 68 -7 63 -6 b 68 15 63 4 64 8 b 88 42 74 24 81 33 b 174 138 114 76 144 107 b 419 411 258 226 342 317 b 611 674 488 494 554 581 b 669 799 635 713 657 754 b 676 839 674 813 676 826 b 650 913 676 865 668 890 b 582 951 629 939 607 951 b 550 946 572 951 561 950 b 522 935 540 943 531 939 b 399 833 474 911 432 876 b 378 797 389 822 382 810 b 375 781 376 792 375 786 b 410 725 375 757 389 735 b 418 721 413 724 415 721 b 424 724 421 721 422 722 b 428 729 426 725 428 728 b 425 735 428 732 426 733 b 424 743 424 738 424 740 b 432 761 424 750 428 756 b 578 864 472 808 519 844 b 601 868 585 867 593 868 b 610 861 606 868 610 865 l 610 858 b 606 844 608 854 607 849 b 571 771 597 818 585 794 b 378 472 515 665 447 568 b 88 119 288 349 189 233 b 19 36 63 93 39 67 b 7 6 11 25 7 15 b 31 -29 7 -7 15 -18 b 64 -46 40 -37 51 -43 b 104 -50 78 -49 92 -50 l 114 -50 b 225 -43 151 -44 189 -46 b 449 -25 300 -37 374 -31 b 467 -15 456 -24 465 -24 l 467 -12 b 453 3 467 -4 460 0 b 440 6 449 6 444 6 b 354 3 411 6 383 6 b 92 -8 268 -4 182 -4 z "},"3":{"ha":697,"x_min":0,"x_max":0,"o":"m 610 910 b 597 888 608 899 603 893 b 488 774 563 847 526 810 b 304 593 425 715 364 656 b 269 547 292 579 281 564 b 261 519 264 538 261 529 b 267 497 261 513 264 504 b 300 451 274 479 286 464 b 351 403 318 436 336 421 b 375 346 367 386 375 367 b 372 324 375 339 374 332 b 328 229 365 289 347 258 b 196 76 289 175 243 125 b 14 -96 138 17 76 -40 b 3 -111 7 -101 3 -106 b 8 -124 3 -115 6 -119 b 22 -132 13 -129 17 -132 b 36 -126 26 -132 31 -131 b 75 -99 50 -118 63 -108 b 340 143 168 -24 257 58 b 393 213 361 164 378 188 b 419 306 411 243 419 274 b 375 422 419 346 404 386 b 322 475 360 440 340 457 b 311 490 315 482 311 486 b 319 507 311 494 314 499 b 358 549 331 522 344 536 b 497 671 404 590 451 631 b 624 796 540 711 585 750 b 665 853 639 814 654 832 b 678 899 674 868 678 883 b 661 953 678 917 672 935 b 589 990 644 981 619 990 l 576 990 b 474 967 542 988 507 979 b 342 886 425 949 379 925 b 321 853 333 876 325 867 b 319 842 319 850 319 846 b 344 794 319 824 329 803 b 356 792 347 793 351 792 b 364 799 358 792 363 793 b 396 838 368 818 382 828 b 557 907 444 872 499 894 b 592 913 568 908 581 913 b 610 910 599 913 604 911 z "},"4":{"ha":600,"x_min":0,"x_max":0,"o":"m 76 486 b 113 532 86 504 99 519 b 208 625 144 564 176 594 b 432 840 282 697 360 767 b 467 879 444 853 456 865 b 476 900 474 888 476 893 b 469 921 476 907 474 913 b 454 938 465 928 460 933 b 425 950 443 946 435 950 b 396 936 415 950 407 946 b 376 918 389 931 383 924 b 208 742 319 860 264 801 b 43 556 153 681 97 618 b 8 511 31 542 18 528 b 3 493 6 504 3 499 b 14 471 3 486 7 479 b 92 438 35 446 63 438 l 99 438 b 193 449 131 440 163 444 b 278 458 221 451 250 456 l 286 458 b 296 454 293 458 296 457 b 292 442 296 451 294 447 b 258 365 281 415 269 390 b 139 63 217 265 174 165 b 119 0 132 42 126 21 b 118 -8 118 -3 118 -6 b 126 -24 118 -14 121 -19 b 144 -31 133 -29 139 -31 b 163 -14 151 -31 157 -25 b 207 100 178 24 192 63 b 346 408 250 204 297 307 b 482 679 390 500 435 590 b 575 871 517 742 549 806 b 583 896 578 879 582 888 l 583 901 b 557 939 583 918 574 933 b 543 942 551 942 547 942 b 521 924 536 942 531 938 b 506 901 515 917 511 908 b 410 717 469 842 438 781 b 325 518 381 650 353 585 b 296 497 319 504 310 497 b 265 496 285 497 275 497 b 99 483 210 489 154 489 l 90 483 b 76 486 86 483 82 483 z "},"5":{"ha":858,"x_min":0,"x_max":0,"o":"m 424 869 b 390 814 411 850 400 832 b 265 540 340 726 297 636 b 250 483 260 521 254 503 l 250 471 b 263 438 250 458 251 447 b 307 419 276 426 290 419 b 319 421 311 419 315 419 b 347 426 329 422 338 425 b 397 432 364 428 379 432 b 419 429 404 432 411 431 b 465 376 450 424 463 414 l 465 369 b 449 304 465 346 458 325 b 372 197 431 263 403 229 b 153 32 307 132 232 81 b 61 -18 124 14 93 -4 b 47 -22 57 -19 51 -22 b 33 -15 42 -22 38 -19 b 11 -8 28 -10 19 -8 b 1 -17 4 -10 1 -11 l 1 -21 b 11 -37 3 -26 6 -33 b 54 -58 24 -51 38 -58 b 67 -57 58 -58 63 -58 b 139 -32 92 -54 115 -43 b 376 100 221 7 299 54 b 440 147 400 114 421 129 b 531 307 488 190 521 242 b 532 328 532 314 532 321 b 510 401 532 353 525 378 b 378 469 478 450 432 469 b 351 468 369 469 360 469 b 315 463 340 467 329 465 b 329 501 318 478 324 489 b 419 678 356 563 386 619 b 540 886 458 747 500 817 b 563 903 544 896 551 901 b 747 918 624 911 685 918 b 829 904 775 917 804 918 b 833 903 831 904 832 903 l 836 903 b 843 911 840 903 843 906 l 843 914 b 829 931 840 921 835 926 b 785 949 817 940 801 946 b 711 957 761 954 736 957 l 681 957 b 606 956 656 957 631 957 b 568 953 593 954 581 953 b 514 971 550 953 531 957 b 504 975 511 974 507 975 b 489 965 499 975 492 971 b 444 944 479 947 463 944 b 374 931 419 944 396 940 b 353 907 363 926 354 919 l 353 904 b 394 867 353 885 375 867 l 400 867 b 417 871 406 868 410 871 b 424 869 418 871 421 869 z "},"6":{"ha":796,"x_min":0,"x_max":0,"o":"m 168 63 b 211 15 181 42 193 26 b 275 -4 232 1 253 -4 b 325 4 292 -4 308 0 b 394 33 350 11 372 21 b 665 285 504 96 594 179 b 700 365 682 310 693 336 b 703 390 701 374 703 382 b 606 493 703 444 664 489 l 593 493 b 522 476 568 493 546 486 b 408 399 479 457 442 431 b 256 238 354 347 304 293 b 242 229 253 235 250 229 b 254 265 246 242 250 253 b 426 575 297 376 357 479 b 672 849 499 675 579 768 b 736 896 693 867 713 883 b 753 901 742 899 746 901 b 761 900 756 901 758 901 b 767 899 763 900 765 899 b 781 915 775 899 781 907 l 781 918 b 771 938 779 925 775 932 b 701 972 757 960 729 972 b 679 969 694 972 686 972 b 639 950 665 965 651 958 b 500 832 586 918 542 878 b 204 347 369 690 272 528 b 157 132 178 278 158 207 b 146 107 157 122 151 114 b 71 7 119 74 94 40 b 14 -85 50 -22 31 -53 b 1 -126 7 -99 3 -112 l 1 -131 b 17 -156 1 -143 7 -151 b 24 -157 19 -157 22 -157 b 33 -146 29 -157 32 -154 b 46 -107 35 -132 39 -119 b 168 63 79 -47 124 7 z m 218 93 l 218 101 b 235 140 218 115 224 128 b 368 281 279 188 322 236 b 535 413 419 329 472 378 b 624 442 563 428 592 440 l 632 442 b 658 410 656 442 658 436 b 642 344 657 386 650 365 b 560 222 621 299 593 258 b 350 54 500 154 431 97 b 278 28 328 42 304 33 b 261 26 272 26 267 26 b 221 69 238 26 224 40 b 218 93 219 76 219 83 z "},"7":{"ha":650,"x_min":0,"x_max":0,"o":"m 496 913 l 540 913 b 547 907 544 913 547 911 b 546 901 547 906 547 904 b 526 872 540 892 533 882 b 364 624 469 790 414 710 b 192 331 307 526 249 428 b 58 88 146 250 100 169 b 7 -32 39 49 21 10 b 1 -65 4 -43 1 -54 l 1 -71 b 24 -94 1 -82 13 -92 l 26 -94 b 39 -82 33 -94 38 -89 b 96 49 50 -35 72 7 b 421 564 194 226 303 399 b 578 782 474 638 528 708 b 626 865 594 810 613 836 b 633 899 631 876 633 888 b 625 933 633 910 631 922 b 543 985 607 965 581 983 b 425 976 504 985 464 979 b 257 961 369 971 313 967 b 204 953 239 960 222 957 b 186 940 197 951 189 949 b 185 932 185 938 185 935 b 196 906 185 922 190 914 b 214 894 201 900 207 894 b 222 896 217 894 219 894 b 231 899 225 897 228 899 b 238 897 233 899 235 897 b 267 894 247 896 257 894 b 347 901 294 894 321 900 b 496 913 399 904 449 908 z "},"8":{"ha":631,"x_min":0,"x_max":0,"o":"m 0 89 b 7 39 0 72 3 56 b 81 -39 15 -3 40 -28 b 108 -43 90 -42 99 -43 b 154 -32 124 -43 139 -39 b 249 42 190 -14 221 13 b 314 194 290 88 314 138 b 306 254 314 214 311 233 b 303 267 304 258 303 263 b 311 288 303 274 306 281 b 322 308 315 294 318 301 b 575 761 407 460 492 610 b 610 856 592 790 604 821 b 611 875 611 863 611 868 b 575 944 611 901 599 925 b 538 958 564 954 551 958 b 515 954 531 958 524 957 b 475 936 501 950 488 944 b 329 804 418 903 369 857 b 207 514 263 719 217 624 b 193 490 206 503 200 496 b 129 426 169 471 149 450 b 22 211 79 363 46 289 b 0 89 10 171 3 131 z m 350 475 b 282 518 333 499 310 511 b 267 528 269 519 267 521 b 268 540 267 531 267 535 b 324 694 278 594 297 646 b 467 860 360 760 406 815 b 529 894 486 874 506 888 b 544 897 535 896 539 897 l 547 897 b 551 893 550 897 551 896 l 551 890 b 544 867 550 882 547 874 b 478 721 525 817 503 768 b 360 488 439 643 400 565 b 350 475 357 483 357 478 z m 246 167 b 233 128 244 153 239 140 b 136 11 211 81 179 42 b 107 -4 126 6 117 0 b 96 -8 103 -7 99 -8 b 82 7 89 -8 86 -3 b 75 50 78 21 75 36 b 79 93 75 65 78 79 b 158 288 90 164 122 228 b 207 358 172 313 189 336 b 218 367 210 361 213 365 b 232 314 225 350 228 332 b 239 289 235 306 236 297 b 242 272 240 283 242 278 b 235 247 242 264 239 256 b 185 153 218 215 201 185 b 181 139 182 147 181 143 b 192 122 181 133 185 128 b 204 117 196 118 200 117 b 217 126 208 117 213 119 l 242 168 b 246 167 243 168 244 168 z m 340 451 b 286 347 324 415 306 381 l 285 347 b 278 356 278 347 279 353 b 267 407 274 374 271 390 l 267 413 b 274 429 267 419 268 425 b 306 451 285 438 294 446 b 324 457 311 456 317 457 b 340 451 329 457 335 456 z "},"9":{"ha":769,"x_min":0,"x_max":0,"o":"m 672 869 b 674 863 674 867 674 865 b 669 851 674 858 671 856 b 633 769 658 824 646 796 b 375 321 563 611 481 460 b 7 -106 261 171 146 22 b 1 -115 4 -108 1 -112 b 7 -126 1 -118 4 -122 b 21 -132 11 -131 15 -132 b 31 -129 24 -132 26 -132 l 60 -108 b 161 -8 96 -78 128 -42 b 422 292 253 89 340 188 b 607 550 489 374 556 457 b 742 874 664 653 711 760 b 751 921 746 889 749 906 b 753 933 753 925 753 929 b 731 981 753 951 746 968 b 715 988 725 985 719 988 b 700 979 710 988 706 985 b 676 953 692 971 683 961 b 624 886 658 931 640 908 b 614 879 619 882 617 879 b 606 885 611 879 608 881 b 593 897 603 889 597 893 b 515 926 568 917 543 926 b 464 915 499 926 482 924 b 438 904 454 913 446 908 b 247 656 340 847 278 764 b 242 615 243 643 242 629 b 246 582 242 604 243 593 b 314 528 256 547 282 528 b 351 538 325 528 339 531 b 379 557 361 543 371 550 b 442 614 401 575 422 594 b 621 813 504 678 563 746 b 672 869 638 832 653 851 z m 300 583 b 319 642 303 603 310 624 b 490 829 358 721 415 783 b 550 851 508 839 529 847 b 563 854 554 853 558 854 l 571 854 b 583 847 576 854 581 853 b 585 842 585 846 585 844 b 575 829 585 836 579 832 b 393 632 517 761 458 694 b 329 579 374 613 353 594 b 317 571 325 575 321 574 b 307 568 313 569 310 568 b 300 583 301 568 300 572 z "}," ":{"ha":350,"x_min":0,"x_max":0,"o":""}," ":{"ha":350,"x_min":0,"x_max":0,"o":""},"!":{"ha":617,"x_min":0,"x_max":0,"o":"m 603 907 b 594 929 603 915 600 924 b 551 965 583 946 569 958 b 532 971 543 968 536 971 b 508 956 524 971 518 965 b 457 879 488 932 471 906 b 385 746 432 835 408 790 b 138 240 297 581 213 413 b 63 35 108 174 81 106 b 60 15 61 28 60 21 b 86 -10 60 3 71 -7 b 93 -11 89 -10 92 -11 b 110 7 101 -11 107 -6 b 201 225 132 83 167 154 b 374 549 256 335 314 443 b 525 786 421 631 469 711 b 592 881 547 818 571 849 b 603 907 597 889 603 897 z m 51 -35 l 46 -35 b 10 -64 28 -35 17 -47 b 3 -86 6 -72 3 -79 b 17 -114 3 -96 7 -106 b 22 -122 18 -117 21 -119 b 58 -147 31 -139 44 -147 b 89 -132 69 -147 79 -142 b 106 -106 96 -124 101 -115 b 111 -81 110 -97 111 -89 b 85 -43 111 -65 103 -53 b 51 -35 75 -37 64 -35 z "},"\"":{"ha":333,"x_min":0,"x_max":0,"o":"m 0 700 b 29 654 0 679 10 664 b 42 650 35 651 39 650 b 56 668 49 650 53 656 b 74 714 60 683 67 699 b 186 886 104 776 136 836 b 196 904 193 893 196 899 b 188 922 196 911 193 917 b 122 958 171 944 149 956 l 118 958 b 88 939 103 958 94 953 b 10 744 60 875 29 811 b 0 700 6 729 1 714 z m 128 676 l 128 672 b 153 638 128 656 138 643 b 163 636 157 636 160 636 b 174 649 168 636 172 640 b 183 679 175 660 178 669 b 289 854 213 740 249 799 b 311 881 296 863 304 872 b 317 897 315 886 317 892 b 313 910 317 901 315 906 b 258 949 301 932 282 944 b 251 950 256 949 254 950 b 232 936 243 950 236 944 l 224 919 b 188 839 214 892 200 865 b 135 711 168 797 149 756 b 128 676 131 700 128 689 z "},"#":{"ha":919,"x_min":0,"x_max":0,"o":"m 688 653 b 686 657 686 654 686 656 b 690 664 686 660 689 663 b 819 850 731 728 774 789 b 843 872 825 858 832 868 b 853 882 850 875 853 878 b 850 893 853 886 851 889 b 835 911 846 900 842 906 b 800 924 824 919 811 924 b 768 914 790 924 779 919 b 703 857 743 900 721 879 b 639 765 678 829 657 797 b 586 661 619 731 601 697 b 553 638 581 646 569 639 b 517 633 540 638 529 635 b 467 629 500 632 483 629 l 464 629 b 456 635 458 629 456 631 b 457 640 456 636 456 638 b 464 654 460 646 461 650 b 536 775 486 696 510 736 b 607 882 560 810 583 846 b 613 897 611 889 613 893 b 604 914 613 903 610 907 b 554 939 589 931 571 939 b 503 914 536 939 518 931 b 489 894 497 907 493 900 b 435 793 467 863 450 828 l 364 631 b 339 610 360 618 353 613 b 196 589 290 604 243 596 b 63 560 151 581 106 574 b 33 546 53 556 42 551 b 24 531 26 540 24 536 b 26 519 24 528 25 524 b 51 504 32 508 40 504 l 56 504 b 93 510 68 507 81 508 b 304 549 164 521 233 538 b 319 551 310 550 314 551 b 328 549 322 551 325 551 l 328 543 l 286 439 b 267 426 282 431 276 428 b 167 413 233 422 200 418 b 56 389 129 407 92 401 b 14 369 40 385 26 379 b 3 350 7 364 3 358 b 6 339 3 347 4 343 b 33 321 11 326 19 321 l 38 321 b 221 351 99 326 160 340 b 242 356 228 353 235 356 b 250 354 244 356 247 356 l 250 351 b 244 333 250 344 247 338 b 178 133 221 267 196 201 b 158 38 169 101 163 71 l 158 35 b 181 14 158 24 167 17 b 188 13 183 14 186 13 b 206 29 197 13 203 18 b 208 39 207 32 207 36 b 325 358 235 150 281 254 b 350 375 329 371 340 374 b 429 388 376 379 403 385 b 449 390 436 389 443 390 b 458 389 453 390 456 390 l 458 386 b 454 372 458 381 456 376 b 394 228 435 325 414 276 b 313 -24 363 146 332 63 b 307 -62 310 -37 308 -50 l 307 -65 b 329 -85 307 -76 317 -83 b 338 -86 332 -85 335 -86 b 353 -69 346 -86 350 -82 b 372 -3 358 -47 365 -25 b 481 267 403 90 442 178 l 539 388 b 561 407 543 397 549 406 b 739 424 619 414 679 419 l 806 424 b 840 421 817 424 829 421 l 843 421 b 857 433 853 421 857 425 b 856 440 857 435 857 438 b 831 464 853 454 844 463 b 774 469 811 467 793 469 b 710 471 753 469 732 471 b 632 467 685 471 658 469 b 596 465 619 465 608 465 b 583 472 588 465 583 467 b 586 482 583 474 585 478 l 644 590 b 665 604 650 599 656 603 b 821 617 717 610 769 615 l 888 617 b 901 628 897 617 901 621 b 899 639 901 632 900 635 b 885 651 896 644 892 650 b 863 654 878 653 871 654 b 804 656 843 656 824 656 b 725 654 778 656 751 656 b 697 651 715 654 707 651 b 688 653 694 651 690 651 z m 371 440 b 364 444 367 440 364 442 b 365 451 364 447 364 449 b 417 558 382 488 400 524 b 433 571 419 567 426 569 b 533 586 467 576 500 582 l 538 586 b 546 581 543 586 546 585 b 543 571 546 578 544 575 b 494 465 528 536 511 500 b 481 453 492 460 488 454 b 371 440 444 449 410 444 z "},"$":{"ha":931,"x_min":0,"x_max":0,"o":"m 822 792 l 760 792 b 774 818 765 803 769 810 b 835 936 797 856 819 894 b 842 964 839 946 842 954 l 842 968 b 817 1001 842 982 829 997 b 810 1003 814 1001 813 1003 b 789 988 800 1003 794 994 b 783 978 788 985 785 981 b 664 783 738 917 701 850 b 631 757 656 769 646 761 b 350 596 528 719 433 667 b 296 536 331 578 310 560 b 286 508 290 526 286 517 b 296 479 286 499 290 489 b 361 438 313 456 335 443 b 464 428 394 431 429 429 b 479 422 475 428 479 428 b 475 411 479 421 478 417 b 401 261 450 361 425 311 b 372 238 394 247 386 240 b 97 169 281 215 189 192 b 15 154 69 163 43 156 b 3 146 7 153 3 150 b 7 136 3 143 4 140 b 42 118 15 124 28 118 l 47 118 b 86 124 61 119 74 121 b 326 169 167 136 246 153 b 343 175 332 171 338 175 b 353 169 347 175 350 174 b 354 165 354 168 354 167 b 346 146 354 158 349 151 b 246 -79 311 72 275 -3 b 233 -114 240 -90 236 -103 l 233 -119 b 253 -137 233 -131 240 -137 b 271 -121 264 -137 267 -129 b 413 171 313 -21 363 75 b 443 196 419 185 428 193 b 574 224 488 204 531 214 b 740 265 631 235 686 246 b 818 308 768 275 796 288 b 842 356 832 321 842 336 l 842 360 b 792 433 842 393 824 419 b 713 453 767 444 740 450 b 586 465 671 457 628 461 b 571 471 576 467 571 467 b 576 483 571 474 574 478 b 674 653 607 542 640 597 b 699 671 679 663 688 668 b 826 689 740 679 783 686 b 865 690 839 690 851 690 b 894 689 875 690 885 690 l 899 689 b 915 707 911 689 915 694 l 915 711 b 906 742 915 722 911 733 b 822 792 886 774 858 790 z m 461 265 b 511 361 478 299 494 331 b 538 411 519 378 529 394 b 558 425 542 419 547 425 b 765 393 628 421 699 417 b 785 383 772 390 779 388 b 790 379 788 383 789 381 b 461 265 763 357 513 269 z m 343 485 b 375 522 351 503 363 513 b 450 574 399 542 424 558 b 567 629 488 594 526 614 b 576 633 569 631 574 633 b 581 632 578 633 579 632 b 582 628 582 631 582 629 b 578 618 582 624 579 621 b 513 486 556 574 535 531 b 492 471 507 478 504 471 l 489 471 b 357 481 444 474 400 478 b 343 485 353 481 350 483 z "},"%":{"ha":740,"x_min":0,"x_max":0,"o":"m 44 10 b 76 65 51 32 64 49 b 375 439 174 192 275 315 b 628 758 460 544 547 649 b 703 876 656 796 682 833 b 721 931 711 893 718 911 l 721 942 b 653 1015 721 981 693 1011 b 626 1017 644 1015 636 1017 b 590 1014 615 1017 603 1015 b 457 992 546 1008 501 1000 b 221 949 378 976 301 956 b 207 940 215 947 208 947 l 207 938 b 213 926 207 933 210 929 b 224 917 215 924 219 919 b 232 900 228 913 232 908 l 232 896 b 225 904 228 900 226 903 b 171 932 207 924 189 932 b 118 904 153 932 136 924 b 115 900 118 903 117 901 b 61 814 93 874 75 844 b 50 774 56 800 51 788 l 50 764 b 86 703 50 738 64 718 b 117 693 96 696 107 693 b 154 706 129 693 142 697 b 263 835 203 738 240 779 b 269 874 268 847 269 860 b 256 919 269 889 265 904 l 256 924 b 263 926 258 925 260 926 b 583 982 368 947 475 971 b 608 983 592 982 600 983 b 658 978 625 983 642 982 b 679 967 672 975 679 972 b 672 950 679 963 676 957 b 643 906 664 935 654 919 b 453 661 579 824 517 743 b 149 236 347 522 247 381 b 17 36 103 171 57 106 b 3 7 11 26 7 17 b 1 0 3 4 1 3 b 13 -18 1 -7 6 -14 b 31 -25 18 -22 24 -25 b 42 -22 35 -25 38 -24 b 75 -6 53 -17 64 -12 b 267 110 139 32 203 71 b 292 122 275 115 282 121 b 293 117 293 119 293 118 b 292 106 293 113 292 110 l 292 100 b 347 43 292 68 317 43 b 364 46 353 43 358 44 b 428 90 390 53 410 68 b 443 139 438 103 443 121 b 399 222 443 171 428 206 b 372 231 390 228 381 231 b 349 224 364 231 357 228 b 308 188 333 214 319 203 b 281 161 301 176 292 169 b 79 31 214 117 147 74 b 44 10 68 24 56 17 z m 131 751 b 228 869 146 792 200 857 b 131 751 210 817 175 779 z m 394 168 l 394 158 b 369 96 393 135 383 114 b 358 86 367 92 363 89 b 351 83 357 85 354 83 b 349 92 349 86 349 89 b 354 118 351 101 353 110 b 371 167 360 135 365 151 b 381 178 372 172 375 176 b 386 179 382 178 385 179 b 394 168 390 179 393 175 z "},"&":{"ha":1307,"x_min":0,"x_max":0,"o":"m 481 -29 l 481 -26 b 489 -11 481 -19 485 -15 b 508 15 496 -1 503 7 b 515 29 511 19 515 24 b 514 33 515 31 514 32 b 476 64 508 51 494 60 l 469 64 b 446 44 460 64 454 58 b 413 -28 435 21 421 -3 b 371 -57 404 -47 390 -54 b 232 -74 325 -65 279 -71 l 215 -74 b 142 -68 192 -74 167 -71 b 100 -57 128 -67 114 -62 b 69 -14 79 -47 69 -33 b 71 -3 69 -11 71 -7 b 92 50 74 17 82 35 b 183 147 117 89 149 119 b 451 304 265 214 356 263 b 717 397 538 343 628 371 b 789 419 742 404 765 413 b 813 456 806 426 813 438 b 761 517 813 492 797 513 b 603 535 708 524 656 529 b 392 563 532 543 461 550 l 338 575 b 325 585 329 578 325 581 b 328 596 325 588 326 592 b 346 621 332 606 339 614 b 426 686 369 647 397 668 b 735 824 522 746 626 789 b 774 835 747 828 761 831 l 774 831 b 767 813 774 824 771 818 b 731 725 754 783 742 756 b 725 704 728 718 726 711 l 725 703 b 746 676 725 692 735 678 l 747 676 b 763 694 758 676 760 686 b 839 840 783 746 813 793 b 865 858 844 851 854 856 b 1072 882 933 872 1003 882 b 1111 881 1086 882 1099 881 b 1217 857 1147 878 1183 872 b 1235 842 1229 851 1235 847 b 1225 824 1235 838 1231 832 b 1153 757 1206 796 1181 774 b 878 647 1068 703 976 665 b 856 644 869 646 863 646 b 846 638 851 644 846 642 l 846 635 b 851 626 846 631 849 629 b 865 621 856 624 861 622 b 894 617 875 618 885 617 b 911 618 900 617 906 618 b 1176 708 1006 631 1093 663 b 1240 753 1200 721 1221 736 b 1278 832 1267 776 1278 804 b 1254 903 1278 857 1268 882 b 1158 961 1231 936 1197 951 b 1057 971 1125 968 1092 971 b 994 968 1036 971 1015 969 b 911 960 968 965 940 963 b 925 988 914 971 919 979 b 957 1039 935 1004 946 1022 b 964 1061 961 1046 964 1054 b 947 1092 964 1071 960 1081 b 928 1101 939 1099 933 1101 b 906 1085 919 1101 913 1096 b 893 1061 901 1076 897 1069 b 842 961 876 1028 858 994 b 814 940 836 949 826 943 b 540 851 719 921 629 890 b 315 721 461 815 383 776 b 267 669 297 706 281 689 b 253 624 257 656 253 640 b 256 600 253 615 253 608 b 349 499 271 551 301 517 b 414 481 371 492 392 485 b 600 458 476 468 538 463 b 633 453 610 457 621 457 b 621 447 628 450 624 449 b 426 372 556 425 490 400 b 117 183 314 324 208 264 b 29 79 82 153 51 119 b 11 18 17 57 11 38 b 47 -61 11 -10 22 -35 b 88 -92 58 -74 72 -83 b 208 -119 125 -114 167 -119 l 224 -119 b 350 -107 265 -119 308 -115 b 360 -104 353 -106 357 -106 b 372 -110 369 -104 372 -106 b 371 -117 372 -112 372 -114 l 367 -129 b 324 -233 353 -164 338 -199 b 317 -256 321 -240 318 -249 b 315 -261 317 -257 315 -260 b 331 -282 315 -271 321 -279 b 336 -283 333 -283 335 -283 b 350 -269 344 -283 347 -276 b 356 -258 353 -265 354 -261 b 432 -106 381 -207 404 -156 b 463 -81 439 -93 447 -85 b 757 26 564 -54 663 -19 b 907 117 810 51 861 81 b 956 167 926 131 943 147 b 969 211 965 182 969 197 b 907 275 969 243 946 269 l 888 275 b 789 257 853 275 821 267 b 558 165 710 232 633 200 b 365 53 490 135 424 100 b 324 14 350 42 336 28 b 318 0 321 10 318 4 b 324 -10 318 -3 321 -7 b 331 -12 326 -11 328 -12 b 342 -4 335 -12 338 -8 b 431 64 368 22 399 44 b 656 169 501 107 578 140 b 849 228 718 193 782 215 b 889 231 861 231 875 231 b 921 229 900 231 910 231 b 942 214 935 226 942 221 b 936 197 942 208 940 204 b 913 168 929 186 921 176 b 801 89 881 135 842 110 b 499 -28 706 36 604 0 b 488 -31 494 -29 492 -31 b 481 -29 486 -31 483 -31 z "},"'":{"ha":207,"x_min":0,"x_max":0,"o":"m 1 676 l 1 672 b 26 638 1 656 11 643 b 36 636 31 636 33 636 b 47 649 42 636 46 640 b 57 679 49 660 51 669 b 163 854 86 740 122 799 b 185 881 169 863 178 872 b 190 897 189 886 190 892 b 186 910 190 901 189 906 b 132 949 175 932 156 944 b 125 950 129 949 128 950 b 106 936 117 950 110 944 l 97 919 b 61 839 88 892 74 865 b 8 711 42 797 22 756 b 1 676 4 700 1 689 z "},"(":{"ha":650,"x_min":0,"x_max":0,"o":"m 1 -175 l 1 -183 b 8 -219 1 -196 4 -208 b 43 -244 14 -236 29 -244 b 56 -235 51 -243 56 -240 b 53 -228 56 -233 54 -231 b 43 -193 46 -217 43 -206 l 43 -186 b 49 -133 44 -168 46 -151 b 125 160 67 -35 94 63 b 244 478 160 268 197 375 b 507 874 311 624 399 756 b 614 968 540 908 574 943 b 629 988 624 975 629 981 b 618 1011 629 994 626 1001 b 603 1022 614 1015 608 1019 b 561 1033 589 1031 575 1033 b 521 1024 547 1033 535 1031 b 424 949 482 1006 451 979 b 243 669 346 867 289 772 b 153 425 207 590 181 507 b 21 -37 101 272 54 119 b 1 -175 11 -83 4 -128 z "},")":{"ha":650,"x_min":0,"x_max":0,"o":"m 635 964 l 635 972 b 628 1010 635 985 632 997 b 594 1033 622 1024 608 1033 l 592 1033 b 581 1026 585 1033 581 1031 b 583 1018 581 1024 582 1021 b 593 982 590 1007 593 994 l 593 975 b 586 924 592 958 590 940 b 511 631 569 824 542 726 b 392 311 476 522 439 415 b 129 -83 325 167 238 33 b 22 -179 96 -119 63 -153 b 7 -199 13 -186 7 -192 b 18 -221 7 -204 10 -211 b 33 -233 22 -226 28 -229 b 74 -244 47 -240 60 -244 b 115 -233 88 -244 101 -240 b 213 -160 153 -217 185 -189 b 393 119 290 -78 347 18 b 483 365 429 200 456 282 b 615 828 535 517 582 671 b 635 964 625 872 632 918 z "},"*":{"ha":407,"x_min":0,"x_max":0,"o":"m 261 1046 b 299 1085 274 1058 286 1071 b 311 1107 307 1093 311 1100 b 300 1129 311 1114 307 1121 b 279 1146 294 1136 288 1142 b 250 1156 268 1153 258 1156 b 215 1128 236 1156 226 1147 b 168 1044 200 1100 185 1072 b 150 1021 158 1028 154 1021 b 128 1043 144 1021 139 1028 b 89 1076 118 1057 107 1071 b 71 1082 83 1079 78 1082 b 61 1076 68 1082 64 1081 b 60 1069 60 1074 60 1072 b 69 1053 60 1064 65 1058 b 107 1010 82 1038 94 1024 b 113 1000 110 1006 113 1003 b 101 993 113 997 108 996 b 46 972 83 986 64 979 b 13 957 35 968 22 964 b 1 940 7 953 1 947 b 3 936 1 939 3 938 b 22 917 4 926 11 919 l 28 917 b 43 919 33 917 38 918 b 86 938 57 925 71 932 b 107 944 92 940 99 944 l 110 944 b 72 879 97 922 85 900 b 43 819 63 860 51 840 b 40 807 42 815 40 811 b 47 792 40 801 42 796 b 64 782 54 785 60 782 b 82 796 71 782 76 786 b 164 918 108 838 136 878 b 175 929 169 925 172 929 b 188 919 178 929 182 925 b 215 892 197 911 206 901 b 256 863 228 881 242 871 b 271 856 260 860 265 856 b 278 861 274 856 276 857 b 279 865 279 863 279 864 b 267 879 279 872 272 876 b 210 936 244 896 226 915 b 194 956 204 942 194 947 b 196 960 194 957 196 958 b 221 990 200 972 208 983 b 238 996 226 993 232 994 b 368 1025 281 1008 324 1025 l 385 1025 b 392 1029 388 1025 390 1026 l 392 1032 b 389 1040 392 1036 390 1039 b 369 1050 383 1046 378 1049 b 349 1053 363 1051 356 1051 l 342 1053 b 261 1046 315 1053 289 1046 z "},"+":{"ha":807,"x_min":0,"x_max":0,"o":"m 85 392 b 240 413 139 393 189 406 b 350 424 276 417 313 422 b 368 417 364 424 368 424 b 365 404 368 414 367 410 b 350 356 361 388 356 372 b 299 158 332 290 311 225 b 297 139 297 151 297 144 l 297 131 b 329 104 299 118 315 104 b 344 126 344 104 343 117 b 449 415 372 225 411 321 b 474 432 454 426 461 432 b 604 438 517 435 561 438 b 644 436 618 438 631 436 b 772 418 688 433 732 433 b 781 417 775 417 778 417 b 790 426 786 417 790 419 b 789 433 790 428 790 431 b 763 460 786 447 775 454 b 653 482 728 475 690 478 b 506 488 604 488 556 488 b 488 492 492 488 488 488 b 493 507 488 494 489 499 b 524 571 504 528 515 549 b 528 592 526 578 528 586 b 513 629 528 606 522 617 b 475 654 503 640 490 649 b 460 657 469 656 464 657 b 440 640 453 657 447 653 b 428 610 436 631 432 621 b 396 506 417 575 406 540 b 372 486 392 493 386 486 b 189 479 311 485 250 481 b 83 468 153 478 118 475 b 18 450 61 465 39 460 b 3 435 8 446 3 442 b 8 419 3 431 6 426 b 49 392 18 404 31 394 b 67 390 56 392 61 390 b 85 392 74 390 79 392 z "},",":{"ha":226,"x_min":0,"x_max":0,"o":"m 211 -1 l 211 7 b 207 21 211 11 210 17 b 161 58 196 39 182 51 b 146 61 156 60 150 61 b 128 43 138 61 132 57 b 32 -143 101 -22 67 -82 b 6 -196 22 -160 14 -178 b 3 -206 4 -199 3 -203 b 21 -229 3 -214 10 -224 b 32 -233 25 -232 29 -233 b 49 -221 38 -233 42 -229 b 203 -21 100 -154 147 -85 b 211 -1 207 -15 211 -8 z "},"-":{"ha":647,"x_min":0,"x_max":0,"o":"m 1 424 l 1 421 b 54 365 1 388 22 365 l 57 365 b 107 371 74 365 90 368 b 364 399 192 386 278 394 b 440 400 390 400 415 400 l 517 400 b 592 394 542 400 567 400 b 615 390 600 393 607 392 l 619 390 b 632 404 628 390 631 394 l 632 408 b 613 438 632 421 625 432 b 565 450 597 443 582 447 b 365 465 499 463 432 464 b 281 467 338 467 308 467 b 86 463 215 467 151 464 b 22 450 64 463 43 458 b 1 424 10 444 1 436 z "},"­":{"ha":647,"x_min":0,"x_max":0,"o":"m 1 424 l 1 421 b 54 365 1 388 22 365 l 57 365 b 107 371 74 365 90 368 b 364 399 192 386 278 394 b 440 400 390 400 415 400 l 517 400 b 592 394 542 400 567 400 b 615 390 600 393 607 392 l 619 390 b 632 404 628 390 631 394 l 632 408 b 613 438 632 421 625 432 b 565 450 597 443 582 447 b 365 465 499 463 432 464 b 281 467 338 467 308 467 b 86 463 215 467 151 464 b 22 450 64 463 43 458 b 1 424 10 444 1 436 z "},".":{"ha":146,"x_min":0,"x_max":0,"o":"m 54 74 b 28 65 46 72 36 71 b 7 33 14 57 7 46 b 14 11 7 26 8 19 b 25 -11 18 4 21 -3 b 69 -40 33 -29 51 -40 b 82 -39 74 -40 78 -40 b 129 18 107 -31 129 -3 l 129 22 b 119 42 128 29 125 36 b 54 74 103 63 81 71 z "},"/":{"ha":1108,"x_min":0,"x_max":0,"o":"m 1039 1076 b 1024 1072 1036 1075 1029 1074 b 985 1050 1010 1067 997 1060 b 832 908 928 1010 879 960 b 672 715 776 847 725 781 b 260 189 533 542 392 368 b 50 -111 186 90 115 -7 b 7 -190 35 -136 19 -162 b 4 -204 4 -196 4 -200 b 22 -226 4 -214 10 -221 b 33 -231 26 -229 31 -231 b 53 -212 40 -231 46 -225 b 100 -136 67 -186 82 -161 b 279 106 157 -54 218 26 b 583 478 378 232 479 356 b 854 772 671 579 758 679 b 1047 961 918 836 985 896 b 1086 1004 1061 975 1074 989 b 1093 1022 1090 1008 1093 1015 l 1093 1026 b 1039 1076 1092 1049 1065 1075 z "},":":{"ha":146,"x_min":0,"x_max":0,"o":"m 54 197 b 28 189 46 196 36 194 b 7 157 14 181 7 169 b 14 135 7 150 8 143 b 25 113 18 128 21 121 b 69 83 33 94 51 83 b 82 85 74 83 78 83 b 129 142 107 93 129 121 l 129 146 b 119 165 128 153 125 160 b 54 197 103 186 81 194 z m 54 757 b 28 749 46 756 36 754 b 7 717 14 740 7 729 b 14 694 7 710 8 703 b 25 672 18 688 21 681 b 69 643 33 654 51 643 b 82 644 74 643 78 643 b 129 701 107 653 129 681 l 129 706 b 119 725 128 713 125 719 b 54 757 103 746 81 754 z "},";":{"ha":226,"x_min":0,"x_max":0,"o":"m 211 138 l 211 146 b 207 160 211 150 210 156 b 161 197 196 178 182 190 b 146 200 156 199 150 200 b 128 182 138 200 132 196 b 32 -4 101 117 67 57 b 6 -57 22 -21 14 -39 b 3 -67 4 -60 3 -64 b 21 -90 3 -75 10 -85 b 32 -94 25 -93 29 -94 b 49 -82 38 -94 42 -90 b 203 118 100 -15 147 54 b 211 138 207 124 211 131 z m 115 757 b 89 749 107 756 97 754 b 68 717 75 740 68 729 b 75 694 68 710 69 703 b 86 672 79 688 82 681 b 131 643 94 654 113 643 b 143 644 135 643 139 643 b 190 701 168 653 190 681 l 190 706 b 181 725 189 713 186 719 b 115 757 164 746 142 754 z "},"<":{"ha":386,"x_min":0,"x_max":0,"o":"m 371 571 l 371 574 b 315 625 371 600 342 625 b 304 624 311 625 308 625 b 268 611 292 621 281 617 b 97 518 208 585 153 551 b 29 471 74 503 50 488 b 6 428 13 457 6 444 b 11 401 6 421 7 411 b 74 319 24 368 46 342 b 251 171 133 269 194 224 b 261 164 254 168 258 165 b 269 161 264 163 267 161 b 276 164 272 161 274 161 b 279 169 278 165 279 168 b 276 178 279 172 278 175 b 263 197 274 186 268 192 b 185 272 238 222 211 247 b 78 372 149 304 111 336 b 68 389 72 379 68 385 b 78 404 68 393 72 399 b 122 436 90 418 107 426 b 249 497 164 460 206 478 b 357 553 286 514 322 532 b 371 571 364 557 371 563 z "},"=":{"ha":503,"x_min":0,"x_max":0,"o":"m 303 407 l 289 407 b 172 403 250 407 211 403 b 71 394 139 401 106 397 b 29 382 57 393 43 389 b 14 360 21 378 15 371 l 14 354 b 61 304 14 331 36 306 b 99 307 74 304 86 306 b 350 339 181 325 265 336 b 406 342 368 340 388 342 b 471 336 428 342 449 340 l 476 336 b 489 353 485 336 489 342 b 468 388 488 368 481 379 b 443 396 460 392 451 393 b 303 407 397 406 350 407 z m 103 536 l 103 535 l 29 535 b 3 513 11 532 3 526 b 4 501 3 508 3 506 b 18 467 6 489 11 476 b 61 443 29 451 43 443 l 69 443 b 100 446 79 444 89 444 b 363 463 186 457 275 461 l 381 463 b 461 458 407 463 433 461 l 465 458 b 481 472 476 458 481 463 l 481 478 b 449 513 479 496 468 507 b 350 525 417 521 383 524 b 103 536 268 531 185 532 z "},">":{"ha":386,"x_min":0,"x_max":0,"o":"m 1 215 l 1 213 b 57 161 1 186 31 161 b 68 163 61 161 64 161 b 103 175 81 165 92 169 b 275 269 163 201 219 235 b 343 317 299 283 322 299 b 367 358 360 329 367 342 b 361 385 367 365 365 375 b 299 467 349 418 325 444 b 121 615 239 517 178 563 b 111 622 118 618 114 621 b 103 625 108 624 106 625 b 96 622 100 625 99 625 b 93 617 94 621 93 618 b 96 608 93 614 94 611 b 110 589 99 601 104 594 b 188 515 135 564 161 539 b 294 414 224 482 261 450 b 304 397 301 407 304 403 b 294 382 304 393 301 389 b 250 350 282 368 265 360 b 124 289 208 328 167 308 b 15 233 86 272 50 254 b 1 215 8 229 1 225 z "},"?":{"ha":689,"x_min":0,"x_max":0,"o":"m 508 892 b 592 879 536 892 565 890 b 608 865 604 874 608 871 b 603 850 608 861 607 857 b 544 764 586 819 565 792 b 364 558 488 692 425 625 b 243 407 321 510 278 461 b 132 232 204 350 167 292 b 79 129 113 199 93 165 b 71 90 75 115 71 104 l 71 85 b 86 57 71 72 76 63 b 94 53 89 54 92 53 b 104 63 99 53 103 57 b 129 125 107 86 118 106 b 282 343 175 201 225 275 b 449 521 335 406 392 463 b 563 640 486 561 525 600 b 639 744 592 672 618 706 b 669 847 657 776 669 811 b 667 875 669 857 668 865 b 564 992 658 922 624 979 b 514 999 549 994 532 997 l 501 999 b 375 981 458 999 417 992 b 115 851 281 954 192 917 b 42 753 83 825 57 792 b 32 711 36 738 32 724 b 69 640 32 683 46 661 b 94 629 76 633 85 629 b 104 631 97 629 101 629 b 114 640 110 632 114 636 b 111 647 114 643 114 644 b 106 661 107 653 106 657 b 113 679 106 668 110 674 b 129 706 118 689 124 697 b 246 808 161 747 201 781 b 508 892 326 858 413 890 z m 0 -64 b 21 -115 0 -90 6 -103 b 40 -125 26 -121 33 -125 b 53 -119 44 -125 49 -124 b 68 -117 57 -117 63 -117 b 104 -68 90 -110 104 -89 b 90 -33 104 -56 100 -43 b 42 -10 76 -19 61 -12 l 35 -10 b 3 -36 19 -10 8 -19 b 0 -64 1 -46 1 -56 z "},"@":{"ha":808,"x_min":0,"x_max":0,"o":"m 1 193 l 1 140 b 42 -1 6 90 17 42 b 168 -92 69 -51 111 -83 b 196 -94 178 -93 186 -94 b 289 -69 229 -94 260 -85 b 419 43 342 -42 382 -1 b 494 149 447 76 471 113 b 701 478 565 257 632 368 b 707 489 703 482 707 485 b 706 493 707 490 707 492 b 703 501 703 496 703 499 b 708 514 703 506 706 510 b 747 588 722 538 735 561 b 790 765 772 644 790 703 l 790 785 b 710 931 786 846 761 896 b 594 965 674 956 635 965 b 550 961 581 965 565 964 b 360 874 479 949 417 915 b 144 639 272 810 203 729 b 1 193 58 503 3 356 z m 581 399 b 590 425 581 410 586 417 b 636 532 607 460 625 494 b 639 547 638 538 639 542 b 614 588 639 564 631 578 b 597 594 607 592 601 594 b 581 582 592 594 588 590 b 561 558 574 574 567 567 b 549 550 557 553 553 550 b 539 554 546 550 543 551 b 478 578 521 568 500 575 b 467 579 474 578 471 579 b 418 563 449 579 433 572 b 372 515 399 550 385 533 b 324 394 347 479 331 439 b 322 382 324 390 322 386 b 353 333 322 360 333 343 b 371 328 360 331 365 328 b 392 336 378 328 385 331 b 418 360 400 344 410 351 b 517 460 451 393 485 426 b 536 476 522 464 528 469 b 526 433 532 460 529 446 b 524 393 524 419 524 407 b 543 360 525 379 531 368 b 564 351 551 354 557 351 b 585 360 571 351 578 354 b 625 399 600 371 611 386 b 626 394 625 397 626 396 b 622 388 626 392 624 390 b 454 135 567 303 513 217 b 339 0 421 86 383 40 b 240 -61 310 -25 278 -49 b 199 -69 228 -65 214 -69 b 178 -67 192 -69 185 -68 b 111 -14 147 -60 126 -39 b 78 92 90 18 82 54 b 75 143 76 108 75 126 b 113 351 75 214 90 283 b 356 749 163 501 243 636 b 531 875 407 800 464 844 b 632 903 564 890 597 899 b 647 904 638 903 642 904 b 699 894 665 904 682 900 b 750 847 722 886 739 869 b 765 769 761 822 765 796 b 764 736 765 758 765 747 b 650 471 753 636 707 550 b 600 413 635 450 619 429 b 581 399 594 407 592 400 z m 493 488 b 411 399 469 456 442 428 b 493 488 422 426 460 468 z "},"A":{"ha":1796,"x_min":0,"x_max":0,"o":"m 1244 361 b 1246 357 1244 360 1246 358 b 1240 344 1246 353 1243 349 b 1157 165 1213 285 1183 225 b 1053 -110 1118 75 1081 -15 b 1031 -226 1042 -149 1032 -186 l 1031 -229 b 1085 -286 1031 -262 1054 -286 b 1114 -279 1094 -286 1104 -283 b 1157 -246 1131 -271 1144 -258 b 1332 -24 1228 -181 1283 -106 b 1394 125 1360 24 1382 72 b 1403 197 1400 150 1403 174 b 1360 338 1403 246 1390 293 b 1356 353 1357 342 1356 347 b 1374 381 1356 365 1363 376 b 1394 386 1381 383 1388 385 b 1503 401 1431 390 1467 396 b 1694 425 1567 410 1631 418 b 1822 439 1738 431 1779 435 b 1839 450 1829 440 1838 440 l 1839 451 b 1821 467 1839 458 1831 465 b 1797 465 1814 467 1806 467 b 1640 450 1744 460 1693 456 b 1407 421 1563 442 1485 432 b 1399 419 1404 419 1401 419 b 1392 422 1397 419 1394 419 b 1400 442 1393 429 1397 436 b 1558 718 1453 533 1506 626 b 1688 954 1603 796 1649 872 b 1706 1006 1694 971 1701 988 b 1707 1022 1707 1011 1707 1017 b 1671 1089 1707 1047 1694 1074 b 1654 1094 1665 1093 1660 1094 b 1639 1090 1649 1094 1644 1093 b 1607 1067 1628 1082 1617 1075 b 1293 778 1497 976 1396 876 b 1035 521 1206 693 1121 607 b 1004 507 1026 513 1017 507 l 1000 507 b 881 515 960 513 921 515 b 729 506 831 515 779 511 b 336 410 594 489 464 456 b 64 285 242 375 150 336 b 19 251 49 275 33 264 b 6 225 10 243 6 233 b 19 199 6 217 10 208 b 56 179 29 189 42 183 b 94 175 68 176 82 175 b 297 199 164 176 231 188 b 767 283 454 226 610 256 b 796 289 776 286 786 289 b 806 288 799 289 803 288 b 799 276 804 282 801 279 l 661 131 b 514 -24 613 79 563 28 b 300 -235 444 -97 374 -168 b 235 -281 281 -253 261 -271 b 226 -289 229 -282 226 -285 b 235 -300 226 -292 229 -296 b 274 -314 247 -310 260 -314 b 299 -310 282 -314 290 -312 b 347 -282 317 -303 332 -293 b 431 -211 376 -261 404 -237 b 626 -3 499 -144 561 -74 b 776 163 676 51 726 107 b 897 293 817 207 857 250 b 931 311 906 304 917 310 b 1160 349 1007 324 1083 338 b 1244 361 1189 354 1217 360 z m 64 218 b 75 233 65 228 71 231 b 146 281 96 253 121 267 b 446 399 242 332 343 368 b 724 456 538 425 629 444 b 885 465 776 463 831 465 b 938 464 901 465 919 465 b 958 463 944 464 951 463 b 968 458 961 461 965 461 l 968 457 b 964 449 968 453 965 451 b 871 353 933 417 901 385 b 840 336 863 343 853 338 b 438 269 707 314 572 292 b 181 228 351 256 267 242 b 86 217 149 222 118 217 b 78 215 83 217 81 215 b 64 218 74 215 69 217 z m 1583 964 b 1585 958 1583 963 1585 960 b 1578 943 1585 951 1581 947 b 1349 551 1500 814 1422 683 b 1285 431 1326 511 1306 471 b 1274 422 1281 425 1278 422 b 1265 425 1271 422 1268 424 b 1096 492 1213 458 1156 478 b 1088 496 1094 493 1093 494 b 1583 964 1249 658 1407 821 z m 1092 -232 b 1089 -222 1090 -229 1089 -225 b 1092 -210 1089 -218 1090 -214 b 1151 -43 1106 -153 1128 -97 b 1325 304 1203 76 1264 190 b 1326 307 1325 306 1325 306 b 1336 318 1331 314 1333 318 b 1344 307 1339 318 1342 314 b 1364 240 1357 286 1363 264 l 1364 224 b 1349 135 1364 194 1358 164 b 1242 -68 1326 60 1288 -6 b 1114 -217 1204 -122 1163 -172 b 1097 -231 1110 -221 1104 -226 b 1092 -232 1096 -232 1093 -232 z m 1236 397 b 960 356 1143 383 1054 368 b 979 381 965 369 972 375 b 1036 442 997 401 1017 421 b 1058 451 1042 449 1050 451 l 1064 451 b 1229 403 1121 442 1176 426 b 1236 397 1231 401 1232 400 z "},"B":{"ha":1750,"x_min":0,"x_max":0,"o":"m 913 654 l 913 658 b 924 664 915 660 919 663 b 1103 769 983 699 1044 733 b 1314 921 1176 815 1250 861 b 1368 992 1336 942 1356 964 b 1379 1035 1375 1006 1379 1021 b 1378 1051 1379 1040 1379 1046 b 1300 1147 1371 1099 1343 1129 b 1208 1168 1271 1160 1240 1165 b 1075 1176 1164 1174 1119 1176 b 1029 1175 1060 1176 1044 1176 b 865 1161 974 1171 919 1168 b 415 1051 711 1142 561 1106 b 221 958 349 1026 282 997 b 139 886 190 939 161 917 b 117 828 125 865 117 847 b 136 772 117 810 124 792 b 193 714 151 750 171 731 b 296 639 226 689 261 664 b 410 538 338 610 376 578 b 419 517 417 531 419 524 b 415 500 419 511 418 506 b 292 194 371 400 329 297 b 265 165 288 181 279 171 b 181 118 236 151 208 136 b 44 -14 126 83 79 42 b 15 -106 25 -44 15 -75 b 64 -219 15 -146 32 -185 b 207 -310 103 -264 151 -290 b 424 -343 276 -335 350 -343 b 500 -340 449 -343 475 -342 b 803 -278 603 -333 704 -310 b 1261 -57 965 -224 1117 -150 b 1482 125 1342 -6 1417 54 b 1593 285 1528 172 1567 225 b 1618 399 1610 322 1618 360 b 1610 465 1618 419 1615 443 b 1443 642 1586 553 1525 608 b 1267 676 1386 664 1328 672 b 1189 679 1240 678 1215 679 b 1125 676 1168 679 1146 678 b 992 665 1081 674 1036 671 b 913 654 965 661 939 658 z m 260 106 b 254 83 260 99 257 90 b 207 -100 235 24 217 -36 b 206 -112 207 -104 206 -108 b 204 -125 206 -117 204 -121 b 229 -168 204 -143 210 -160 b 269 -181 243 -175 257 -181 b 306 -167 282 -181 293 -176 b 354 -114 325 -151 340 -133 b 513 214 429 -15 486 93 b 535 242 515 228 521 236 b 799 324 621 274 707 306 b 879 332 825 329 851 332 l 918 332 b 925 336 921 332 924 332 l 925 339 b 913 351 925 346 919 349 b 883 356 903 354 893 356 l 861 356 b 740 340 821 356 781 350 b 549 283 675 325 613 304 b 531 278 540 279 533 278 b 524 290 525 278 524 282 l 524 317 b 508 421 524 351 519 386 b 507 431 507 424 507 428 b 511 447 507 436 508 442 b 624 667 549 521 585 594 b 757 922 667 753 713 836 b 800 1018 774 953 788 985 b 807 1044 804 1028 807 1036 b 788 1082 807 1058 800 1071 b 782 1093 785 1085 782 1088 b 846 1104 803 1100 825 1101 b 1065 1118 919 1113 992 1118 l 1104 1118 b 1267 1096 1160 1115 1214 1111 b 1322 1074 1286 1090 1304 1085 b 1331 1063 1328 1071 1331 1067 b 1326 1051 1331 1060 1329 1056 b 1267 985 1310 1026 1289 1006 b 1010 806 1188 917 1100 860 b 706 628 908 746 807 686 b 682 611 699 622 690 617 b 675 596 678 607 675 603 b 676 588 675 593 675 590 b 721 553 685 565 700 553 b 736 554 726 553 731 553 b 893 588 788 567 840 579 b 1117 614 967 601 1042 610 b 1172 615 1135 615 1154 615 b 1260 613 1201 615 1231 614 b 1494 547 1342 606 1422 592 b 1540 510 1511 536 1526 524 b 1564 451 1557 492 1564 472 b 1560 419 1564 440 1563 431 b 1494 293 1546 374 1522 332 b 1279 75 1435 208 1360 139 b 739 -229 1115 -54 936 -157 b 425 -296 638 -265 533 -289 b 364 -299 404 -297 383 -299 b 225 -282 317 -299 271 -293 b 126 -237 189 -272 156 -260 b 65 -128 86 -208 65 -169 b 86 -54 65 -104 72 -79 b 189 60 113 -8 147 28 b 246 101 207 75 226 88 b 256 107 249 104 251 107 b 260 106 257 107 258 106 z m 711 1082 l 711 1079 b 704 1061 711 1069 707 1067 b 450 576 610 904 525 743 b 436 557 444 563 440 557 b 419 571 433 557 428 561 b 285 682 379 614 333 649 b 194 749 254 703 224 724 b 175 768 188 754 181 761 b 163 804 167 781 163 792 b 171 836 163 814 165 825 b 218 890 182 858 200 875 b 399 990 274 933 335 964 b 689 1078 492 1029 589 1057 b 711 1082 696 1079 703 1081 z m 443 203 l 447 199 b 294 -86 415 94 363 1 b 293 -79 293 -83 293 -81 b 296 -67 293 -74 294 -69 b 383 167 319 14 351 90 b 396 182 386 174 390 179 b 443 203 413 189 428 196 z m 414 238 l 468 358 b 471 329 469 349 471 339 b 463 258 471 306 467 282 b 453 247 461 253 457 249 b 418 233 440 242 429 238 z "},"C":{"ha":1138,"x_min":0,"x_max":0,"o":"m 1093 1135 l 1088 1135 b 1043 1132 1068 1135 1056 1135 b 914 1081 997 1122 954 1104 b 661 889 821 1028 739 961 b 363 539 549 782 451 664 b 86 72 257 390 164 236 b 19 -100 60 15 38 -42 b 1 -199 10 -132 1 -165 l 1 -206 b 49 -287 1 -242 17 -269 b 106 -308 67 -297 85 -304 b 150 -312 121 -311 135 -312 b 206 -308 168 -312 188 -311 b 379 -265 265 -299 322 -282 b 1014 -101 588 -200 800 -147 b 1153 -81 1060 -92 1106 -81 l 1175 -81 b 1186 -74 1179 -79 1185 -78 l 1186 -71 b 1179 -60 1186 -67 1183 -64 b 1157 -53 1172 -56 1165 -54 b 1126 -50 1147 -51 1138 -50 b 1074 -54 1110 -50 1092 -53 b 890 -87 1013 -62 951 -75 b 392 -201 724 -122 557 -160 b 172 -257 318 -219 244 -237 b 125 -264 157 -261 140 -264 l 118 -264 b 94 -246 103 -264 99 -261 b 92 -226 93 -240 92 -233 l 92 -218 b 99 -168 92 -201 94 -185 b 154 -14 111 -114 131 -64 b 386 376 219 124 299 253 b 817 850 511 553 650 714 b 1043 996 888 907 961 958 b 1153 1028 1078 1011 1114 1025 b 1163 1029 1157 1029 1160 1029 b 1171 1013 1169 1029 1169 1025 b 1172 989 1172 1004 1172 997 b 1164 919 1172 965 1168 943 b 1094 708 1150 846 1124 776 b 1043 592 1078 669 1060 631 b 1038 575 1042 586 1038 581 b 1040 567 1038 572 1039 569 b 1075 549 1047 554 1061 549 b 1100 557 1085 549 1093 551 b 1128 590 1111 567 1119 578 b 1182 681 1147 619 1167 650 b 1267 901 1219 751 1251 824 b 1271 949 1269 918 1271 933 b 1267 990 1271 963 1269 976 b 1093 1135 1244 1081 1161 1135 z "},"D":{"ha":1881,"x_min":0,"x_max":0,"o":"m 1889 765 b 1821 939 1886 832 1868 882 b 1665 1047 1781 990 1725 1022 b 1358 1107 1567 1088 1464 1101 b 1263 1110 1326 1108 1294 1110 b 1011 1090 1178 1110 1094 1103 b 979 1088 1000 1089 989 1088 b 943 1093 967 1088 954 1089 b 931 1096 939 1094 935 1096 b 910 1085 922 1096 915 1092 b 872 1065 900 1072 886 1068 b 583 982 774 1044 676 1018 b 319 849 490 947 400 906 b 208 743 276 819 238 785 b 169 629 183 706 169 668 b 188 549 169 603 175 576 b 222 490 196 528 208 510 b 347 358 258 442 303 400 b 464 249 388 324 426 288 b 474 228 471 242 474 236 b 471 215 474 225 472 219 b 444 142 461 192 453 167 b 414 111 440 125 431 117 b 183 10 335 83 257 51 b 44 -93 132 -18 83 -49 b 14 -161 24 -117 14 -139 b 56 -233 14 -186 28 -210 b 169 -283 89 -262 128 -275 b 260 -292 200 -289 231 -292 b 381 -281 301 -292 340 -287 b 711 -193 494 -264 604 -232 b 1154 11 864 -137 1011 -68 b 1667 368 1338 113 1513 226 b 1835 571 1731 428 1790 493 b 1889 765 1868 628 1889 689 z m 410 43 l 414 43 b 401 -25 410 21 404 -3 b 394 -82 399 -43 394 -62 b 397 -106 394 -89 396 -97 b 472 -168 404 -142 438 -168 b 492 -165 479 -168 486 -167 b 539 -143 510 -161 525 -153 b 632 1 588 -106 622 -61 b 633 24 633 8 633 15 b 621 94 633 47 628 71 b 614 111 618 100 617 106 b 613 117 614 114 613 115 b 622 128 613 122 617 126 b 644 136 629 131 638 133 b 1078 268 788 186 931 232 b 1233 296 1129 281 1181 290 b 1257 297 1240 296 1249 297 b 1290 294 1268 297 1279 296 b 1304 292 1294 293 1299 292 b 1313 299 1308 292 1311 293 l 1313 303 b 1296 319 1313 311 1304 317 b 1240 329 1278 326 1260 329 l 1228 329 b 1106 315 1186 329 1146 322 b 692 206 965 288 828 249 b 601 176 661 196 632 186 b 586 172 597 175 592 172 b 575 178 582 172 579 174 b 569 193 571 183 569 188 b 572 208 569 199 571 203 b 697 460 613 293 654 376 b 950 918 778 615 865 765 b 993 1006 965 947 979 976 b 1017 1024 997 1017 1004 1022 b 1125 1035 1053 1029 1089 1032 b 1261 1042 1171 1039 1215 1042 b 1324 1040 1282 1042 1303 1042 b 1668 975 1442 1035 1558 1021 b 1790 897 1714 956 1756 932 b 1818 863 1800 886 1810 875 b 1835 808 1829 846 1835 828 b 1832 783 1835 800 1833 792 b 1794 686 1825 749 1811 717 b 1669 521 1760 625 1717 571 b 1351 249 1574 418 1465 331 b 854 -44 1194 136 1028 39 b 443 -204 721 -108 586 -165 b 218 -240 369 -224 294 -237 b 125 -229 186 -240 156 -239 b 99 -218 115 -226 106 -224 b 86 -197 90 -212 86 -206 b 88 -187 86 -194 86 -190 b 115 -139 92 -168 103 -153 b 190 -75 138 -114 164 -93 b 401 42 257 -28 328 10 b 410 43 404 43 407 43 z m 833 990 l 838 990 b 829 969 838 981 832 975 b 596 519 739 825 665 674 b 499 290 563 443 529 368 b 496 285 499 289 497 286 b 489 278 494 279 492 278 b 482 281 488 278 485 278 b 451 308 472 290 461 300 b 289 457 397 358 339 403 b 226 547 264 483 240 513 b 215 603 219 565 215 585 b 231 668 215 625 221 646 b 324 778 251 714 286 747 b 549 904 392 833 468 872 b 824 989 638 940 729 969 b 833 990 826 990 829 990 z m 468 -117 b 467 -97 467 -110 467 -103 b 469 -69 467 -87 468 -78 b 515 75 479 -19 496 28 b 519 85 517 78 518 82 b 547 99 524 90 539 99 l 550 99 b 558 78 560 94 557 85 b 561 50 560 68 561 60 b 554 4 561 35 558 19 b 468 -117 539 -44 513 -85 z "},"E":{"ha":1138,"x_min":0,"x_max":0,"o":"m 468 1010 b 469 1004 468 1008 469 1006 b 464 990 469 999 467 994 b 278 536 400 839 339 688 b 243 508 271 519 260 511 b 135 482 206 503 169 494 b 89 461 118 476 103 471 b 71 438 79 456 72 449 l 71 435 b 124 383 71 410 99 383 l 126 383 b 190 394 147 386 169 389 b 208 400 196 396 203 400 b 215 396 211 400 214 399 b 218 389 217 394 218 392 b 210 372 218 383 213 378 b 43 -58 153 229 96 86 b 6 -183 28 -99 13 -140 b 4 -201 4 -190 4 -196 b 40 -261 4 -228 15 -244 b 124 -286 67 -278 94 -285 l 135 -286 b 301 -271 190 -286 246 -278 b 536 -242 379 -260 457 -249 b 696 -226 589 -236 643 -232 b 885 -217 758 -221 821 -218 b 960 -215 910 -215 935 -215 b 1088 -229 1003 -215 1046 -218 b 1093 -231 1089 -229 1092 -231 b 1101 -226 1097 -231 1100 -229 b 1103 -221 1103 -224 1103 -222 b 1099 -210 1103 -217 1100 -214 b 1068 -192 1090 -200 1079 -196 b 950 -174 1029 -179 990 -175 b 868 -172 922 -172 894 -172 b 642 -179 792 -172 717 -175 b 565 -183 617 -181 590 -182 b 372 -200 501 -189 438 -194 b 226 -217 324 -203 275 -208 b 111 -233 189 -222 150 -228 l 106 -233 b 93 -217 94 -233 93 -229 l 93 -211 b 101 -169 93 -197 97 -183 b 149 -51 114 -129 131 -90 b 374 422 222 107 297 265 b 413 453 382 440 393 449 b 740 522 521 479 631 503 b 1015 558 832 538 922 558 b 1054 557 1028 558 1042 558 l 1057 557 b 1068 569 1065 557 1068 561 l 1068 574 b 1036 608 1067 589 1053 606 b 996 614 1024 611 1010 613 l 972 614 b 811 604 918 614 864 610 b 464 550 694 589 579 571 b 449 547 458 549 453 547 b 442 550 446 547 443 547 b 439 557 440 553 439 554 b 446 574 439 563 444 568 b 519 732 469 626 494 679 b 642 1028 564 828 607 926 b 672 1051 647 1043 656 1050 b 863 1076 736 1060 799 1068 b 1003 1090 910 1082 957 1086 b 1136 1100 1047 1094 1092 1096 b 1338 1111 1203 1107 1271 1108 b 1404 1113 1360 1113 1382 1113 l 1469 1113 b 1583 1104 1508 1113 1546 1108 b 1651 1094 1607 1103 1629 1099 l 1657 1094 b 1669 1101 1663 1094 1667 1096 b 1672 1113 1671 1106 1672 1110 b 1654 1140 1672 1125 1665 1136 b 1636 1146 1649 1143 1643 1144 b 1410 1171 1563 1163 1486 1168 b 1321 1172 1381 1172 1351 1172 b 1065 1164 1236 1172 1151 1169 b 856 1150 996 1160 925 1156 b 658 1135 790 1144 724 1140 l 651 1135 b 633 1140 646 1135 640 1136 b 581 1158 618 1151 600 1157 l 575 1158 b 542 1140 561 1158 549 1153 b 503 1119 532 1125 518 1121 b 396 1106 467 1117 431 1111 b 247 1065 346 1097 296 1085 b 186 1029 225 1056 204 1044 b 163 976 171 1015 163 996 b 186 924 163 957 171 938 b 213 915 194 917 203 915 b 226 917 217 915 222 915 b 233 922 229 917 232 919 b 263 944 236 939 250 940 b 429 1000 317 965 372 983 b 468 1010 442 1003 454 1008 z "},"F":{"ha":1486,"x_min":0,"x_max":0,"o":"m 749 261 b 750 257 749 260 750 258 b 744 244 750 253 747 249 b 703 135 731 208 717 171 b 608 -140 669 43 636 -47 b 592 -224 601 -168 593 -196 b 619 -262 592 -244 604 -256 b 638 -267 625 -265 632 -267 b 663 -256 646 -267 656 -262 b 686 -229 671 -247 679 -239 b 757 -121 714 -196 738 -160 b 854 208 813 -18 854 89 l 854 233 b 875 282 854 251 867 267 b 889 289 878 288 883 288 b 944 297 907 292 926 294 b 1126 317 1006 306 1065 313 b 1221 321 1158 319 1189 321 b 1315 315 1251 321 1283 319 b 1346 311 1325 314 1335 311 l 1349 311 b 1361 322 1356 311 1361 315 b 1358 331 1361 324 1360 328 b 1335 347 1354 340 1346 346 b 1238 361 1303 354 1271 360 l 1190 361 b 924 346 1101 361 1013 356 b 915 344 921 346 918 344 b 911 346 914 344 913 344 b 910 350 910 347 910 349 b 914 360 910 354 913 357 b 964 458 931 393 947 425 b 1185 871 1035 597 1111 733 b 1243 999 1207 911 1231 953 b 1264 1014 1246 1010 1254 1013 b 1489 1044 1339 1024 1414 1035 b 1714 1068 1564 1053 1639 1061 b 1908 1081 1778 1074 1843 1079 l 1932 1081 b 2001 1082 1956 1082 1978 1082 b 2144 1057 2050 1082 2099 1078 b 2150 1056 2147 1056 2149 1056 b 2158 1065 2156 1056 2158 1058 l 2158 1068 b 2142 1092 2158 1079 2151 1086 b 2069 1117 2119 1107 2094 1113 b 1949 1125 2029 1122 1990 1125 b 1756 1118 1885 1125 1821 1121 b 1522 1099 1678 1114 1600 1106 b 1247 1065 1431 1089 1339 1078 b 1215 1063 1236 1064 1226 1063 b 1182 1072 1204 1063 1193 1064 b 1169 1076 1179 1075 1174 1075 b 1153 1079 1163 1078 1157 1079 b 1133 1064 1144 1079 1140 1075 b 1104 1046 1126 1053 1118 1047 b 707 976 971 1026 839 1006 b 247 835 550 940 396 897 b 68 739 185 808 124 778 b 14 685 47 724 28 706 b 3 650 7 674 3 663 b 10 622 3 642 6 632 b 46 585 18 606 31 593 b 101 565 64 574 82 568 b 314 544 172 551 243 550 b 501 521 376 539 439 532 b 682 461 564 508 625 492 b 779 368 722 438 757 410 b 786 349 783 361 786 354 b 760 325 786 336 776 328 b 532 286 683 313 608 300 b 360 243 474 275 415 264 b 281 201 332 233 304 221 b 261 168 268 192 261 179 b 276 135 261 157 267 146 b 290 128 282 131 286 128 b 303 132 294 128 299 129 b 325 143 310 136 318 140 b 726 261 456 193 589 236 b 739 263 731 263 735 263 b 749 261 743 263 746 263 z m 1082 979 b 806 393 975 790 889 592 l 803 393 b 796 399 799 393 797 396 b 613 529 749 463 685 501 b 403 576 544 554 474 567 b 151 599 319 586 235 592 b 71 613 124 601 97 604 b 53 624 58 615 53 618 b 64 640 53 628 57 633 b 125 689 82 660 103 675 b 325 785 189 728 257 758 b 790 925 476 843 632 888 b 1067 981 882 947 974 965 b 1074 982 1069 982 1071 982 b 1082 979 1076 982 1079 982 z m 672 -161 b 797 119 707 -65 751 28 b 672 -161 775 17 732 -76 z "},"G":{"ha":1169,"x_min":0,"x_max":0,"o":"m 803 293 b 807 290 804 292 806 292 b 794 267 803 282 799 275 b 651 -19 744 172 696 76 b 568 -228 619 -87 589 -156 b 556 -286 561 -247 557 -265 l 556 -292 b 608 -351 556 -321 578 -347 b 622 -347 614 -351 618 -351 b 624 -343 624 -346 624 -344 b 619 -333 624 -339 621 -336 b 615 -328 618 -331 617 -329 b 607 -311 608 -322 607 -317 l 607 -303 b 622 -250 610 -285 615 -267 b 864 214 689 -87 772 65 b 997 415 907 282 956 346 b 1025 433 1004 429 1013 433 l 1031 433 b 1069 429 1043 431 1057 429 l 1072 429 b 1082 439 1079 429 1082 433 l 1082 442 b 1058 471 1082 456 1072 467 b 1022 478 1046 474 1033 476 b 1001 489 1014 479 1007 482 b 971 514 988 506 979 514 b 939 489 961 514 953 506 b 915 475 932 482 925 476 b 661 426 829 465 744 446 b 439 369 586 410 513 390 b 342 324 404 360 371 346 b 319 289 326 313 319 301 b 333 257 319 278 324 268 b 358 242 342 247 349 242 b 375 246 364 242 369 243 b 415 264 389 251 401 257 b 851 408 554 332 701 374 b 863 411 856 410 860 411 b 868 410 865 411 867 411 l 868 407 b 867 403 868 406 868 404 b 843 381 860 396 851 388 b 510 121 736 289 625 201 b 256 -35 429 64 346 8 b 158 -68 225 -50 193 -62 b 146 -69 154 -69 150 -69 b 115 -44 131 -69 122 -62 b 103 24 106 -24 103 0 l 103 38 b 133 185 107 88 118 136 b 333 582 181 328 253 457 b 358 597 340 592 347 596 b 717 726 486 617 604 663 b 954 911 804 776 886 836 b 1031 1046 990 950 1019 993 b 1033 1072 1032 1054 1033 1064 b 908 1201 1033 1140 978 1201 l 906 1201 b 825 1189 878 1201 851 1197 b 692 1124 778 1174 733 1150 b 382 843 572 1047 472 950 b 236 644 329 781 281 714 b 215 629 231 636 226 629 l 213 629 b 114 656 178 633 144 639 b 61 721 86 669 67 690 b 58 750 60 731 58 740 b 74 815 58 772 64 794 b 89 831 76 822 82 826 b 97 840 94 833 97 838 b 93 850 97 843 96 846 b 60 867 85 861 72 867 b 28 850 47 867 35 861 b 4 779 13 829 4 804 b 6 758 4 772 4 765 b 121 618 18 692 60 647 b 192 597 143 608 168 601 b 201 590 199 596 201 593 b 199 582 201 588 200 585 b 193 572 197 579 194 575 b 124 440 168 529 144 486 b 24 94 72 331 31 217 b 22 69 24 86 22 78 b 35 -10 22 42 26 15 b 171 -111 53 -69 110 -111 l 182 -111 b 246 -96 204 -110 226 -103 b 360 -37 286 -81 324 -60 b 671 188 468 31 569 110 b 803 293 715 222 760 258 z m 372 639 b 394 669 381 651 388 661 b 643 950 468 772 550 865 b 850 1093 706 1007 772 1058 b 949 1119 881 1108 913 1119 b 964 1118 954 1119 958 1119 b 992 1092 985 1115 992 1110 l 992 1083 b 956 992 988 1050 974 1019 b 821 849 919 936 874 889 b 404 644 696 753 558 682 b 372 639 394 643 386 642 z "},"H":{"ha":2263,"x_min":0,"x_max":0,"o":"m 1400 499 b 1393 507 1394 501 1394 504 b 1197 722 1367 614 1299 683 b 989 757 1131 749 1060 757 l 974 757 b 757 735 901 757 828 747 b 410 635 639 711 522 676 b 99 496 303 594 199 549 b 18 442 71 481 42 465 b 4 418 10 433 4 425 b 19 392 4 410 10 401 b 88 365 38 372 63 368 b 132 363 103 364 117 363 b 201 365 154 363 178 364 b 331 371 244 367 288 368 b 513 383 392 375 451 379 b 638 393 554 386 596 390 b 836 410 703 399 769 404 b 965 419 879 413 922 417 b 1121 432 1017 424 1069 428 b 1263 443 1168 435 1215 439 b 1339 449 1289 444 1314 447 l 1346 449 b 1361 426 1360 449 1361 444 b 1354 396 1361 415 1358 406 b 1290 244 1333 346 1311 296 b 1160 -100 1243 131 1199 17 b 1157 -115 1158 -106 1157 -111 b 1182 -137 1157 -128 1164 -135 b 1190 -139 1185 -137 1188 -139 b 1210 -128 1197 -139 1204 -135 b 1221 -111 1214 -122 1218 -117 b 1375 250 1285 4 1339 124 b 1386 281 1378 261 1382 271 b 1465 440 1413 335 1439 388 b 1492 458 1471 453 1479 458 b 1711 475 1565 464 1638 469 b 1879 486 1767 479 1824 481 b 1974 492 1911 489 1943 488 b 2007 493 1985 493 1996 493 b 2018 488 2014 493 2018 492 l 2015 479 l 2011 471 b 1846 136 1954 361 1899 249 b 1717 -164 1800 38 1756 -62 b 1668 -333 1696 -219 1676 -275 l 1668 -340 b 1688 -361 1668 -353 1674 -358 b 1694 -362 1690 -361 1693 -362 b 1711 -343 1703 -362 1708 -357 b 1786 -128 1726 -268 1757 -197 b 2014 340 1856 32 1933 188 b 2090 482 2039 388 2065 435 b 2114 499 2096 492 2101 497 b 2189 501 2139 500 2164 501 b 2253 499 2211 501 2232 500 l 2258 499 b 2269 504 2264 499 2268 500 b 2271 508 2271 506 2271 507 b 2265 518 2271 513 2268 515 b 2243 526 2258 524 2251 525 b 2167 529 2217 528 2192 529 l 2131 529 b 2122 536 2125 531 2122 532 b 2124 542 2122 538 2122 539 b 2128 551 2125 544 2126 547 b 2383 969 2208 693 2290 835 b 2492 1135 2421 1024 2458 1078 b 2508 1171 2497 1147 2504 1158 b 2511 1185 2510 1176 2511 1181 b 2499 1215 2511 1196 2507 1207 b 2468 1233 2489 1228 2478 1233 b 2438 1214 2458 1233 2449 1228 b 2336 1071 2401 1168 2368 1121 b 2146 729 2267 961 2207 844 b 2047 543 2113 668 2081 606 b 2024 525 2043 532 2036 525 l 1865 517 b 1760 511 1831 515 1794 514 b 1521 496 1681 507 1601 500 l 1510 496 b 1499 501 1501 496 1499 497 b 1506 519 1499 504 1500 510 b 1657 799 1556 613 1607 706 b 1779 1024 1699 874 1740 947 b 1819 1122 1794 1056 1811 1088 b 1822 1143 1821 1129 1822 1136 b 1781 1211 1822 1171 1807 1196 b 1754 1219 1772 1217 1763 1219 b 1726 1211 1744 1219 1736 1217 b 1697 1193 1717 1206 1707 1200 b 1524 1035 1633 1146 1576 1093 b 1440 919 1492 999 1461 963 b 1426 875 1433 906 1426 890 l 1426 869 b 1458 832 1426 851 1440 835 l 1463 832 b 1472 839 1468 832 1472 835 b 1471 843 1472 840 1471 842 b 1469 853 1469 846 1469 850 b 1482 886 1469 865 1475 876 b 1525 947 1494 908 1508 928 b 1694 1104 1575 1007 1632 1058 b 1717 1115 1700 1108 1706 1113 b 1400 499 1604 911 1497 707 z m 146 404 l 67 404 b 58 408 64 404 60 404 b 63 417 58 413 60 414 b 92 439 72 424 82 432 b 215 507 131 465 172 486 b 649 663 356 572 499 625 b 950 710 747 688 847 706 b 992 711 964 710 978 711 b 1200 681 1063 711 1133 704 b 1318 600 1247 665 1289 640 b 1357 504 1340 572 1351 539 b 1358 494 1358 500 1358 497 b 1342 485 1358 488 1354 486 b 1251 478 1311 482 1282 479 b 1031 464 1178 472 1104 468 b 783 446 949 458 865 451 b 507 425 692 439 600 432 b 347 415 454 422 401 418 b 146 404 281 411 214 407 z "},"I":{"ha":1425,"x_min":0,"x_max":0,"o":"m 1521 1133 b 1493 1085 1510 1114 1501 1100 b 1286 683 1418 954 1353 818 b 1049 194 1206 521 1125 358 b 897 -142 997 83 946 -29 b 874 -167 890 -161 886 -167 b 860 -165 869 -167 865 -165 b 789 -161 836 -162 813 -161 b 681 -168 753 -161 717 -164 b 554 -187 638 -174 596 -182 b 329 -210 479 -196 404 -200 b 90 -254 249 -219 168 -232 b 22 -279 67 -261 43 -267 b 6 -299 11 -285 6 -292 b 19 -319 6 -306 10 -312 b 42 -326 26 -324 33 -326 b 83 -324 56 -326 69 -326 b 356 -271 175 -308 264 -289 b 588 -228 432 -256 510 -239 b 679 -219 618 -224 649 -222 b 844 -207 735 -214 789 -208 l 856 -207 b 868 -212 864 -207 868 -208 b 863 -232 868 -217 865 -224 b 832 -333 850 -265 838 -299 b 831 -343 832 -336 831 -340 b 871 -386 831 -367 844 -382 l 876 -386 b 901 -381 885 -386 893 -383 b 989 -301 938 -362 968 -337 b 1000 -265 996 -289 1000 -276 b 982 -219 1000 -249 993 -235 b 965 -200 976 -214 969 -208 b 1064 -193 999 -194 1032 -196 b 1314 -182 1147 -186 1231 -185 b 1471 -179 1367 -181 1418 -179 b 1628 -182 1524 -179 1576 -181 b 1772 -193 1676 -183 1725 -186 b 1840 -203 1794 -196 1817 -200 b 1844 -204 1842 -203 1843 -204 b 1853 -197 1847 -204 1851 -201 l 1853 -194 b 1849 -183 1853 -190 1851 -186 b 1824 -174 1842 -178 1833 -176 b 1586 -149 1746 -157 1665 -151 b 1414 -146 1529 -147 1471 -146 b 1107 -154 1311 -146 1210 -149 b 981 -160 1065 -156 1022 -156 b 967 -161 976 -160 971 -161 b 951 -158 961 -161 957 -160 b 965 -124 953 -146 960 -135 b 1140 221 1021 -8 1081 107 b 1319 561 1200 335 1260 447 b 1590 1074 1411 732 1506 900 b 1607 1122 1597 1089 1607 1104 b 1603 1142 1607 1129 1606 1135 b 1757 1156 1656 1146 1706 1151 b 1908 1165 1807 1158 1858 1161 b 2163 1178 1993 1171 2078 1176 b 2186 1179 2171 1178 2179 1179 b 2294 1182 2222 1182 2258 1182 b 2401 1179 2331 1182 2367 1182 b 2494 1174 2432 1178 2464 1178 l 2499 1174 b 2514 1183 2506 1174 2511 1175 l 2514 1186 b 2500 1206 2514 1194 2508 1203 b 2483 1210 2494 1208 2489 1210 b 2299 1219 2422 1214 2361 1219 b 2035 1215 2211 1218 2124 1219 b 1882 1210 1985 1214 1933 1211 b 1794 1204 1853 1208 1824 1207 b 1571 1189 1719 1200 1644 1194 b 1385 1174 1508 1183 1447 1179 b 1126 1150 1299 1167 1213 1157 b 900 1122 1051 1143 975 1135 b 733 1083 843 1114 788 1103 b 694 1063 719 1078 707 1072 b 682 1038 686 1054 682 1047 b 686 1021 682 1033 683 1028 b 711 1000 692 1011 700 1004 b 758 990 726 994 742 993 b 769 996 763 990 768 990 l 769 997 b 761 1007 769 1001 765 1004 b 738 1015 754 1010 746 1007 b 1521 1133 996 1076 1254 1108 z m 879 -350 b 878 -340 879 -346 878 -343 b 883 -318 878 -331 881 -325 b 915 -232 892 -287 903 -260 b 925 -219 918 -226 919 -219 l 929 -219 b 949 -237 939 -222 947 -225 b 950 -243 950 -239 950 -242 b 949 -250 950 -246 950 -247 b 879 -350 939 -290 913 -321 z "},"J":{"ha":2194,"x_min":0,"x_max":0,"o":"m 2374 1156 l 2374 1153 b 2365 1133 2374 1144 2369 1139 b 2286 999 2342 1088 2314 1043 b 1990 515 2186 839 2086 679 b 1869 306 1950 446 1910 376 b 1836 283 1863 292 1851 283 b 1781 278 1818 282 1799 279 b 1592 257 1718 271 1654 264 b 1582 256 1588 257 1585 256 b 1558 269 1572 256 1565 260 b 1408 397 1519 325 1468 367 b 1140 465 1325 442 1233 460 b 1074 467 1118 467 1096 467 b 846 446 997 467 921 460 b 529 360 738 426 633 397 b 110 165 383 308 243 244 b 22 99 79 146 49 125 b 7 68 13 88 7 78 b 31 35 7 56 15 44 b 54 24 38 29 46 25 b 100 17 69 19 85 17 l 110 17 b 213 26 144 19 179 22 b 451 64 293 38 372 51 b 757 111 554 81 656 96 b 1075 157 864 126 969 142 b 1311 190 1154 168 1233 179 l 1536 219 l 1542 219 b 1560 207 1550 219 1556 217 b 1578 147 1567 188 1574 168 b 1588 47 1585 114 1588 81 b 1575 -79 1588 6 1583 -37 b 1522 -262 1563 -142 1543 -203 b 1504 -317 1517 -281 1510 -299 b 1503 -329 1503 -322 1503 -326 b 1521 -356 1503 -342 1508 -349 b 1540 -361 1528 -360 1535 -361 b 1564 -347 1549 -361 1556 -357 b 1599 -300 1576 -333 1588 -317 b 1760 -32 1651 -211 1706 -121 b 1926 246 1815 61 1871 153 b 1960 268 1935 260 1943 267 b 2036 275 1985 269 2011 272 b 2049 285 2042 276 2049 278 b 2038 297 2049 292 2044 296 b 2022 300 2033 299 2028 300 b 1983 296 2010 299 1997 297 l 1972 296 b 1961 299 1969 296 1965 296 b 1976 326 1964 310 1971 318 b 2243 742 2064 467 2153 604 b 2411 1014 2301 831 2360 919 b 2457 1121 2429 1049 2449 1082 b 2460 1144 2458 1129 2460 1138 b 2424 1224 2460 1175 2447 1201 b 2374 1244 2408 1239 2392 1244 b 2329 1235 2360 1244 2344 1240 b 2253 1200 2303 1225 2278 1214 b 2067 1093 2190 1167 2128 1131 b 1807 914 1976 1039 1888 982 b 1775 881 1794 904 1783 893 b 1769 867 1771 876 1769 871 b 1771 858 1769 864 1769 861 b 1800 829 1776 844 1786 835 b 1807 828 1803 829 1804 828 b 1817 833 1811 828 1814 829 b 1854 865 1825 849 1840 856 b 2201 1081 1965 943 2082 1015 b 2353 1151 2250 1107 2299 1133 b 2371 1156 2357 1153 2364 1156 z m 1064 421 l 1082 421 b 1357 379 1183 421 1272 410 b 1488 306 1404 363 1449 339 b 1525 265 1501 293 1514 279 b 1531 256 1528 261 1531 258 b 1517 249 1531 251 1526 250 b 1478 243 1504 246 1492 244 b 1151 201 1369 229 1260 217 l 785 151 b 394 96 654 133 525 115 b 171 64 321 86 246 74 b 88 57 143 60 115 57 l 71 57 b 63 61 67 57 64 57 l 63 64 b 68 72 63 68 65 69 b 122 118 83 90 103 104 b 336 233 189 164 263 200 b 778 386 478 300 625 351 b 976 417 843 400 910 411 b 1064 421 1011 419 1046 419 z m 1607 -174 b 1626 -60 1613 -136 1621 -99 b 1632 22 1631 -32 1632 -6 b 1593 211 1632 86 1621 150 b 1589 222 1590 217 1589 219 b 1603 228 1589 225 1593 226 b 1776 249 1661 235 1718 242 b 1821 253 1792 250 1806 253 l 1826 253 b 1835 247 1832 253 1835 251 b 1831 236 1835 244 1833 242 b 1764 118 1808 197 1786 157 b 1615 -158 1714 25 1665 -67 b 1607 -174 1613 -164 1610 -169 z "},"K":{"ha":1878,"x_min":0,"x_max":0,"o":"m 1172 471 l 1172 474 b 1179 490 1172 482 1176 485 b 1221 563 1193 515 1207 539 b 1438 929 1290 686 1365 807 b 1488 1022 1456 960 1475 989 b 1492 1043 1490 1029 1492 1036 b 1454 1090 1492 1064 1478 1082 b 1440 1093 1449 1092 1444 1093 b 1422 1081 1433 1093 1429 1089 l 1385 1026 b 1064 476 1264 851 1158 667 b 1017 447 1047 443 1053 449 b 972 443 1001 447 988 447 b 960 428 965 440 960 438 b 990 397 960 414 975 397 b 997 399 993 397 994 397 b 1006 400 1000 399 1003 400 b 1021 394 1011 400 1017 399 b 1018 389 1019 392 1019 390 b 949 351 994 376 972 364 b 942 349 946 350 944 349 b 935 358 939 349 936 351 b 933 369 935 363 935 365 b 765 547 917 464 858 526 b 699 554 743 553 721 554 b 639 550 679 554 658 553 b 442 489 569 542 504 519 b 213 333 357 449 282 396 b 40 128 144 272 86 206 b 13 58 28 106 18 83 b 8 24 10 44 8 33 b 57 -53 8 -14 25 -33 b 140 -78 83 -69 111 -76 l 156 -78 b 279 -54 199 -78 238 -68 b 567 76 379 -21 472 28 b 885 253 674 133 779 193 b 894 257 888 254 890 257 b 900 256 896 257 897 257 b 890 203 900 239 894 221 b 810 -46 872 118 840 36 b 757 -192 792 -94 772 -142 b 756 -206 756 -197 756 -201 b 779 -228 756 -218 763 -225 b 786 -229 782 -228 783 -229 b 811 -214 797 -229 806 -224 b 851 -140 826 -190 839 -165 b 988 131 896 -50 940 42 b 1108 364 1028 208 1069 286 b 1136 385 1115 378 1122 385 l 1144 385 b 1389 333 1228 374 1310 360 b 1903 94 1568 272 1739 190 b 2149 -94 1992 42 2078 -18 b 2157 -101 2151 -97 2154 -100 b 2165 -106 2160 -103 2163 -106 b 2169 -103 2167 -106 2168 -104 b 2172 -97 2171 -101 2172 -100 b 2169 -90 2172 -96 2171 -93 b 2163 -81 2168 -87 2165 -83 b 2126 -42 2150 -67 2139 -54 b 1908 125 2061 22 1986 76 b 1522 325 1785 201 1656 267 b 1221 431 1425 368 1326 410 b 1217 436 1218 431 1217 432 b 1242 451 1224 443 1233 447 b 1971 836 1483 583 1725 713 b 2440 1054 2125 914 2279 990 b 2450 1060 2444 1056 2447 1057 b 2457 1068 2454 1063 2457 1065 b 2453 1078 2457 1072 2456 1075 b 2439 1083 2449 1082 2444 1083 b 2424 1081 2435 1083 2429 1082 b 2265 1017 2371 1060 2318 1039 b 1782 785 2101 944 1942 865 b 1194 481 1585 686 1389 583 b 1172 471 1188 478 1181 472 z m 710 522 b 783 515 738 521 760 521 b 901 393 849 500 886 458 b 907 349 904 379 907 364 b 892 322 907 336 903 328 b 807 276 863 307 835 292 b 411 71 675 208 544 136 b 210 -12 346 39 279 10 b 131 -31 185 -21 158 -28 b 117 -32 125 -31 121 -32 b 75 14 89 -32 75 -17 l 75 25 b 107 117 79 58 92 89 b 243 289 143 182 190 238 b 492 464 317 360 399 419 b 660 518 546 490 601 510 b 710 522 678 521 697 521 z m 979 306 b 926 196 964 264 944 231 b 939 274 931 221 933 247 b 979 306 942 293 961 296 z "},"L":{"ha":557,"x_min":0,"x_max":0,"o":"m 622 1094 l 626 1094 b 568 967 611 1049 590 1008 b 396 639 511 857 453 749 b 122 75 299 453 206 267 b 19 -172 86 -7 50 -87 b 3 -237 13 -194 4 -215 l 3 -247 b 36 -296 3 -271 13 -285 b 58 -304 43 -300 51 -301 b 78 -306 65 -306 72 -306 b 143 -296 100 -306 122 -300 b 363 -250 217 -282 289 -264 b 715 -200 479 -229 597 -214 b 997 -176 808 -190 903 -182 b 1132 -172 1042 -174 1088 -172 b 1232 -176 1165 -172 1199 -172 b 1357 -206 1275 -179 1318 -183 b 1363 -208 1358 -207 1360 -208 b 1367 -210 1364 -208 1365 -210 b 1372 -203 1371 -210 1372 -207 l 1372 -200 b 1357 -182 1371 -190 1364 -186 b 1310 -160 1343 -172 1326 -165 b 1125 -139 1249 -143 1186 -142 l 1101 -139 b 914 -146 1039 -139 976 -143 b 706 -161 844 -149 775 -156 b 449 -190 619 -169 533 -179 b 121 -250 338 -204 228 -221 b 71 -261 104 -254 88 -258 b 61 -262 67 -262 63 -262 b 53 -254 56 -262 53 -260 b 54 -244 53 -251 54 -249 b 61 -218 56 -236 58 -226 b 126 -64 78 -164 101 -114 b 304 286 183 54 243 171 b 536 711 381 429 458 569 b 661 956 581 792 625 871 b 693 1046 675 985 688 1014 b 696 1074 694 1056 696 1065 b 664 1147 696 1101 688 1126 b 624 1165 651 1158 638 1165 b 597 1160 615 1165 607 1164 b 576 1149 590 1156 583 1153 b 357 961 493 1097 418 1038 b 308 883 336 938 319 913 b 301 851 303 872 301 861 b 357 783 301 817 326 793 b 383 779 367 781 375 779 b 457 808 411 779 435 793 b 461 815 460 810 461 813 b 456 825 461 818 458 822 b 436 832 450 829 443 832 b 422 829 432 832 426 831 b 371 818 406 824 389 819 l 365 818 b 353 829 357 818 353 821 l 353 836 b 368 875 354 850 361 863 b 421 950 382 903 401 926 b 597 1086 472 1006 529 1054 b 622 1094 604 1090 613 1094 z "},"M":{"ha":1181,"x_min":0,"x_max":0,"o":"m 64 -75 b 61 -61 63 -69 61 -65 b 63 -51 61 -58 63 -54 b 117 157 76 19 94 89 b 367 771 182 368 269 572 b 476 1001 403 847 440 924 b 519 1121 494 1039 511 1078 b 521 1139 521 1126 521 1132 b 475 1214 521 1169 503 1200 b 456 1219 468 1218 463 1219 b 438 1214 450 1219 444 1218 b 404 1189 425 1206 414 1197 b 258 1042 351 1143 304 1093 b 146 890 217 994 178 944 b 104 789 128 858 111 825 b 103 769 103 782 103 776 b 143 703 103 742 115 719 b 197 689 160 693 178 689 l 204 689 b 214 683 211 689 214 688 b 210 669 214 681 213 676 b 207 661 210 667 208 664 b 86 315 161 547 121 432 b 3 -62 50 190 21 65 b 0 -104 1 -76 0 -90 b 1 -132 0 -114 1 -122 b 22 -158 1 -146 10 -154 b 38 -161 28 -160 33 -161 b 74 -140 51 -161 63 -154 b 133 -43 94 -108 114 -75 b 606 653 274 200 431 432 b 619 664 610 657 611 663 b 611 639 619 654 614 647 b 461 181 546 492 494 339 b 444 74 453 146 444 110 b 471 44 446 56 453 47 b 482 43 475 43 479 43 b 511 60 494 43 504 49 b 542 107 521 75 532 90 b 708 374 597 196 651 286 b 1104 900 829 558 958 735 b 1276 1079 1160 963 1215 1024 b 1311 1107 1288 1088 1299 1097 l 1311 1100 b 1301 1083 1308 1094 1304 1089 b 1150 808 1244 994 1194 903 b 1003 476 1099 699 1050 588 b 747 -154 911 268 822 60 b 699 -321 728 -210 711 -264 b 692 -369 696 -337 692 -353 b 693 -385 692 -375 693 -379 b 724 -419 694 -404 706 -417 b 729 -421 726 -419 728 -421 b 740 -410 736 -421 740 -417 b 739 -404 740 -408 739 -407 l 739 -393 b 740 -367 739 -385 739 -375 b 775 -240 747 -324 761 -282 b 875 18 806 -153 840 -67 b 1058 432 933 157 994 294 b 1196 710 1103 525 1147 618 b 1379 1040 1256 821 1321 928 b 1417 1132 1394 1069 1408 1099 b 1418 1150 1418 1138 1418 1144 b 1399 1199 1418 1168 1413 1183 b 1379 1211 1392 1207 1386 1211 b 1360 1203 1374 1211 1368 1208 b 1322 1169 1346 1193 1333 1182 b 1089 925 1240 1092 1164 1010 b 725 454 957 775 838 618 b 531 165 658 358 596 261 b 513 144 526 160 524 151 b 533 214 521 171 526 192 b 692 594 576 344 631 471 b 782 778 721 656 753 717 b 810 843 793 799 803 819 b 813 861 813 850 813 856 b 788 906 813 879 804 894 b 769 914 781 911 775 914 b 751 900 764 914 758 910 b 700 829 735 876 718 853 b 478 536 626 732 551 635 b 90 -33 340 353 213 161 b 64 -75 82 -46 74 -60 z m 411 1103 l 399 1078 b 246 756 344 972 293 865 b 214 732 240 740 231 733 b 182 728 203 731 192 728 l 176 728 b 161 747 164 728 161 732 b 171 797 161 765 164 781 b 240 924 188 843 213 885 b 401 1100 288 989 339 1049 b 408 1106 403 1101 406 1103 z "},"N":{"ha":1126,"x_min":0,"x_max":0,"o":"m 451 1086 b 406 976 436 1049 421 1013 b 140 324 310 763 217 546 b 10 -118 90 178 43 32 b 1 -179 6 -139 1 -158 l 1 -183 b 25 -212 1 -199 8 -206 b 38 -215 29 -214 33 -215 b 65 -201 49 -215 57 -210 b 106 -146 81 -183 93 -165 b 313 172 175 -39 240 68 b 838 775 465 393 636 597 b 999 899 889 819 942 863 b 1103 950 1032 919 1065 939 b 1121 954 1108 951 1115 953 b 1129 949 1125 954 1129 953 b 1128 944 1129 947 1128 946 b 1115 913 1124 933 1121 922 b 1022 710 1085 844 1054 778 b 881 367 971 597 926 482 b 700 -132 815 203 753 36 b 660 -292 683 -185 667 -237 b 658 -315 660 -300 658 -307 b 661 -337 658 -322 660 -329 b 699 -372 667 -357 679 -368 l 703 -372 b 714 -362 710 -372 714 -369 b 713 -356 714 -360 714 -358 b 708 -335 710 -349 708 -342 b 711 -312 708 -328 710 -319 b 760 -146 721 -256 740 -200 b 913 238 806 -17 857 111 b 1067 568 960 350 1010 460 b 1160 757 1100 631 1132 693 b 1207 903 1181 804 1200 851 b 1208 921 1208 908 1208 915 b 1168 1006 1208 954 1194 982 b 1125 1024 1156 1018 1140 1024 b 1096 1017 1115 1024 1106 1021 b 1060 999 1083 1011 1071 1006 b 961 931 1025 979 992 956 b 768 761 893 876 831 819 b 511 493 676 676 592 586 b 225 108 407 371 314 242 b 82 -108 178 36 131 -36 b 68 -125 78 -114 75 -121 b 67 -119 68 -122 67 -121 b 86 -54 74 -99 79 -76 b 240 346 131 82 183 214 b 442 789 304 494 375 642 b 526 997 474 857 503 925 b 543 1076 533 1022 542 1049 l 543 1082 b 503 1171 543 1117 531 1147 b 468 1188 490 1182 479 1188 b 435 1174 458 1188 447 1183 b 406 1153 425 1168 415 1161 b 232 971 342 1099 282 1039 b 160 833 201 929 174 883 b 149 772 154 814 149 793 b 151 747 149 764 150 756 b 231 685 158 711 188 685 b 249 686 236 685 242 685 b 257 693 253 688 256 689 b 253 703 257 697 256 700 b 226 714 244 710 236 711 b 203 743 206 718 203 722 b 217 804 204 764 208 785 b 429 1076 261 915 335 1004 b 451 1086 435 1081 439 1086 z "},"O":{"ha":1568,"x_min":0,"x_max":0,"o":"m 1 176 l 1 167 b 51 -75 1 89 17 6 b 265 -274 94 -171 165 -239 b 449 -304 326 -296 388 -304 b 574 -293 490 -304 532 -300 b 1008 -118 731 -268 875 -206 b 1294 136 1117 -49 1211 38 b 1464 417 1365 221 1424 314 b 1510 651 1493 493 1510 572 b 1500 760 1510 688 1507 724 b 1324 1044 1478 878 1419 974 b 972 1163 1217 1126 1099 1163 b 867 1154 938 1163 903 1160 b 679 1101 803 1144 740 1126 b 667 1099 675 1100 671 1099 b 653 1106 663 1099 658 1100 b 575 1140 629 1129 603 1140 b 531 1132 560 1140 546 1138 b 457 1093 504 1122 481 1110 b 263 894 381 1039 318 969 b 64 519 178 779 111 654 b 1 176 25 413 1 301 z m 300 757 b 292 733 297 749 294 742 b 276 638 282 701 276 669 b 385 417 276 553 314 475 b 542 325 433 378 486 350 b 932 190 668 269 797 222 b 1050 174 971 182 1010 174 l 1074 174 b 1086 181 1079 175 1086 174 l 1086 182 b 1072 189 1086 189 1078 189 b 701 281 942 190 821 238 b 485 378 626 307 553 338 b 390 453 449 397 417 421 b 329 611 349 500 329 554 b 342 692 329 638 333 664 b 428 846 358 749 389 800 b 621 1003 483 910 547 961 b 643 1010 628 1007 635 1010 b 654 1007 646 1010 650 1010 b 658 1006 656 1006 657 1006 b 668 1014 663 1006 667 1008 b 694 1039 669 1029 682 1033 b 947 1103 775 1074 858 1096 b 1001 1106 965 1104 983 1106 b 1189 1074 1065 1106 1128 1096 b 1340 986 1246 1056 1296 1026 b 1453 768 1404 928 1439 853 b 1460 678 1458 738 1460 707 b 1419 457 1460 603 1446 529 b 1225 135 1375 338 1307 232 b 900 -140 1133 24 1025 -68 b 519 -271 781 -207 656 -254 b 443 -276 494 -274 469 -276 b 332 -264 407 -276 369 -272 b 119 -89 232 -240 163 -181 b 75 100 92 -29 79 35 b 74 138 75 113 74 125 b 157 506 74 265 107 388 b 285 740 192 588 233 667 b 297 758 289 747 293 753 b 300 757 297 758 299 758 z "},"P":{"ha":1625,"x_min":0,"x_max":0,"o":"m 781 1082 b 765 1042 776 1065 771 1053 b 667 843 735 974 701 908 b 544 607 625 764 585 685 b 517 583 538 594 529 588 b 460 565 497 578 479 572 b 200 460 372 535 283 503 b 57 351 146 433 97 397 b 7 263 35 325 17 296 b 1 225 4 250 1 239 l 1 217 b 50 126 6 179 24 151 b 169 67 85 96 125 78 b 257 51 197 58 228 56 b 274 43 269 50 274 49 b 269 31 274 40 272 36 b 233 -60 258 0 244 -29 b 169 -256 208 -124 185 -189 b 167 -283 168 -265 167 -274 b 182 -306 167 -294 172 -301 b 201 -311 189 -310 196 -311 b 228 -294 211 -311 219 -306 b 282 -201 249 -265 265 -233 b 404 32 322 -124 364 -47 b 440 57 413 47 424 54 b 526 69 469 60 499 64 b 1096 268 726 106 914 178 b 1426 467 1211 326 1321 392 b 1740 740 1540 547 1649 635 b 1844 897 1782 789 1818 840 b 1872 1010 1861 933 1872 971 b 1871 1032 1872 1017 1872 1024 b 1738 1181 1861 1104 1808 1165 b 1671 1189 1715 1186 1693 1189 b 1583 1178 1642 1189 1613 1185 b 1254 1036 1464 1153 1356 1100 b 810 658 1088 931 942 803 b 782 643 803 649 794 644 b 693 629 753 639 722 636 b 686 628 690 628 688 628 b 679 631 683 628 681 628 l 679 633 b 685 646 679 638 682 642 b 814 893 729 728 774 810 b 865 1038 836 940 856 988 b 868 1063 867 1046 868 1054 b 826 1143 868 1094 854 1122 b 790 1156 815 1151 803 1156 b 764 1149 782 1156 774 1154 b 613 1033 707 1118 656 1082 b 599 1011 607 1026 601 1019 b 597 1006 597 1010 597 1007 b 615 979 597 996 606 985 b 626 976 619 978 622 976 b 644 990 633 976 639 981 b 660 1008 649 999 654 1004 b 704 1042 675 1019 689 1031 b 781 1082 728 1057 750 1071 z m 453 115 b 526 235 476 156 501 196 b 796 600 608 363 697 485 b 843 626 808 615 824 626 b 853 625 846 626 849 625 l 867 625 b 875 631 871 625 875 626 l 875 632 b 854 644 875 643 863 642 l 850 644 b 840 649 847 644 844 644 l 886 699 b 1283 1018 1006 821 1136 931 b 1563 1128 1371 1068 1463 1108 b 1653 1138 1593 1133 1624 1138 b 1728 1131 1678 1138 1703 1135 b 1789 1106 1750 1126 1771 1118 b 1811 1067 1804 1097 1811 1085 l 1811 1061 b 1790 989 1810 1036 1801 1011 b 1690 842 1765 935 1729 886 b 1421 586 1610 747 1518 664 b 922 268 1267 463 1101 354 b 479 114 781 200 633 147 l 454 110 b 453 115 454 113 453 114 z m 513 553 l 513 549 b 508 538 513 544 511 540 b 304 110 438 396 368 254 b 276 90 299 96 290 90 b 154 104 235 90 194 93 b 97 128 135 108 115 117 b 44 215 63 149 44 179 b 49 247 44 225 46 236 b 128 365 61 296 92 333 b 303 474 179 413 240 446 b 497 550 367 501 432 526 b 510 553 500 551 506 553 z m 771 615 b 744 583 763 604 753 594 b 442 156 631 450 532 306 b 415 113 433 142 424 126 b 400 100 413 106 407 100 b 394 101 397 100 396 101 b 393 107 393 103 393 106 b 399 119 393 111 397 115 b 550 401 447 214 499 308 b 649 581 582 461 615 521 b 676 603 654 593 663 600 b 760 619 704 607 732 614 l 763 619 b 771 615 765 619 768 619 z m 279 -133 b 357 36 300 -74 329 -19 l 361 44 b 368 49 363 46 365 49 b 372 47 369 49 371 49 b 375 43 374 46 375 44 b 372 38 375 42 374 39 l 343 -17 b 279 -133 321 -56 300 -94 z "},"Q":{"ha":1506,"x_min":0,"x_max":0,"o":"m 382 -450 b 397 -439 388 -443 393 -442 b 707 -247 506 -385 610 -322 b 732 -233 714 -242 722 -237 b 888 -147 785 -208 838 -181 b 1204 132 1006 -69 1111 25 b 1417 464 1292 232 1365 342 b 1476 739 1454 553 1476 643 b 1472 807 1476 761 1475 783 b 1140 1176 1450 988 1317 1136 b 1040 1188 1107 1185 1074 1188 b 982 1185 1021 1188 1001 1186 l 978 1185 b 963 1196 971 1185 967 1188 b 928 1242 957 1215 943 1229 b 818 1278 894 1265 858 1278 b 792 1276 810 1278 801 1278 b 708 1249 763 1271 735 1261 b 508 1104 632 1214 568 1161 b 274 813 417 1018 339 919 b 57 210 160 626 78 429 b 53 135 54 185 53 160 b 78 -36 53 76 60 19 b 174 -197 97 -97 128 -153 b 440 -303 249 -268 338 -301 b 540 -294 474 -303 507 -300 b 529 -307 539 -303 533 -304 b 233 -471 435 -368 335 -422 b 190 -485 219 -476 204 -482 b 43 -529 140 -497 90 -510 b 10 -546 31 -535 19 -540 b 1 -557 4 -549 1 -553 b 6 -567 1 -560 3 -562 b 33 -583 13 -576 21 -583 b 42 -582 36 -583 39 -582 b 149 -547 78 -574 114 -561 b 313 -500 201 -526 257 -511 b 618 -449 414 -479 515 -462 b 831 -422 689 -439 760 -429 b 1011 -407 890 -415 950 -410 b 1125 -403 1049 -404 1088 -403 b 1219 -408 1157 -403 1188 -404 b 1225 -410 1221 -410 1224 -410 l 1228 -410 b 1236 -406 1232 -410 1235 -408 l 1236 -403 b 1231 -393 1236 -399 1233 -396 b 1215 -387 1226 -390 1221 -389 b 1136 -379 1189 -382 1163 -379 l 1101 -379 b 854 -392 1018 -379 936 -383 b 660 -411 789 -397 724 -404 b 382 -450 568 -422 476 -435 z m 846 -117 b 882 -57 858 -97 871 -78 b 917 64 904 -17 917 24 b 876 190 917 106 903 149 b 811 274 857 221 836 249 b 671 417 765 321 718 368 b 589 518 640 447 613 482 b 538 683 554 572 538 628 b 567 818 538 728 547 772 b 778 1053 610 919 683 994 b 989 1129 843 1093 913 1118 b 1063 1135 1014 1132 1038 1135 b 1229 1100 1119 1135 1175 1125 b 1425 853 1339 1053 1403 969 b 1433 760 1431 821 1433 790 b 1401 565 1433 693 1421 629 b 1226 238 1364 444 1303 338 b 865 -104 1124 104 1004 -10 b 846 -117 858 -108 851 -112 z m 428 -269 b 276 -231 376 -269 324 -260 b 167 -97 225 -199 190 -153 b 135 57 147 -47 138 4 b 133 96 135 69 133 83 b 204 440 133 215 161 329 b 503 924 274 619 374 782 b 746 1128 575 1003 656 1072 b 886 1190 790 1154 835 1179 b 910 1192 894 1192 901 1192 l 914 1192 b 925 1182 919 1192 924 1190 b 913 1172 925 1175 918 1174 b 807 1136 876 1164 842 1151 b 525 876 685 1081 589 996 b 481 714 499 825 483 772 l 481 701 b 531 533 481 642 500 585 b 628 411 558 489 592 449 b 779 258 678 360 729 310 b 842 174 804 233 825 206 b 860 96 854 149 860 122 b 854 49 860 81 858 64 b 778 -97 843 -7 814 -54 b 661 -210 744 -140 704 -176 b 640 -225 656 -215 647 -221 b 428 -269 572 -250 503 -268 z "},"R":{"ha":1525,"x_min":0,"x_max":0,"o":"m 328 174 b 321 149 328 163 324 156 b 118 -331 250 -10 186 -171 b 99 -381 111 -347 104 -364 b 96 -392 97 -385 96 -389 b 108 -406 96 -397 100 -401 b 125 -410 115 -408 121 -410 b 150 -392 136 -410 143 -404 b 171 -350 158 -378 164 -364 b 354 40 229 -218 292 -89 b 444 190 381 93 413 142 b 471 208 451 200 460 206 b 540 228 494 214 518 221 b 569 232 551 231 560 232 l 579 232 b 775 203 646 224 711 215 b 1076 131 876 183 976 158 b 1619 -53 1260 79 1443 22 b 1854 -192 1703 -89 1786 -129 b 1864 -199 1857 -194 1860 -199 b 1869 -197 1865 -199 1868 -199 b 1872 -190 1872 -194 1872 -193 b 1868 -179 1872 -186 1871 -182 b 1860 -169 1867 -175 1863 -172 b 1825 -139 1849 -158 1838 -149 b 1600 -12 1757 -83 1679 -47 b 1208 131 1472 43 1340 89 b 742 260 1054 179 899 224 b 688 272 725 264 707 265 b 710 283 694 281 703 281 b 1282 543 907 356 1099 440 b 1710 831 1433 626 1578 718 b 1860 996 1765 881 1818 933 b 1894 1071 1875 1019 1888 1044 b 1899 1103 1897 1082 1899 1092 b 1778 1232 1899 1169 1849 1226 b 1747 1233 1768 1233 1757 1233 b 1664 1225 1719 1233 1692 1231 b 1343 1097 1550 1201 1444 1153 b 856 732 1165 997 1004 871 b 528 371 736 621 628 500 b 515 363 525 368 522 363 b 525 383 519 371 522 376 b 664 657 571 475 618 565 b 807 967 715 758 767 860 b 850 1122 826 1017 846 1068 b 851 1138 850 1128 851 1133 b 803 1242 851 1179 836 1214 b 754 1261 788 1254 771 1261 b 722 1254 743 1261 733 1258 b 699 1243 715 1250 707 1247 b 488 1079 619 1199 550 1143 b 439 1014 468 1060 450 1040 b 433 990 435 1006 433 997 b 481 935 433 964 451 942 b 486 933 482 935 485 933 b 494 938 489 933 492 935 b 496 942 496 939 496 940 b 490 950 496 946 493 949 b 485 963 486 954 485 958 b 489 978 485 967 486 972 b 515 1015 496 992 504 1004 b 678 1149 561 1069 617 1113 b 747 1179 700 1161 722 1174 b 765 1183 753 1181 758 1183 b 774 1182 768 1183 771 1183 b 744 1086 768 1149 757 1117 b 619 801 707 989 664 894 b 403 332 547 644 475 489 b 374 301 390 304 389 301 l 354 301 b 115 274 274 301 193 294 b 31 242 86 267 57 257 b 7 213 15 233 7 224 b 24 182 7 204 13 193 b 86 153 40 164 63 157 b 128 150 100 150 114 150 b 207 156 154 150 181 153 b 328 174 246 158 286 167 z m 522 296 b 532 314 524 304 529 308 b 725 549 593 394 657 474 b 982 800 806 638 890 722 b 1374 1074 1103 906 1232 999 b 1643 1174 1460 1118 1547 1156 b 1736 1185 1674 1181 1704 1185 b 1778 1182 1750 1185 1764 1185 b 1835 1164 1797 1179 1817 1174 b 1846 1147 1842 1161 1846 1156 b 1844 1140 1846 1146 1844 1143 b 1825 1093 1840 1124 1833 1108 b 1740 986 1801 1053 1772 1018 b 1471 761 1658 901 1567 828 b 571 299 1193 564 893 410 b 540 292 561 294 551 292 b 522 296 535 292 528 293 z m 353 236 b 89 194 267 213 181 196 b 321 238 119 217 238 238 b 353 236 332 238 343 238 z "},"S":{"ha":1088,"x_min":0,"x_max":0,"o":"m 51 -229 b 86 -208 63 -219 74 -214 b 453 -97 203 -153 325 -117 l 524 -89 b 538 -78 531 -87 538 -86 b 525 -64 538 -69 532 -65 l 510 -64 b 256 -107 424 -71 339 -85 b 44 -181 183 -126 113 -149 b 17 -197 35 -186 25 -192 b 4 -218 8 -204 4 -211 b 10 -236 4 -224 6 -229 b 47 -265 18 -250 31 -260 b 106 -274 67 -269 86 -274 l 197 -274 b 333 -271 243 -274 289 -274 b 606 -247 425 -265 515 -258 b 881 -207 697 -237 789 -225 b 1039 -164 935 -197 988 -185 b 1111 -122 1065 -154 1090 -142 b 1135 -71 1126 -108 1135 -92 l 1135 -65 b 1113 3 1133 -40 1126 -18 b 1011 94 1088 43 1051 71 b 811 190 947 132 881 163 b 365 357 665 251 514 303 b 190 431 306 379 247 400 b 129 469 169 442 149 453 b 110 510 117 481 110 494 b 113 528 110 515 111 521 b 151 593 121 554 135 575 b 243 671 179 624 210 647 b 467 792 313 718 389 757 b 1033 981 649 875 838 939 b 1325 1015 1129 1001 1226 1015 l 1361 1015 b 1413 1008 1378 1014 1396 1013 b 1424 1001 1421 1007 1424 1004 b 1418 990 1424 999 1422 994 b 1392 967 1410 982 1401 975 b 1313 915 1367 947 1340 931 b 1079 797 1238 871 1160 833 b 1068 792 1075 796 1072 794 b 1061 782 1063 789 1061 786 b 1064 774 1061 779 1061 776 b 1085 763 1069 767 1076 763 b 1093 764 1088 763 1090 764 b 1139 778 1110 767 1125 772 b 1394 896 1226 811 1313 850 b 1460 943 1418 908 1440 924 b 1482 993 1475 958 1482 974 b 1481 1007 1482 997 1482 1003 b 1421 1082 1474 1042 1454 1067 b 1329 1100 1392 1094 1361 1099 l 1303 1100 b 1049 1071 1217 1100 1132 1089 b 364 838 810 1022 582 944 b 142 706 286 800 210 758 b 57 619 110 681 79 654 b 35 554 43 597 35 576 b 47 503 35 538 39 521 b 113 418 63 471 85 442 b 210 356 142 393 175 374 b 503 236 306 310 404 274 b 896 82 635 188 767 140 b 1049 -3 949 58 1001 32 b 1071 -28 1064 -14 1071 -21 b 1049 -54 1071 -36 1064 -43 b 971 -94 1025 -72 999 -85 b 514 -201 822 -147 669 -178 b 269 -229 432 -212 351 -221 b 121 -237 219 -233 169 -237 b 79 -236 107 -237 93 -236 l 72 -236 b 51 -229 65 -236 58 -235 z "},"T":{"ha":1510,"x_min":0,"x_max":0,"o":"m 1258 950 b 1247 931 1253 940 1250 935 b 1074 615 1186 826 1128 722 b 849 117 989 453 913 288 b 757 -176 811 21 776 -76 b 746 -265 751 -206 746 -235 l 746 -275 b 774 -318 746 -296 756 -310 b 800 -324 782 -322 790 -324 b 828 -317 808 -324 818 -322 b 861 -290 840 -308 851 -300 b 932 -212 886 -267 910 -240 b 1174 122 1019 -106 1099 7 b 1347 425 1238 219 1299 319 b 1432 672 1385 504 1415 586 b 1442 767 1438 704 1442 736 b 1413 913 1442 817 1433 865 b 1408 929 1410 918 1408 924 b 1450 972 1408 951 1426 969 b 1553 983 1485 976 1518 979 b 1754 1003 1619 990 1686 997 b 1942 1018 1817 1008 1879 1013 b 2161 1031 2015 1024 2088 1029 b 2185 1032 2169 1031 2178 1032 b 2299 1035 2222 1033 2261 1035 b 2392 1032 2329 1035 2360 1033 b 2483 1025 2422 1031 2453 1026 l 2486 1025 b 2501 1038 2496 1025 2501 1029 b 2499 1049 2501 1040 2500 1044 b 2482 1063 2496 1056 2490 1061 b 2460 1067 2474 1064 2467 1065 b 2228 1079 2383 1076 2306 1079 l 2214 1079 b 2126 1076 2185 1079 2156 1076 b 1974 1071 2075 1076 2024 1072 b 1896 1067 1947 1069 1922 1068 b 1735 1054 1842 1063 1789 1058 b 1617 1044 1694 1051 1656 1047 b 1457 1028 1563 1039 1510 1033 l 1451 1028 b 1424 1043 1439 1028 1431 1032 b 1365 1079 1410 1063 1389 1074 b 1357 1081 1363 1079 1360 1081 b 1338 1069 1350 1081 1343 1076 b 1319 1044 1331 1063 1325 1054 b 1308 1036 1317 1039 1313 1036 b 1299 1040 1306 1036 1301 1038 b 1271 1056 1289 1046 1281 1050 b 1038 1111 1199 1092 1119 1107 b 988 1113 1021 1113 1004 1113 b 699 1078 890 1113 793 1099 b 325 963 571 1049 447 1010 b 51 847 232 928 140 892 b 13 822 38 840 25 833 b 3 807 6 817 3 813 b 7 794 3 804 4 800 b 64 760 19 772 39 760 l 71 760 b 171 772 104 761 138 767 b 588 853 310 799 449 826 b 904 903 693 872 799 888 l 1113 932 b 1258 950 1160 938 1207 943 z m 1389 893 b 1404 810 1400 867 1404 839 b 1406 785 1404 801 1406 793 b 1376 619 1406 729 1393 674 b 1244 329 1346 517 1299 421 b 910 -164 1144 157 1033 -8 b 826 -257 883 -196 857 -228 b 808 -271 821 -262 817 -268 b 804 -258 806 -267 804 -262 b 807 -242 804 -253 806 -247 b 851 -97 818 -192 833 -144 b 1036 294 906 38 968 167 b 1250 674 1103 422 1175 549 b 1381 888 1293 744 1338 815 b 1389 893 1382 889 1383 892 z m 178 844 l 167 844 b 324 908 221 869 272 889 b 700 1022 447 954 571 994 b 928 1057 775 1039 850 1051 b 1015 1061 957 1060 986 1061 b 1064 1060 1032 1061 1047 1061 b 1242 1028 1124 1058 1185 1049 b 1274 1013 1251 1024 1263 1019 b 1201 1001 1249 1004 1225 1004 b 953 972 1118 992 1036 982 b 738 944 881 963 808 954 b 421 894 631 931 525 914 b 178 844 339 879 258 863 z "},"U":{"ha":1122,"x_min":0,"x_max":0,"o":"m 489 1107 b 481 1085 488 1097 483 1092 b 358 828 439 999 399 914 b 96 200 260 624 171 414 b 10 -97 61 103 29 4 b 1 -178 6 -125 1 -150 b 3 -200 1 -185 3 -193 b 49 -253 6 -228 21 -246 b 68 -256 56 -256 61 -256 b 106 -244 81 -256 93 -251 b 168 -194 129 -232 149 -214 b 365 31 239 -124 301 -46 b 622 343 451 135 536 239 b 869 631 703 440 786 536 b 1079 865 939 710 1010 788 b 1097 879 1085 869 1088 876 b 1088 857 1093 869 1090 863 b 1036 751 1069 822 1053 788 b 890 408 983 639 938 524 b 665 -186 810 213 732 15 b 613 -372 644 -247 625 -308 b 607 -415 610 -385 607 -400 l 607 -422 b 638 -453 607 -440 619 -451 l 640 -453 b 653 -440 649 -453 653 -449 l 653 -437 b 651 -425 653 -433 651 -429 b 658 -386 651 -412 656 -399 b 681 -306 665 -358 672 -332 b 1018 526 775 -21 892 256 b 1283 997 1094 690 1189 844 b 1342 1100 1304 1031 1326 1064 b 1347 1124 1346 1108 1347 1115 b 1318 1172 1347 1143 1336 1163 b 1307 1176 1314 1175 1311 1176 b 1294 1169 1303 1176 1299 1174 b 1265 1138 1285 1160 1274 1149 b 1192 1042 1240 1106 1218 1072 b 1014 842 1133 974 1074 907 b 729 519 917 736 822 629 b 297 8 585 350 442 178 b 124 -176 243 -57 186 -118 b 82 -211 111 -189 97 -200 b 72 -215 79 -212 76 -215 b 68 -214 71 -215 69 -215 b 63 -206 64 -212 63 -208 b 64 -200 63 -204 64 -201 b 69 -151 65 -183 67 -168 b 124 31 81 -89 101 -29 b 319 474 179 182 249 328 b 472 776 369 575 422 675 b 597 1035 515 863 560 946 b 626 1131 610 1065 622 1097 b 628 1147 628 1136 628 1142 b 558 1263 628 1194 601 1240 b 536 1268 551 1265 544 1268 b 514 1261 529 1268 521 1265 b 488 1242 506 1254 496 1249 b 313 1040 418 1183 360 1117 b 274 943 294 1010 281 978 b 272 928 272 938 272 932 b 297 878 272 908 281 892 b 336 858 308 868 321 863 b 349 856 340 857 344 856 b 357 861 353 856 356 857 b 358 867 358 863 358 865 b 346 879 358 872 351 876 b 335 899 338 885 335 890 b 336 908 335 901 335 904 b 353 949 340 922 346 936 b 474 1099 385 1006 428 1053 b 489 1107 478 1101 482 1107 z "},"V":{"ha":808,"x_min":0,"x_max":0,"o":"m 86 -346 b 81 -322 83 -336 82 -329 b 79 -300 79 -315 79 -308 b 78 -261 79 -287 78 -275 b 99 -58 78 -193 88 -125 b 207 415 124 103 164 258 b 357 897 253 576 307 736 b 406 1090 378 961 397 1024 l 406 1103 b 356 1193 406 1142 389 1172 b 322 1207 342 1201 331 1207 b 286 1181 310 1207 300 1199 b 283 1175 285 1179 285 1178 b 154 939 231 1101 188 1024 b 135 871 146 917 139 894 b 133 847 133 863 133 854 b 176 786 133 818 144 801 b 183 776 182 783 183 779 l 183 772 l 179 760 b 126 564 161 694 143 629 b 40 161 92 431 63 296 b 10 -76 26 82 17 3 b 3 -211 6 -122 3 -167 b 7 -292 3 -237 4 -265 b 19 -356 8 -314 11 -335 b 42 -387 24 -369 31 -381 b 81 -399 54 -394 67 -399 b 129 -379 99 -399 115 -392 b 160 -344 142 -368 151 -357 b 235 -231 188 -308 211 -269 b 656 433 368 -4 506 218 b 1208 1172 833 685 1013 935 b 1393 1372 1267 1243 1325 1311 b 1417 1393 1400 1379 1408 1386 b 1421 1403 1419 1396 1421 1400 b 1413 1414 1421 1407 1418 1411 b 1404 1417 1410 1415 1407 1417 b 1392 1411 1400 1417 1396 1414 b 1357 1382 1381 1401 1368 1392 b 1110 1110 1267 1299 1188 1206 b 807 717 1006 982 906 850 b 451 219 685 553 567 388 b 190 -194 358 85 274 -54 b 110 -321 164 -236 139 -279 b 86 -346 104 -329 99 -339 z m 289 1053 b 251 929 276 1013 265 974 b 249 946 250 933 249 940 b 289 1053 249 976 267 1024 z "},"W":{"ha":1579,"x_min":0,"x_max":0,"o":"m 90 -101 b 86 -90 88 -97 86 -93 b 88 -85 86 -89 88 -86 b 107 4 94 -54 100 -25 b 285 539 154 186 217 364 b 438 914 335 664 386 789 b 482 1063 457 963 475 1011 b 483 1085 483 1071 483 1078 b 422 1190 483 1129 461 1164 b 392 1204 408 1200 400 1204 b 358 1182 382 1204 372 1197 b 219 999 306 1126 258 1065 b 188 919 206 974 193 949 b 186 904 186 914 186 910 b 210 861 186 888 193 872 b 232 847 217 856 224 851 b 247 836 243 843 247 842 b 243 822 247 833 246 829 b 147 538 208 728 176 633 b 21 43 99 375 53 211 b 0 -131 10 -14 0 -72 b 49 -190 1 -168 13 -182 b 64 -193 54 -192 58 -193 b 103 -175 78 -193 92 -186 b 171 -86 129 -149 150 -117 b 600 514 307 119 446 322 b 794 746 663 593 726 672 b 811 761 799 751 803 758 b 810 756 811 758 811 756 b 596 161 717 565 643 368 b 556 -144 574 60 556 -42 b 558 -208 556 -165 557 -187 b 593 -353 563 -258 572 -307 b 704 -422 615 -400 654 -421 l 710 -422 b 807 -390 746 -422 778 -408 b 903 -310 843 -367 874 -339 b 1121 -56 982 -231 1053 -144 b 1590 651 1292 169 1449 407 b 1713 903 1638 732 1681 815 b 1740 1017 1726 940 1739 978 l 1740 1026 b 1708 1088 1740 1051 1731 1072 b 1682 1097 1700 1094 1690 1097 b 1656 1088 1672 1097 1664 1094 b 1621 1050 1640 1078 1631 1064 b 1564 936 1599 1014 1581 976 b 1532 829 1550 901 1538 867 b 1531 801 1531 819 1531 811 b 1569 724 1531 771 1539 744 b 1575 715 1574 721 1575 718 b 1572 707 1575 713 1574 710 b 1565 693 1569 703 1568 699 b 1388 406 1510 596 1450 500 b 904 -231 1239 183 1082 -32 b 771 -358 863 -276 821 -321 b 729 -382 757 -367 744 -376 b 711 -386 722 -385 717 -386 b 686 -375 701 -386 693 -382 b 660 -337 675 -364 667 -351 b 636 -219 644 -300 638 -260 l 636 -197 b 669 57 636 -111 650 -28 b 819 515 706 214 760 367 b 933 794 856 610 899 700 b 951 851 940 813 947 832 b 953 868 953 857 953 863 b 931 917 953 886 947 903 b 911 926 922 924 917 926 b 892 914 906 926 900 922 b 826 842 869 890 849 867 b 592 564 746 751 668 658 b 163 -4 440 381 300 189 b 90 -101 139 -36 115 -67 z m 1585 736 b 1564 776 1569 744 1564 758 l 1564 783 b 1571 828 1564 797 1567 814 b 1660 1006 1590 893 1619 951 b 1694 1039 1669 1019 1679 1032 b 1700 1033 1699 1038 1700 1035 b 1699 1028 1700 1031 1699 1029 b 1669 911 1696 988 1683 949 b 1593 744 1649 853 1621 799 b 1585 736 1590 740 1589 738 z "},"X":{"ha":1401,"x_min":0,"x_max":0,"o":"m 1071 578 b 1065 600 1068 588 1067 593 b 1039 819 1054 672 1046 746 b 1019 1043 1032 894 1026 968 b 1003 1129 1017 1072 1013 1101 b 953 1193 993 1156 976 1178 b 908 1206 939 1201 924 1204 b 892 1189 897 1206 892 1200 l 892 1172 b 894 1047 892 1131 892 1089 b 907 868 896 986 901 926 b 979 517 921 749 943 632 b 982 504 981 511 982 507 b 968 479 982 494 976 488 b 874 390 936 450 904 421 b 638 167 794 317 715 242 b 275 -182 515 51 394 -64 b 10 -451 185 -271 99 -362 b 3 -465 4 -457 3 -461 b 8 -478 3 -469 4 -474 b 29 -492 15 -487 22 -492 b 40 -487 32 -492 36 -490 b 71 -460 51 -479 61 -469 b 299 -240 147 -386 222 -312 b 561 7 386 -157 474 -75 b 903 318 675 111 789 214 b 999 404 935 347 967 376 b 1011 411 1004 408 1007 411 b 1021 399 1014 411 1017 407 b 1022 393 1021 397 1022 394 b 1265 -119 1093 217 1172 46 b 1378 -294 1299 -181 1335 -239 b 1446 -364 1399 -319 1419 -343 b 1507 -386 1464 -378 1485 -386 b 1524 -385 1513 -386 1518 -386 b 1550 -374 1533 -383 1542 -379 b 1554 -364 1553 -371 1554 -368 b 1543 -357 1553 -358 1549 -357 l 1538 -357 b 1525 -360 1533 -358 1529 -360 b 1490 -344 1511 -360 1501 -351 b 1440 -293 1471 -329 1454 -312 b 1322 -104 1393 -235 1357 -171 b 1132 329 1249 36 1185 181 b 1093 463 1117 374 1104 417 b 1090 475 1092 467 1090 471 b 1103 497 1090 483 1094 490 b 1131 522 1113 504 1122 514 b 1510 839 1254 632 1382 736 b 1821 1097 1614 925 1721 1007 b 1885 1167 1844 1119 1867 1142 b 1897 1197 1892 1175 1897 1186 l 1897 1201 b 1843 1244 1893 1226 1868 1244 b 1821 1239 1836 1244 1828 1243 b 1765 1200 1801 1226 1783 1214 b 1340 832 1614 1088 1478 960 b 1114 617 1264 761 1190 688 b 1071 578 1101 604 1088 592 z "},"Y":{"ha":1924,"x_min":0,"x_max":0,"o":"m 665 133 b 660 132 664 132 661 132 l 656 132 b 526 142 613 139 569 142 b 428 136 493 142 461 140 b 203 101 353 129 278 117 b 49 58 150 90 99 78 b 13 40 36 53 24 49 b 3 25 6 35 3 31 b 7 11 3 21 4 17 b 49 -18 15 -6 31 -15 l 64 -18 b 78 -19 68 -18 74 -18 l 89 -19 b 338 6 172 -19 256 -6 b 733 60 469 22 601 42 b 750 61 739 61 744 61 b 785 54 761 61 774 58 b 868 15 814 43 842 31 b 1061 -233 965 -42 1032 -124 b 1088 -375 1075 -279 1082 -328 b 1101 -446 1090 -399 1093 -424 b 1169 -499 1113 -479 1140 -499 b 1222 -475 1188 -499 1207 -490 b 1260 -429 1236 -461 1249 -446 b 1347 -278 1293 -381 1321 -329 b 1544 131 1417 -143 1482 -7 b 1585 157 1553 150 1565 156 b 1699 168 1622 160 1661 164 b 1893 185 1764 174 1828 181 b 1996 192 1928 186 1963 190 b 2010 200 2001 193 2010 193 l 2010 203 b 1997 217 2010 210 2004 214 l 1986 217 b 1925 215 1965 217 1946 217 b 1653 196 1835 210 1743 204 b 1596 190 1635 193 1615 192 l 1588 190 b 1578 194 1581 190 1578 192 b 1582 210 1578 199 1579 203 b 1614 281 1592 233 1603 257 b 1850 840 1697 465 1779 651 b 1922 1065 1878 914 1904 988 b 1929 1122 1926 1083 1929 1103 l 1929 1131 b 1901 1193 1926 1154 1919 1176 b 1878 1206 1892 1201 1885 1206 b 1854 1197 1871 1206 1864 1203 b 1821 1167 1842 1189 1831 1178 b 1628 971 1756 1103 1692 1036 b 1210 553 1490 829 1351 689 b 976 336 1132 479 1056 407 b 806 194 921 286 865 239 b 736 151 783 179 761 164 b 724 147 731 149 726 147 b 715 164 718 147 717 153 b 724 218 715 182 719 200 b 783 397 736 281 758 339 b 938 708 829 503 883 606 b 1092 1008 990 808 1044 907 b 1135 1133 1111 1049 1128 1089 b 1138 1160 1136 1143 1138 1151 b 1104 1246 1138 1192 1126 1221 b 1040 1283 1079 1272 1061 1283 b 989 1265 1025 1283 1010 1276 b 885 1193 951 1246 918 1219 b 790 1092 850 1163 817 1131 b 774 1057 783 1081 778 1069 b 772 1047 774 1054 772 1050 b 775 1033 772 1042 774 1038 b 832 997 786 1010 808 997 b 854 1001 839 997 847 999 b 864 1013 860 1004 864 1008 b 861 1018 864 1014 864 1015 b 854 1032 857 1022 854 1028 b 861 1044 854 1036 857 1040 b 1021 1167 908 1093 961 1136 b 1029 1169 1024 1168 1026 1169 b 1033 1167 1031 1169 1032 1169 b 1024 1139 1032 1157 1028 1147 b 913 911 992 1060 951 986 b 728 501 846 776 781 642 b 654 249 696 418 669 335 b 649 194 651 231 649 213 b 665 133 649 174 653 153 z m 776 107 b 932 228 833 143 883 185 b 1386 668 1089 368 1236 519 b 1717 1000 1496 779 1607 889 b 1838 1107 1756 1038 1796 1074 b 1854 1117 1843 1111 1847 1115 b 1847 1093 1854 1107 1850 1100 b 1718 794 1806 993 1763 894 b 1496 293 1644 628 1571 460 b 1454 194 1482 260 1468 228 b 1429 175 1449 182 1442 176 b 1311 164 1390 172 1351 168 b 1119 144 1247 157 1183 151 b 929 124 1056 138 993 131 b 788 108 882 119 835 114 b 776 107 785 108 781 107 z m 850 69 l 850 75 b 1424 140 1042 99 1233 119 b 1425 133 1425 138 1425 135 b 1422 121 1425 128 1424 125 b 1215 -337 1356 -33 1290 -187 b 1167 -421 1201 -367 1186 -394 b 1160 -429 1164 -424 1163 -426 b 1151 -415 1151 -426 1153 -419 b 1121 -278 1140 -369 1133 -322 b 965 -14 1090 -176 1042 -86 b 874 56 938 13 907 35 b 850 69 867 60 858 65 z m 90 25 b 350 83 175 57 263 71 b 521 96 407 90 464 96 b 615 90 551 96 583 94 b 90 25 440 68 267 38 z "},"Z":{"ha":1579,"x_min":0,"x_max":0,"o":"m 894 496 b 881 478 890 486 885 483 b 819 425 860 460 840 443 b 325 8 660 281 493 144 b 49 -219 233 -67 139 -140 b 15 -256 36 -231 25 -243 b 3 -287 7 -265 3 -276 b 10 -311 3 -294 6 -303 b 93 -374 28 -346 54 -368 b 182 -379 122 -378 153 -379 b 283 -376 217 -379 250 -378 b 563 -365 376 -372 469 -367 l 671 -365 b 836 -368 726 -365 781 -365 b 999 -372 890 -371 944 -371 b 1293 -387 1097 -376 1194 -381 b 1393 -399 1326 -390 1360 -394 b 1417 -401 1401 -400 1410 -401 l 1419 -401 b 1432 -387 1429 -401 1432 -396 b 1413 -360 1431 -375 1424 -365 b 1393 -354 1407 -357 1400 -356 b 1185 -328 1324 -340 1254 -335 b 1049 -318 1139 -324 1094 -321 b 871 -307 989 -314 931 -310 b 697 -299 814 -303 756 -300 b 399 -289 599 -294 499 -292 b 346 -287 382 -289 364 -287 b 129 -293 275 -287 201 -292 l 118 -293 b 106 -290 114 -293 110 -293 b 118 -274 107 -282 114 -279 b 207 -196 146 -246 176 -219 b 707 207 374 -61 542 72 b 1046 497 822 301 936 397 b 1088 514 1058 508 1071 513 b 1221 518 1132 515 1176 518 b 1328 519 1257 519 1292 519 b 1435 515 1364 519 1400 519 b 1478 511 1449 514 1464 514 l 1481 511 b 1499 528 1492 511 1499 517 b 1497 536 1499 531 1499 533 b 1468 554 1493 550 1481 553 b 1325 568 1421 561 1374 567 b 1192 574 1282 571 1236 574 b 1151 572 1179 574 1165 572 l 1147 572 b 1138 576 1143 572 1140 572 b 1151 593 1139 585 1146 589 b 1301 747 1203 643 1254 693 b 1413 894 1343 793 1382 840 b 1450 1019 1435 935 1450 975 b 1449 1039 1450 1025 1450 1032 b 1328 1207 1442 1119 1403 1176 b 1271 1225 1310 1215 1290 1219 b 1069 1244 1204 1239 1138 1242 l 1029 1244 b 732 1228 931 1244 831 1236 l 711 1224 b 692 1203 697 1219 692 1215 l 692 1194 b 703 1167 693 1185 697 1175 b 718 1154 707 1160 711 1154 b 726 1156 721 1154 724 1154 l 744 1156 b 865 1147 785 1149 825 1147 l 1001 1147 b 1138 1143 1046 1147 1092 1147 b 1276 1124 1183 1140 1231 1135 b 1371 1085 1310 1115 1343 1106 b 1388 1064 1382 1076 1388 1072 b 1382 1046 1388 1060 1385 1054 b 1322 942 1368 1008 1346 975 b 1167 757 1276 875 1222 815 b 988 579 1108 696 1050 636 b 964 568 981 572 974 568 l 956 568 b 906 565 939 568 922 565 b 657 551 822 564 740 558 b 556 526 622 549 588 543 b 526 486 536 517 526 503 b 533 460 526 478 529 469 b 561 439 540 444 547 439 b 571 440 564 439 567 440 b 628 456 590 443 608 451 b 831 492 694 474 763 485 b 881 497 847 493 863 497 b 894 496 885 497 890 496 z "},"[":{"ha":629,"x_min":0,"x_max":0,"o":"m 249 -114 l 257 -114 b 296 -110 269 -114 283 -112 b 310 -101 301 -110 308 -108 b 297 -89 310 -93 303 -90 b 289 -87 294 -87 292 -87 l 286 -87 b 263 -90 278 -89 269 -90 b 211 -86 244 -90 228 -87 b 86 -67 169 -83 128 -78 b 63 -43 69 -61 63 -56 b 64 -33 63 -40 64 -37 b 79 15 67 -15 74 0 b 151 168 101 68 128 118 b 385 631 228 324 306 478 l 481 814 b 554 868 496 844 518 865 b 585 875 565 868 575 872 b 604 885 592 878 599 881 b 613 897 610 889 613 893 b 607 910 613 901 611 906 b 576 925 600 919 589 924 b 503 932 551 928 528 931 l 497 932 b 432 904 472 932 450 924 b 388 844 414 886 400 865 b 256 586 336 763 293 675 b 118 265 208 479 164 372 b 15 22 83 185 47 104 b 3 -24 10 7 6 -8 l 3 -32 b 24 -71 3 -49 10 -61 b 72 -93 39 -82 54 -89 b 249 -114 129 -107 189 -111 z "},"\\":{"ha":1108,"x_min":0,"x_max":0,"o":"m 56 1076 b 1 1026 29 1075 3 1049 l 1 1022 b 10 1004 1 1015 6 1008 b 47 961 21 989 35 975 b 240 772 110 896 176 836 b 511 478 336 679 424 579 b 815 106 615 356 717 232 b 996 -136 878 26 938 -54 b 1042 -212 1013 -161 1028 -186 b 1061 -231 1049 -225 1054 -231 b 1072 -226 1064 -231 1068 -229 b 1090 -204 1085 -221 1090 -214 b 1088 -190 1090 -200 1090 -196 b 1044 -111 1075 -162 1060 -136 b 836 189 981 -7 908 90 b 422 715 703 368 561 542 b 263 908 369 781 318 847 b 110 1050 215 960 167 1010 b 71 1072 97 1060 85 1067 b 56 1076 65 1074 58 1075 z "},"]":{"ha":628,"x_min":0,"x_max":0,"o":"m 367 932 l 357 932 b 318 928 344 932 332 931 b 306 919 313 928 306 926 l 306 918 b 318 907 306 911 313 908 b 326 906 321 906 324 906 l 329 906 b 353 908 338 907 346 908 b 403 904 369 908 386 906 b 529 885 446 901 488 896 b 551 864 546 879 551 875 b 550 851 551 860 551 856 b 535 803 549 833 542 818 b 463 650 514 750 488 700 b 229 188 388 494 310 340 b 135 4 199 126 167 65 b 60 -50 118 -26 96 -47 b 31 -57 50 -50 40 -54 b 11 -67 24 -60 17 -62 b 3 -81 6 -71 3 -75 b 7 -92 3 -83 4 -87 b 38 -107 15 -101 26 -106 b 113 -114 63 -110 88 -114 l 122 -114 b 183 -86 146 -114 167 -104 b 228 -26 200 -68 214 -47 b 360 232 279 56 321 143 l 497 553 b 600 796 531 633 568 714 b 611 842 606 811 610 826 l 611 850 b 590 889 611 867 604 879 b 543 911 576 900 560 907 b 367 932 485 925 426 929 z "},"^":{"ha":356,"x_min":0,"x_max":0,"o":"m 144 1017 b 101 997 128 1017 114 1007 b 15 906 69 969 40 939 b 6 882 8 897 6 889 b 25 856 6 872 13 864 b 49 847 33 850 42 847 b 75 861 57 847 65 851 b 85 871 79 864 82 868 b 150 936 104 894 126 917 b 175 951 163 946 169 951 b 201 935 182 951 189 946 b 296 864 232 910 263 885 b 328 850 306 857 317 851 b 339 860 335 850 339 854 b 338 865 339 861 339 863 b 319 883 333 874 326 879 b 233 963 288 906 261 933 l 206 990 b 144 1017 189 1006 168 1015 z "},"_":{"ha":535,"x_min":0,"x_max":0,"o":"m 503 -31 b 519 -18 513 -31 519 -26 b 518 -12 519 -17 518 -15 b 490 15 514 1 504 11 b 399 26 460 22 429 26 b 319 28 372 28 346 28 b 65 18 235 28 150 24 b 17 8 49 17 32 15 b 1 -11 8 4 1 -1 l 1 -14 b 65 -71 6 -43 36 -71 l 69 -71 b 104 -65 82 -71 93 -68 b 365 -29 190 -44 278 -35 b 429 -26 386 -28 408 -26 b 503 -31 454 -26 478 -28 z "},"`":{"ha":286,"x_min":0,"x_max":0,"o":"m 196 864 b 265 906 225 869 249 882 b 269 917 268 910 269 914 b 258 928 269 921 265 925 l 250 932 b 57 1024 183 957 118 988 b 43 1028 53 1026 47 1028 b 3 1001 25 1028 7 1014 b 1 996 1 1000 1 997 b 7 983 1 992 4 988 b 35 960 15 975 25 967 b 169 872 78 928 125 900 b 196 864 178 867 186 864 z "},"a":{"ha":442,"x_min":0,"x_max":0,"o":"m 175 408 b 167 388 172 400 169 394 b 131 283 151 354 138 319 b 125 250 128 272 125 261 b 126 236 125 246 125 240 b 168 199 128 215 147 199 b 193 206 176 199 185 200 b 243 243 210 218 228 231 b 456 404 311 300 379 357 b 461 408 457 406 458 407 b 463 413 463 410 463 411 l 463 415 b 456 419 461 418 458 419 b 435 413 447 419 442 415 b 340 351 401 394 372 372 b 201 249 293 319 249 282 b 171 229 193 242 183 233 l 171 235 b 178 269 171 247 174 258 b 239 389 194 311 217 350 b 285 474 256 417 272 443 b 289 492 288 481 289 486 b 272 521 289 504 283 514 b 258 526 267 525 263 526 b 244 518 254 526 250 524 b 208 479 232 506 221 492 b 199 471 204 474 201 471 b 189 479 196 471 194 474 b 115 517 167 504 142 517 b 47 486 93 517 69 507 b -25 339 6 446 -18 396 b -26 324 -25 333 -26 329 b -21 293 -26 314 -25 303 b 14 268 -12 276 0 268 b 42 279 24 268 33 272 b 76 314 54 290 65 303 l 160 397 b 175 408 164 401 167 407 z m 36 310 b 172 450 68 369 107 422 b 143 413 168 432 153 424 b 108 375 132 399 119 388 b 75 340 97 364 86 351 b 36 310 63 329 53 317 z "},"b":{"ha":501,"x_min":0,"x_max":0,"o":"m 68 371 l 47 350 b 44 354 46 351 46 353 b 51 374 47 360 49 367 b 168 628 86 460 128 543 b 397 1036 236 768 314 903 b 457 1135 417 1068 436 1101 b 464 1157 461 1143 464 1150 b 451 1185 464 1167 458 1175 b 414 1207 442 1197 429 1203 b 407 1208 411 1208 410 1208 b 392 1201 401 1208 397 1206 b 378 1188 388 1197 382 1193 b 235 969 322 1121 275 1047 b 89 656 181 868 133 763 b -15 361 49 558 13 461 b -25 310 -19 344 -24 328 l -25 306 b -10 278 -25 294 -19 285 b 13 269 -1 272 6 269 b 38 282 21 269 29 274 b 101 346 60 303 81 324 b 207 435 133 378 168 408 b 263 464 224 447 242 458 b 274 465 267 465 271 465 b 283 456 281 465 283 463 b 282 446 283 453 282 450 b 264 383 279 425 271 404 b 208 325 249 343 247 343 b 19 190 136 293 72 250 b -26 104 -3 165 -19 139 b -28 93 -28 100 -28 97 b -14 58 -28 81 -22 69 b 38 31 0 43 17 33 l 49 31 b 114 49 72 31 93 38 b 181 94 138 61 160 76 b 331 328 250 160 303 236 b 353 351 335 340 340 347 b 522 401 408 369 463 394 b 531 407 525 403 529 403 l 531 410 b 524 418 531 414 528 415 b 510 421 519 421 514 421 b 494 419 504 421 500 421 b 365 385 450 413 408 397 b 349 381 357 382 351 381 b 344 392 344 381 344 383 l 344 407 b 322 475 344 432 339 456 b 265 504 308 494 288 504 b 236 499 256 504 246 503 b 199 479 222 494 211 488 b 68 371 150 449 107 411 z m 215 290 b 68 92 178 214 133 144 b 32 71 57 83 46 75 b 24 69 29 69 26 69 b 17 81 19 69 18 72 b 15 90 17 83 15 88 b 25 125 15 103 19 114 b 82 201 38 156 58 181 b 207 288 119 236 163 264 b 215 290 210 289 213 289 z "},"c":{"ha":322,"x_min":0,"x_max":0,"o":"m 71 281 b 69 285 69 282 69 283 l 69 286 b 124 410 81 329 101 369 b 129 415 125 413 126 415 b 136 413 132 415 133 415 b 147 408 140 410 144 408 b 165 417 154 408 160 413 b 204 469 182 432 194 449 b 207 485 207 475 207 481 b 200 507 207 493 206 500 b 146 538 186 525 168 535 b 135 539 142 538 139 539 b 67 508 108 539 86 525 b -11 392 29 476 6 436 b -24 329 -18 371 -24 350 b -22 315 -24 325 -22 319 b 53 236 -19 278 15 240 l 60 236 b 90 243 69 236 81 239 b 132 272 106 251 118 261 b 256 356 171 303 213 331 b 338 401 283 371 310 388 b 346 410 342 403 346 404 l 346 413 b 338 418 344 417 340 418 b 332 417 336 418 333 417 b 322 413 328 415 325 414 b 282 394 308 407 294 401 b 97 292 219 364 157 331 b 71 281 89 288 82 281 z "},"d":{"ha":447,"x_min":0,"x_max":0,"o":"m 422 707 b 426 704 424 706 425 706 b 418 685 424 699 421 692 b 257 317 364 563 310 439 b 140 22 215 219 174 122 b 126 -24 135 7 131 -8 b 125 -32 125 -26 125 -29 b 131 -44 125 -36 126 -40 b 146 -51 136 -49 142 -51 b 164 -36 154 -51 161 -46 b 196 49 175 -7 185 21 b 481 669 285 258 382 464 b 675 1032 540 793 610 911 b 768 1211 708 1090 742 1149 b 772 1229 771 1218 772 1224 b 751 1265 772 1244 765 1257 b 736 1269 746 1268 740 1269 b 719 1261 731 1269 725 1267 b 685 1215 707 1247 696 1231 b 524 924 622 1122 571 1025 b 422 740 494 860 465 796 b 397 706 413 729 406 717 b 218 469 340 625 281 546 b 204 457 211 461 208 457 b 190 467 200 457 197 461 b 118 492 172 482 146 492 b 63 475 100 492 81 488 b 40 458 56 469 47 464 b -43 339 3 425 -25 385 b -58 272 -51 317 -57 294 l -58 265 b -39 224 -58 249 -54 235 b 0 210 -28 215 -15 210 b 38 225 11 210 24 214 b 142 338 76 258 110 297 b 374 639 224 435 299 536 b 422 707 389 661 406 683 z m 172 419 b 31 276 131 367 85 318 b 172 419 65 336 110 388 z "},"e":{"ha":322,"x_min":0,"x_max":0,"o":"m -12 365 b 10 285 -11 333 -6 308 b 67 250 24 263 43 250 b 100 258 76 250 89 253 b 135 281 113 264 124 272 b 278 375 181 315 228 347 b 332 406 296 386 314 394 b 339 411 335 407 339 408 b 338 414 339 413 338 413 b 332 418 336 417 335 418 b 326 417 331 418 328 417 b 276 394 310 411 293 403 b 111 296 219 364 164 333 b 74 276 100 288 88 281 b 65 275 71 275 68 275 b 54 289 58 275 56 279 l 54 303 b 68 353 57 319 61 336 b 93 379 72 365 79 379 b 101 378 96 379 99 379 b 110 381 104 378 107 379 b 213 465 154 396 189 425 b 219 488 217 472 219 481 b 207 518 219 499 215 508 b 135 553 190 540 163 553 b 82 536 117 553 99 547 b -12 365 25 493 -7 436 z m 100 406 b 157 475 115 432 133 454 b 100 406 153 450 129 421 z "},"f":{"ha":375,"x_min":0,"x_max":0,"o":"m 8 243 b 10 250 8 246 10 249 b 169 543 60 350 111 449 b 190 563 175 551 182 558 b 253 614 214 576 233 594 b 303 681 274 633 290 654 b 308 704 307 689 308 697 b 292 738 308 717 303 726 b 260 751 281 747 271 751 b 233 743 251 751 243 749 b 186 704 215 732 200 719 b 86 571 147 664 115 618 b -87 247 21 467 -35 358 b -265 -187 -154 106 -215 -39 b -324 -408 -290 -260 -312 -332 b -326 -443 -325 -419 -326 -431 b -324 -471 -326 -451 -325 -461 b -279 -511 -318 -496 -300 -511 b -257 -506 -272 -511 -264 -508 b -215 -479 -242 -500 -228 -490 b -153 -417 -193 -461 -172 -439 b -39 -239 -106 -362 -68 -304 b -21 -161 -26 -212 -21 -186 b -54 -65 -21 -128 -32 -96 b -67 -47 -58 -58 -62 -53 b -93 -4 -75 -32 -85 -18 b -100 18 -97 3 -100 10 b -94 38 -100 24 -97 31 b -47 135 -78 69 -62 103 b -26 165 -42 146 -35 156 b 100 260 11 203 54 232 b 396 400 194 314 293 363 b 408 410 401 401 408 403 l 408 411 b 396 419 407 418 401 419 l 390 419 b 358 411 379 417 368 415 b 8 243 238 365 119 313 z m -112 -12 b -50 -112 -90 -46 -64 -75 b -43 -150 -46 -125 -43 -137 b -47 -182 -43 -161 -44 -171 b -72 -251 -51 -207 -61 -229 b -236 -457 -114 -331 -169 -399 b -271 -482 -247 -467 -258 -475 b -278 -485 -274 -483 -276 -485 b -285 -475 -282 -485 -283 -482 l -285 -467 b -278 -412 -285 -449 -282 -431 b -229 -271 -265 -364 -247 -317 b -126 -33 -199 -190 -162 -111 b -112 -12 -124 -26 -122 -18 z "},"g":{"ha":375,"x_min":0,"x_max":0,"o":"m 172 388 b 154 350 167 375 161 363 b -22 -31 92 225 33 97 b -67 -61 -32 -53 -44 -60 b -189 -74 -108 -62 -149 -67 l -196 -74 b -232 -57 -211 -74 -221 -69 b -407 31 -278 -3 -337 25 b -449 32 -421 32 -435 32 b -726 -68 -551 32 -643 -4 b -765 -110 -742 -81 -756 -93 b -774 -133 -771 -118 -774 -126 b -760 -161 -774 -143 -769 -151 b -706 -182 -744 -176 -726 -181 b -681 -183 -697 -182 -689 -183 b -569 -172 -643 -183 -607 -178 b -247 -122 -462 -156 -354 -139 b -233 -121 -242 -121 -236 -121 b -214 -142 -222 -121 -219 -126 b -199 -244 -203 -175 -199 -210 b -203 -310 -199 -267 -200 -287 b -217 -392 -206 -337 -212 -365 b -218 -404 -218 -397 -218 -401 b -197 -433 -218 -419 -211 -426 b -183 -436 -192 -436 -187 -436 b -156 -418 -174 -436 -167 -431 b -135 -386 -149 -408 -142 -397 b 17 -110 -81 -297 -32 -203 b 47 -86 24 -96 32 -87 b 153 -76 83 -83 118 -79 b 271 -67 192 -74 232 -69 b 394 -56 313 -62 354 -58 b 549 -44 446 -51 497 -49 b 617 -42 571 -43 593 -42 b 629 -35 621 -42 628 -42 l 629 -32 b 621 -21 629 -26 625 -24 b 600 -17 614 -17 607 -17 l 578 -17 b 429 -24 528 -17 479 -19 b 363 -26 407 -24 385 -25 l 213 -39 b 65 -49 163 -42 114 -46 b 57 -50 63 -49 60 -50 b 50 -47 54 -50 53 -50 b 60 -25 50 -39 56 -32 b 172 207 97 51 136 129 b 257 403 203 272 232 336 b 275 460 265 421 271 440 b 276 469 275 464 276 467 b 260 504 276 483 271 496 b 244 511 254 508 249 511 b 229 501 239 511 235 508 b 196 461 218 489 207 474 b 185 453 190 456 188 453 b 176 460 183 453 181 456 b 150 479 168 468 160 475 b 103 493 135 489 118 493 b 49 469 83 493 65 485 b -37 308 1 426 -28 372 l -37 299 b -19 254 -37 282 -32 267 b 6 242 -10 246 -3 242 b 26 249 13 242 18 244 b 60 278 39 257 49 267 b 172 388 97 314 133 351 z m -249 -78 b -290 -86 -262 -85 -276 -83 b -547 -129 -375 -101 -461 -114 b -704 -149 -600 -137 -651 -143 l -712 -149 b -729 -143 -718 -147 -725 -150 b -731 -139 -729 -142 -731 -140 b -725 -128 -731 -135 -728 -131 b -694 -96 -717 -115 -707 -104 b -426 -1 -614 -35 -525 -1 b -389 -3 -414 -1 -401 -1 b -261 -60 -340 -7 -296 -24 b -251 -71 -257 -64 -254 -67 b -249 -78 -250 -74 -250 -75 z m -162 -318 l -162 -258 b -185 -135 -162 -215 -169 -175 b -187 -122 -186 -129 -187 -125 b -174 -112 -187 -115 -183 -114 l -65 -100 l -64 -100 b -57 -103 -62 -100 -60 -101 b -162 -318 -87 -176 -124 -247 z m 13 275 b 160 419 38 340 117 417 b 117 367 147 399 132 383 b 67 318 100 350 83 333 b 13 275 51 303 36 286 z "},"h":{"ha":432,"x_min":0,"x_max":0,"o":"m 39 376 b 47 399 39 388 43 393 l 106 507 b 254 779 154 599 204 689 l 421 1075 b 468 1175 439 1107 456 1140 b 471 1196 471 1182 471 1189 b 447 1240 471 1213 464 1228 b 419 1253 436 1249 428 1253 b 390 1231 410 1253 400 1246 b 385 1222 389 1228 388 1225 b 236 947 328 1135 282 1042 b 72 590 178 831 125 710 b -17 390 42 524 10 458 b -35 336 -24 372 -31 354 b -36 326 -36 333 -36 329 b -24 306 -36 318 -33 311 b -1 297 -17 301 -10 297 b 13 303 3 297 8 299 b 32 318 19 307 25 313 b 108 393 57 343 82 368 b 218 490 143 428 179 460 b 238 500 224 494 228 500 l 240 500 b 228 475 236 490 232 482 b 203 414 218 456 208 435 b 200 393 201 407 200 400 b 213 358 200 381 204 369 b 256 336 225 344 240 336 b 274 339 263 336 268 338 b 456 399 335 358 396 376 b 474 407 461 401 468 404 b 482 418 478 410 482 413 l 482 421 b 468 429 479 426 474 429 b 456 426 464 429 458 428 b 271 376 394 404 333 390 b 261 374 268 375 265 374 b 256 376 260 374 258 375 b 253 382 254 378 253 381 b 257 393 253 386 256 389 b 267 415 260 400 264 407 b 307 493 281 440 293 467 b 321 531 313 506 317 518 b 322 539 322 533 322 536 b 301 571 322 551 314 563 b 281 579 294 576 288 579 b 261 572 274 579 268 576 l 240 556 b 67 404 179 508 121 458 b 39 376 58 396 49 388 z "},"i":{"ha":228,"x_min":0,"x_max":0,"o":"m 36 278 b 56 331 40 297 47 314 b 119 440 74 368 97 404 b 129 467 126 451 129 460 b 113 497 129 476 124 486 b 97 510 107 503 103 507 b 65 521 85 517 75 521 b 29 493 51 521 40 511 b -18 368 7 454 -8 411 b -26 311 -22 350 -26 331 b -22 278 -26 300 -25 289 b 25 232 -15 249 3 232 b 63 249 36 232 50 238 l 175 344 b 239 396 196 363 218 379 b 247 407 243 399 247 403 b 244 413 247 408 246 411 b 235 418 242 417 239 418 b 226 415 232 418 229 417 b 211 404 221 413 215 408 b 61 293 160 369 110 331 b 36 278 54 288 47 281 z m 117 615 b 90 601 106 615 96 611 b 83 567 86 590 83 578 l 83 558 b 128 518 85 543 110 522 l 132 518 b 169 544 146 518 161 528 b 175 564 174 551 175 557 b 168 586 175 571 172 579 b 117 615 156 604 138 613 z "},"j":{"ha":235,"x_min":0,"x_max":0,"o":"m -106 -43 l -106 -39 b -101 -25 -106 -32 -103 -29 b 64 303 -44 83 13 192 b 119 440 85 347 107 393 b 122 460 121 447 122 454 b 78 519 122 488 106 510 b 60 524 71 522 65 524 b 40 504 51 524 47 518 b -6 414 25 475 10 444 b -194 -15 -76 274 -137 131 b -225 -51 -207 -49 -206 -51 l -258 -51 b -281 -26 -272 -51 -274 -47 b -329 63 -289 7 -306 38 b -521 142 -383 119 -449 142 b -557 140 -532 142 -544 142 b -768 58 -635 132 -704 101 b -817 14 -787 47 -804 33 b -829 -18 -825 3 -829 -8 b -815 -51 -829 -29 -825 -40 b -747 -93 -797 -74 -774 -86 b -647 -107 -714 -101 -681 -107 l -519 -107 b -322 -99 -454 -107 -387 -101 l -310 -99 b -293 -128 -293 -99 -293 -103 b -335 -344 -294 -201 -311 -274 b -353 -400 -340 -362 -347 -382 b -354 -410 -354 -403 -354 -407 b -339 -426 -354 -418 -349 -424 b -332 -428 -336 -428 -335 -428 b -317 -419 -325 -428 -321 -425 b -294 -387 -307 -410 -300 -399 b -143 -107 -240 -296 -192 -201 b -100 -81 -133 -87 -121 -81 b 31 -71 -57 -79 -12 -74 b 182 -60 81 -67 132 -62 b 339 -49 235 -56 286 -53 b 574 -36 418 -43 496 -37 l 588 -36 b 597 -29 592 -36 596 -35 b 590 -18 597 -24 594 -21 b 569 -12 585 -14 578 -12 b 531 -11 557 -12 543 -11 b 365 -18 475 -11 421 -15 b 168 -29 300 -21 235 -26 b 57 -36 131 -32 94 -32 b -49 -42 22 -39 -14 -37 b -82 -44 -60 -43 -71 -44 b -106 -43 -89 -44 -97 -43 z m -544 -65 l -610 -65 b -740 -57 -656 -65 -697 -64 b -758 -51 -746 -56 -753 -54 b -775 -37 -769 -49 -775 -44 b -771 -25 -775 -33 -774 -29 b -740 13 -764 -10 -753 3 b -543 100 -682 58 -617 88 b -490 104 -525 103 -508 104 b -407 89 -462 104 -435 100 b -303 -40 -349 67 -317 19 b -301 -46 -303 -43 -301 -44 b -317 -56 -301 -53 -307 -56 b -392 -60 -342 -57 -367 -60 b -544 -65 -444 -61 -496 -65 z m -282 -229 b -274 -178 -279 -212 -276 -196 b -269 -121 -271 -160 -269 -140 l -269 -108 b -261 -94 -269 -103 -268 -96 b -244 -93 -256 -94 -250 -93 b -231 -97 -239 -93 -235 -94 b -229 -100 -229 -99 -229 -99 b -232 -111 -229 -104 -231 -107 b -268 -204 -244 -142 -257 -174 b -279 -231 -272 -214 -275 -222 b -282 -229 -279 -231 -281 -231 z m 126 563 b 142 567 131 564 136 564 b 199 619 165 578 185 596 b 204 642 201 626 204 635 l 204 647 b 164 693 199 669 183 683 b 142 697 157 696 149 697 b 108 683 131 697 119 693 b 75 622 89 668 78 649 b 74 611 75 618 74 615 b 86 582 74 600 78 592 b 126 563 96 571 108 564 z "},"k":{"ha":417,"x_min":0,"x_max":0,"o":"m 71 443 l 71 447 b 72 453 71 450 71 451 b 200 701 115 536 157 619 b 375 1013 256 807 319 907 b 446 1167 401 1063 428 1113 b 454 1214 450 1182 454 1197 b 426 1260 454 1235 444 1250 b 410 1265 419 1264 414 1265 b 386 1251 401 1265 394 1261 b 376 1236 383 1246 381 1242 b 203 897 308 1129 251 1014 b -51 331 122 706 35 518 b -139 133 -82 265 -111 200 b -142 121 -140 129 -142 125 b -124 103 -142 113 -136 107 b -114 100 -119 101 -117 100 b -96 118 -107 100 -101 106 b -24 264 -71 167 -47 215 b 3 317 -14 281 -6 299 b 14 329 7 326 10 329 b 26 325 17 329 21 328 b 49 321 33 322 40 321 l 54 321 b 128 329 79 324 103 326 b 260 340 171 335 215 340 l 336 340 b 432 331 368 340 400 339 b 440 333 435 331 438 331 b 442 338 440 335 442 336 b 439 343 442 339 440 342 b 414 360 433 353 424 357 b 332 372 388 368 360 371 b 153 378 272 378 213 378 l 143 378 b 129 381 139 378 135 378 b 147 393 136 386 142 390 b 276 469 190 419 233 444 b 299 483 283 474 292 479 b 310 503 307 489 310 496 b 307 517 310 507 308 511 b 249 556 296 542 274 556 b 215 546 238 556 226 551 b 181 522 204 538 192 531 b 90 457 150 500 121 478 b 71 443 83 451 78 447 z "},"l":{"ha":181,"x_min":0,"x_max":0,"o":"m 433 1171 b 413 1225 433 1189 426 1208 b 376 1249 400 1240 389 1249 b 344 1232 367 1249 357 1243 b 208 1063 290 1182 243 1128 b 190 1011 200 1046 194 1029 b 188 988 189 1003 188 996 b 208 935 188 968 193 950 b 217 918 214 929 217 924 b 213 901 217 914 215 908 b 129 713 185 839 157 776 b -86 196 54 542 -19 371 b -135 50 -104 149 -122 100 b -142 11 -139 38 -142 25 b -119 -18 -140 -4 -133 -14 b -112 -19 -117 -18 -115 -19 b -100 -6 -106 -19 -103 -15 b -68 99 -96 31 -82 65 b 42 356 -35 185 4 271 b 324 914 126 546 219 733 b 418 1106 358 976 390 1039 b 433 1171 425 1125 432 1144 z m 300 1082 l 246 974 b 300 1082 254 1015 274 1050 z "},"m":{"ha":557,"x_min":0,"x_max":0,"o":"m 296 413 l 293 415 l 293 426 b 263 476 293 449 281 464 b 242 485 254 482 249 485 b 221 472 235 485 229 481 b 124 368 190 436 156 403 b 71 317 107 350 92 331 b 129 425 90 353 111 388 b 138 456 135 436 138 446 b 107 501 138 474 128 489 b 74 515 93 510 83 515 b 38 488 61 515 50 506 b -18 350 11 446 -8 400 b -26 285 -22 328 -26 307 l -26 276 b 1 231 -25 257 -17 240 b 15 226 6 228 11 226 b 33 235 22 226 28 229 b 61 263 43 243 51 253 b 188 385 103 304 143 347 b 201 393 193 389 196 393 l 204 393 b 207 385 207 390 207 388 l 207 361 b 238 321 210 342 221 328 b 246 319 240 319 243 319 b 271 336 257 319 264 329 b 349 400 296 360 322 381 b 364 410 354 404 358 407 b 369 413 367 411 368 413 b 376 406 372 413 375 410 b 379 393 378 401 378 397 b 431 354 389 368 407 354 b 449 357 436 354 443 356 b 557 385 485 365 521 375 b 582 393 565 386 574 390 b 593 404 586 396 593 397 l 593 408 b 575 418 590 415 583 418 b 564 415 571 417 568 415 b 439 392 524 406 481 399 l 432 392 b 422 401 425 392 422 393 l 422 407 b 424 421 424 413 424 417 b 396 465 424 442 413 454 b 381 469 390 468 385 469 b 351 457 369 469 361 464 b 315 426 340 447 328 436 b 296 413 308 421 304 414 z "},"n":{"ha":451,"x_min":0,"x_max":0,"o":"m 226 443 b 222 414 224 429 224 422 l 222 408 b 286 339 222 368 250 339 b 304 342 292 339 299 340 b 322 347 311 343 317 344 b 418 378 353 360 386 368 b 482 394 439 383 460 389 b 494 404 488 396 494 397 b 482 418 494 413 489 415 b 472 419 479 419 476 419 b 460 418 468 419 464 419 b 385 404 435 414 410 408 b 303 389 357 399 331 393 l 296 389 b 288 394 289 389 288 390 b 289 406 288 397 288 401 l 297 435 b 300 450 299 440 300 446 b 293 475 300 458 297 467 b 254 506 283 494 269 506 b 222 492 244 506 233 501 b 122 404 188 464 154 435 b 96 383 114 396 107 389 b 104 401 96 392 101 397 b 125 438 111 414 118 426 b 131 456 129 444 131 450 b 121 481 131 464 128 472 b 61 518 107 501 86 513 b 54 519 58 519 57 519 b 38 510 47 519 42 517 b 29 496 33 506 31 501 b -26 326 1 442 -19 386 l -26 317 b -22 289 -26 307 -25 299 b 10 263 -15 271 -4 263 b 40 278 19 263 31 267 b 186 415 85 328 133 375 b 226 443 199 425 210 432 z "},"o":{"ha":346,"x_min":0,"x_max":0,"o":"m -18 331 b 22 244 -18 296 -7 267 b 61 232 35 236 47 232 b 86 236 69 232 78 233 b 128 264 101 243 115 253 b 207 393 165 300 192 344 b 222 408 211 406 213 408 l 229 408 b 318 401 258 406 289 404 l 329 401 b 360 404 339 401 350 403 b 367 411 364 404 367 407 b 360 418 367 415 364 417 l 342 418 b 240 428 307 418 274 424 b 210 453 224 429 214 435 b 160 501 204 478 186 496 b 126 518 146 504 136 510 b 90 538 113 531 101 538 b 51 510 76 538 65 528 b -8 389 25 474 4 433 b -18 331 -14 369 -17 350 z m 47 279 b 56 318 49 292 51 306 b 115 424 72 356 90 390 b 126 433 121 431 124 433 b 139 429 129 433 133 432 b 163 419 147 426 154 422 b 176 410 174 415 176 415 b 174 396 176 407 175 403 b 117 308 161 363 142 333 b 63 269 100 293 83 279 b 53 267 58 268 56 267 b 47 279 49 267 47 271 z m 183 451 b 178 439 183 444 182 439 b 174 440 176 439 175 440 b 158 443 168 440 164 442 b 142 456 153 446 142 444 l 142 457 b 158 476 142 464 154 476 b 181 463 168 476 176 472 b 183 451 182 458 183 454 z "},"p":{"ha":508,"x_min":0,"x_max":0,"o":"m -224 -336 b -228 -335 -225 -336 -226 -335 b -221 -312 -226 -328 -224 -319 b -168 -185 -203 -269 -186 -226 b 53 285 -101 -25 -28 132 b 136 456 82 340 111 397 b 143 482 140 465 143 474 b 117 519 143 497 135 508 b 86 532 104 528 94 532 b 53 507 75 532 65 524 b -36 353 19 457 -8 406 b -206 -57 -104 221 -158 83 b -290 -351 -237 -154 -268 -251 b -297 -403 -294 -368 -297 -385 l -297 -411 b -267 -440 -296 -428 -283 -440 l -264 -440 b -239 -424 -251 -440 -246 -433 b -197 -347 -224 -400 -210 -374 b -26 -6 -142 -233 -86 -118 b 110 218 15 71 60 146 b 139 242 117 229 126 238 b 246 285 175 256 210 269 b 314 315 268 294 292 303 b 407 407 354 336 388 365 b 413 433 411 415 413 425 b 363 485 413 460 393 481 b 350 486 358 486 354 486 b 315 478 339 486 326 483 b 256 435 293 467 274 453 b 135 296 210 393 171 346 b 103 269 125 285 115 276 b 42 240 82 260 61 250 b 32 228 35 236 32 232 b 42 214 32 222 35 218 b 51 211 44 211 49 211 b 71 213 57 211 64 213 l 75 213 b -224 -336 -39 35 -131 -150 z m 186 314 b 354 447 217 368 311 443 b 356 443 354 446 356 444 b 350 435 356 440 353 438 b 329 408 343 425 336 417 b 186 314 300 378 231 332 z "},"q":{"ha":378,"x_min":0,"x_max":0,"o":"m -31 -89 b -33 -100 -32 -94 -32 -97 b -75 -312 -53 -169 -68 -240 b -78 -347 -76 -324 -78 -336 b -72 -387 -78 -361 -76 -374 b -37 -419 -67 -408 -53 -419 b -11 -410 -29 -419 -19 -415 b 15 -385 -1 -403 7 -394 b 108 -200 61 -331 90 -268 b 117 -137 114 -179 117 -158 b 111 -93 117 -122 115 -108 b 107 -75 108 -85 107 -79 b 132 -64 107 -68 114 -67 b 140 -62 135 -64 138 -64 b 299 -43 193 -57 246 -49 b 431 -29 343 -37 386 -32 b 561 -18 474 -25 517 -21 b 636 -15 586 -17 611 -15 b 690 -18 654 -15 672 -15 b 699 -19 693 -19 696 -19 b 711 -8 707 -18 711 -14 b 708 0 711 -6 710 -3 b 688 11 703 7 696 10 b 611 18 663 15 636 18 b 399 6 540 18 469 11 b 139 -21 311 -1 225 -10 l 93 -25 l 86 -25 b 76 -19 81 -25 76 -24 b 81 -8 76 -17 78 -14 b 99 31 86 4 92 18 b 238 311 144 124 192 217 b 300 451 261 357 282 403 b 308 494 304 465 308 479 b 297 525 308 506 306 517 b 271 540 288 535 279 540 b 250 526 264 540 257 536 b 240 514 246 522 243 518 b 189 456 222 494 207 475 b 179 449 185 451 182 449 b 169 456 176 449 175 451 b 163 461 167 457 165 460 b 97 489 140 479 118 489 b 39 464 78 489 58 481 b 18 443 32 457 24 450 b -40 322 -14 408 -35 369 b -42 307 -42 317 -42 311 b -18 254 -42 286 -35 268 b 6 243 -10 247 -3 243 b 28 251 13 243 19 246 b 60 278 39 258 50 268 b 142 367 86 307 114 338 b 161 383 147 372 151 381 b 164 376 163 381 164 378 b 158 364 164 372 160 368 l 129 310 b 14 46 85 225 47 136 b 3 29 10 33 8 29 b -10 33 0 29 -4 31 b -178 67 -65 57 -121 67 b -257 61 -204 67 -231 65 b -618 -60 -385 42 -504 -1 b -701 -117 -649 -76 -678 -92 b -714 -142 -710 -125 -714 -133 b -697 -168 -714 -151 -708 -160 b -675 -178 -690 -172 -683 -176 b -642 -182 -664 -181 -653 -182 b -622 -181 -635 -182 -629 -181 b -515 -168 -586 -176 -551 -174 b -119 -100 -383 -146 -251 -122 b -31 -89 -92 -96 -62 -90 z m -669 -136 b -644 -114 -664 -126 -653 -119 b -506 -42 -601 -83 -554 -61 b -260 31 -426 -8 -346 18 b -165 39 -228 35 -196 39 b -43 21 -124 39 -83 33 b -28 17 -37 19 -33 18 b -4 3 -19 13 -7 13 l -4 -3 b -14 -32 -4 -12 -10 -22 b -31 -39 -18 -39 -24 -39 b -121 -51 -60 -43 -90 -49 b -531 -115 -258 -68 -396 -87 b -649 -139 -571 -124 -610 -131 b -658 -140 -651 -139 -654 -140 b -669 -136 -661 -140 -665 -139 z m 90 -118 l 90 -135 b 35 -311 89 -196 67 -256 b -18 -381 21 -337 3 -360 b -31 -390 -22 -383 -26 -387 b -37 -393 -33 -392 -35 -393 b -43 -383 -40 -393 -43 -390 b -37 -336 -43 -367 -40 -351 b 28 -126 -24 -264 1 -194 l 44 -89 b 64 -72 49 -79 54 -75 l 69 -72 b 86 -87 79 -72 82 -75 b 90 -118 90 -97 90 -107 z m 15 282 l 15 285 b 19 299 15 290 18 294 b 117 408 43 343 75 379 b 139 419 124 413 133 419 b 146 417 142 419 144 419 b 149 411 147 415 149 413 b 132 392 149 404 138 397 b 44 303 104 361 75 331 b 15 282 36 294 26 288 z "},"r":{"ha":339,"x_min":0,"x_max":0,"o":"m 139 467 b 72 529 131 503 106 525 l 68 529 b 46 518 58 529 51 525 b 36 503 43 513 40 508 b -24 338 8 451 -10 396 b -35 247 -29 308 -33 278 b -12 215 -35 229 -28 221 b -1 214 -8 214 -4 214 b 21 229 7 214 14 218 b 31 244 24 233 26 239 b 158 435 68 311 110 375 b 185 461 167 444 174 454 b 197 440 190 454 193 447 b 254 400 211 419 229 404 b 301 396 269 397 286 396 b 353 403 318 396 335 397 b 371 410 358 404 365 407 b 378 419 375 413 378 415 b 368 431 378 424 374 428 b 361 432 365 432 364 432 b 344 429 356 432 350 431 b 306 425 332 426 318 425 b 263 429 292 425 276 426 b 233 456 246 431 236 439 b 228 476 232 463 229 469 b 217 497 225 483 222 492 b 189 514 208 508 199 514 b 163 497 181 514 171 508 b 139 467 154 488 147 478 z "},"s":{"ha":306,"x_min":0,"x_max":0,"o":"m -6 389 b -4 329 -6 369 -6 350 b -21 303 -4 317 -8 308 b -146 232 -65 282 -106 258 b -317 67 -212 188 -272 135 b -360 -40 -337 33 -353 -1 b -361 -61 -361 -47 -361 -54 b -275 -168 -361 -114 -329 -154 b -236 -172 -261 -171 -249 -172 b -156 -156 -208 -172 -181 -167 b 67 97 -39 -108 33 -24 b 81 222 78 139 81 181 b 79 296 81 247 81 271 l 79 306 b 94 322 79 315 82 317 b 168 351 118 332 143 343 b 335 404 222 371 278 392 b 344 413 339 406 344 407 b 335 419 343 417 339 419 b 317 418 328 419 322 418 b 111 356 246 403 179 379 b 85 349 99 351 90 349 b 71 381 75 349 75 357 b 69 390 69 385 69 388 b 89 417 69 403 76 410 b 161 489 119 433 144 457 b 168 515 165 499 168 507 b 136 563 168 535 157 551 b 107 569 126 567 117 569 l 101 569 b -1 481 49 569 8 535 b -6 389 -6 450 -4 419 z m -6 261 l -6 239 b -40 46 -10 175 -14 108 b -194 -122 -72 -28 -121 -86 b -267 -139 -217 -133 -240 -139 b -318 -104 -293 -139 -308 -129 b -326 -61 -324 -90 -326 -75 b -315 -4 -326 -42 -322 -24 b -242 111 -300 39 -274 78 b -67 246 -192 167 -132 210 l -21 271 b -11 274 -17 272 -14 274 b -6 261 -7 274 -6 269 z m 69 438 l 69 443 b 110 525 69 476 81 506 b 115 528 111 526 114 526 b 126 532 119 529 122 532 b 132 529 128 532 131 531 b 136 521 135 526 136 524 b 135 513 136 518 135 515 b 131 496 135 507 133 501 b 69 438 117 471 96 453 z "},"t":{"ha":183,"x_min":0,"x_max":0,"o":"m 236 1013 l -247 1013 b -554 1001 -350 1010 -451 1008 b -679 992 -596 999 -637 996 b -714 986 -690 990 -703 989 b -725 975 -721 983 -725 979 b -719 964 -725 972 -722 968 b -693 954 -712 956 -703 954 b -629 958 -672 956 -650 957 l -333 967 b -51 972 -239 968 -146 972 l 43 972 b 186 975 92 972 139 972 l 217 975 b 225 969 222 975 225 974 b 224 964 225 968 225 967 b 218 950 222 960 221 954 b 147 778 194 892 171 835 b -90 199 69 583 -15 393 b -172 -32 -121 122 -150 47 b -179 -60 -175 -40 -178 -50 b -158 -81 -179 -69 -171 -79 b -153 -82 -157 -81 -154 -82 b -139 -68 -146 -82 -142 -76 b -31 204 -108 25 -69 114 b 157 622 29 344 92 483 b 331 956 210 736 272 844 b 357 974 338 967 344 974 l 378 974 b 858 967 538 972 699 971 b 993 963 904 965 949 963 l 1015 963 b 1024 961 1018 963 1021 961 b 1201 950 1083 957 1142 953 b 1213 949 1204 949 1208 949 b 1222 960 1219 950 1222 954 b 1221 967 1222 961 1222 964 b 1208 974 1218 971 1214 974 b 1186 978 1200 975 1193 976 b 943 994 1106 986 1024 990 b 717 1003 868 999 793 1003 b 421 1010 619 1006 519 1010 l 372 1010 b 363 1015 365 1010 363 1011 b 364 1022 363 1017 363 1019 b 383 1064 369 1036 376 1050 b 413 1153 396 1092 408 1121 b 414 1165 413 1157 414 1161 b 361 1249 414 1200 392 1235 b 346 1251 356 1250 350 1251 b 326 1246 339 1251 333 1250 b 229 1144 288 1218 251 1188 b 215 1100 219 1128 215 1114 b 246 1044 215 1081 225 1064 b 254 1033 250 1042 254 1038 b 253 1028 254 1031 253 1029 b 236 1013 250 1021 246 1014 z m 303 1133 b 276 1078 293 1114 285 1096 b 268 1071 274 1075 272 1071 l 265 1072 b 264 1076 264 1074 264 1075 b 265 1082 264 1078 264 1081 b 297 1135 271 1103 282 1121 b 303 1133 299 1135 301 1133 z "},"u":{"ha":326,"x_min":0,"x_max":0,"o":"m 35 301 l 35 306 b 40 324 35 313 38 318 b 72 392 49 347 60 369 b 107 453 83 411 94 432 b 111 468 110 457 111 463 b 110 478 111 471 111 475 b 56 510 97 499 79 508 l 51 510 b 21 482 33 510 28 496 b 11 460 18 475 14 468 b -14 351 -1 425 -8 389 b -17 310 -15 338 -17 324 b -15 290 -17 303 -17 297 b 17 260 -11 271 3 260 b 42 269 25 260 33 264 b 60 289 49 275 54 282 b 135 378 83 317 108 346 b 125 331 131 358 128 344 b 119 282 124 314 119 299 b 121 265 119 276 119 271 b 153 233 125 246 136 233 b 164 235 157 233 160 233 b 186 246 172 236 179 240 b 217 276 196 256 207 265 b 356 404 263 321 304 367 b 361 408 358 406 360 407 b 363 414 363 410 363 413 l 363 417 b 354 419 360 418 357 419 b 340 414 349 419 344 417 b 310 393 331 407 319 401 b 186 285 267 360 228 321 b 174 278 182 282 179 278 l 171 278 b 169 283 171 279 169 281 b 174 299 169 288 172 293 b 214 406 183 335 199 371 b 233 456 222 421 229 439 b 235 463 233 458 235 461 b 208 497 235 478 224 492 b 197 500 204 499 201 500 b 176 481 190 500 185 494 b 149 433 167 465 160 447 b 53 318 117 394 85 357 b 35 301 49 313 44 306 z "},"v":{"ha":288,"x_min":0,"x_max":0,"o":"m 71 258 b 75 349 71 290 71 319 b 92 464 79 388 89 425 b 74 497 92 479 86 489 b 46 507 65 503 56 506 b 35 508 42 508 38 508 b 13 483 21 508 15 501 b 4 385 7 451 4 418 b 11 285 4 351 7 318 b 25 229 14 267 18 247 b 61 204 32 213 46 204 b 93 222 72 204 85 210 b 118 268 104 236 111 251 b 246 496 156 347 194 425 b 249 501 247 497 249 500 b 251 506 250 503 251 504 b 249 510 251 507 250 508 b 242 513 247 513 244 513 b 228 504 236 511 232 508 b 207 479 221 497 213 489 b 85 276 161 415 119 349 b 71 258 82 271 81 264 z "},"w":{"ha":446,"x_min":0,"x_max":0,"o":"m 207 286 b 224 378 208 318 214 349 l 253 469 b 261 508 257 482 261 496 b 232 543 261 525 249 539 b 224 544 229 543 226 544 b 201 526 214 544 208 539 b 171 472 190 508 183 489 b 58 304 133 417 96 360 b 43 289 54 299 51 292 b 42 296 43 292 42 293 b 43 301 42 297 43 300 b 71 389 50 332 60 361 b 94 450 78 410 86 431 b 97 465 97 456 97 461 b 83 486 97 474 93 479 b 63 496 76 490 69 493 b 43 500 54 499 49 500 b 13 471 28 500 19 490 b -14 299 -8 415 -14 357 l -14 278 b -12 271 -14 276 -12 274 b 11 240 -10 257 -4 244 b 24 239 15 239 19 239 b 54 253 35 239 44 243 b 78 286 63 263 71 274 b 146 394 100 322 121 358 b 154 403 149 397 149 403 l 156 403 b 146 332 153 379 149 356 b 144 300 144 321 144 311 b 151 246 144 282 146 264 b 186 217 157 228 171 217 b 204 221 192 217 199 218 b 228 243 215 225 222 233 l 261 310 b 351 490 288 371 319 432 b 393 558 364 514 375 538 b 397 567 394 560 397 563 b 394 571 397 568 396 569 b 386 574 392 574 389 574 b 381 572 385 574 382 574 b 368 563 376 569 372 565 b 349 536 361 554 354 544 b 271 403 321 493 296 447 b 207 286 250 364 228 325 z "},"x":{"ha":268,"x_min":0,"x_max":0,"o":"m 69 447 b 64 478 67 460 64 469 b 10 531 63 514 39 526 b 0 532 6 531 3 532 b -18 510 -12 532 -18 525 l -18 504 b -15 485 -18 497 -17 492 l 6 389 b 8 376 7 385 8 381 b -1 356 8 369 6 363 b -57 286 -21 333 -39 310 b -117 207 -78 260 -99 235 b -121 196 -119 203 -121 200 b -117 188 -121 193 -121 190 b -106 183 -112 185 -108 183 b -94 188 -101 183 -97 185 b -83 200 -90 192 -86 196 b 8 301 -53 235 -22 268 b 26 317 18 313 22 317 b 40 299 32 317 35 310 b 94 257 53 278 69 261 b 108 256 99 256 104 256 b 164 282 131 256 147 267 b 278 388 203 317 240 353 l 290 400 b 294 407 292 401 294 404 b 293 410 294 408 294 408 b 288 414 292 413 289 414 b 282 413 285 414 283 414 b 269 404 278 411 274 407 l 224 367 b 126 288 192 340 161 311 b 111 281 119 283 115 281 b 99 294 107 281 103 285 b 81 356 89 314 85 335 b 79 367 79 360 79 363 b 92 388 79 375 83 382 b 139 431 107 401 124 415 b 185 474 154 444 169 460 b 194 493 190 479 194 486 l 194 497 b 156 526 190 515 174 526 b 135 519 149 526 140 524 b 111 497 125 514 118 506 b 69 447 97 481 85 465 z "},"y":{"ha":379,"x_min":0,"x_max":0,"o":"m 194 382 b 189 364 194 372 190 368 b 78 151 149 293 113 222 b -7 -25 49 92 21 33 b -36 -43 -12 -40 -24 -43 b -51 -25 -49 -43 -49 -32 b -147 85 -69 24 -103 60 b -306 125 -197 113 -250 124 l -326 125 b -478 106 -378 125 -428 117 b -837 -37 -606 76 -724 25 b -899 -76 -858 -50 -879 -62 b -926 -104 -910 -85 -919 -93 b -933 -121 -931 -111 -933 -117 b -925 -140 -933 -128 -931 -133 b -887 -161 -915 -151 -903 -160 b -837 -167 -871 -165 -854 -167 b -812 -165 -829 -167 -821 -167 b -746 -158 -790 -162 -768 -161 b -544 -133 -678 -153 -611 -143 b -393 -114 -494 -128 -443 -121 b -229 -94 -339 -107 -283 -100 b -86 -78 -182 -87 -133 -83 l -82 -78 b -71 -89 -75 -78 -71 -81 l -71 -119 b -83 -203 -71 -149 -72 -176 b -112 -275 -94 -226 -103 -251 b -153 -397 -128 -315 -143 -356 b -154 -407 -154 -401 -154 -404 b -142 -425 -154 -415 -150 -421 b -132 -426 -137 -426 -135 -426 b -112 -414 -125 -426 -118 -422 b -87 -357 -103 -396 -94 -376 b -43 -253 -75 -321 -61 -286 b 50 -81 -11 -196 19 -137 b 82 -58 57 -65 67 -60 b 174 -49 113 -56 143 -51 b 369 -29 239 -42 304 -36 b 551 -17 431 -24 490 -18 b 578 -15 560 -17 569 -17 b 592 -8 583 -15 592 -15 b 579 4 592 0 585 3 b 565 6 575 6 569 6 b 450 1 526 4 488 3 b 306 -11 401 -3 353 -7 b 176 -22 263 -14 219 -18 b 76 -32 144 -25 113 -28 b 114 36 90 -7 101 15 b 254 297 161 124 210 210 b 308 428 275 340 293 383 b 313 456 311 438 313 446 l 313 463 b 283 497 311 481 299 490 b 272 500 279 499 276 500 b 249 488 264 500 256 494 b 236 475 244 482 240 479 b 79 321 186 421 133 371 b 57 306 72 315 65 308 l 57 310 b 58 317 57 313 57 315 b 93 386 69 340 81 364 b 124 449 104 407 115 428 b 128 465 126 454 128 460 b 115 489 128 474 124 482 b 72 510 103 500 89 507 b 60 511 68 511 64 511 b 33 492 47 511 40 506 b 6 429 22 472 13 451 b -24 290 -11 385 -24 339 b 7 244 -24 268 -11 254 b 25 239 14 242 19 239 b 56 253 36 239 46 244 b 67 263 60 256 63 260 b 156 347 99 289 126 319 b 194 382 168 358 179 368 z m -856 -133 l -892 -133 b -874 -108 -889 -119 -881 -114 b -808 -64 -854 -90 -832 -76 b -444 76 -694 0 -574 50 b -308 93 -400 86 -354 93 b -275 92 -297 93 -286 93 b -150 60 -232 90 -189 82 b -79 -28 -115 40 -90 11 b -78 -39 -78 -32 -78 -36 b -93 -50 -78 -46 -82 -49 b -307 -72 -165 -57 -236 -65 l -486 -93 b -686 -117 -553 -101 -619 -108 b -822 -132 -732 -122 -776 -126 b -856 -133 -833 -133 -844 -133 z "},"z":{"ha":290,"x_min":0,"x_max":0,"o":"m 42 367 b 26 349 38 358 32 354 b -31 290 8 329 -11 311 b -42 271 -37 283 -42 278 b -35 251 -42 265 -39 260 b 15 221 -24 232 -7 222 b 190 215 74 215 132 215 l 200 215 b 210 226 207 218 210 221 b 208 232 210 228 210 231 b 186 247 203 242 196 246 b 144 253 172 250 158 253 b 35 263 108 256 71 260 b 21 269 31 263 25 264 b 32 282 22 275 28 279 b 142 375 68 313 106 343 b 165 382 149 381 157 382 l 211 382 b 225 389 217 382 222 382 l 225 392 b 218 404 225 396 222 401 b 204 408 214 407 208 407 b 188 417 199 411 192 408 b 210 446 194 426 203 435 b 218 472 215 454 218 464 b 161 535 218 503 193 533 l 154 535 b 93 525 133 535 113 531 b 68 503 76 521 68 513 b 78 481 68 496 71 489 b 108 467 85 471 96 467 l 121 467 b 135 464 125 467 131 467 b 118 442 131 454 122 450 b 57 411 103 419 82 411 l 51 411 b 35 413 46 413 40 413 b 17 411 28 413 22 413 b -3 396 4 410 -3 404 b 0 385 -3 393 -1 389 b 25 368 6 372 11 368 b 35 369 28 368 32 369 b 42 367 38 369 39 368 z "},"{":{"ha":726,"x_min":0,"x_max":0,"o":"m 260 417 b 244 433 254 422 250 429 b 222 443 236 440 229 443 b 200 428 214 443 207 439 b 171 372 188 411 176 393 b 164 346 168 364 164 354 b 165 338 164 343 164 340 b 167 325 167 333 167 329 b 158 292 167 314 163 303 b 15 -37 110 182 63 72 b 4 -72 11 -49 7 -60 b 3 -83 3 -76 3 -81 b 18 -114 3 -96 8 -106 b 78 -136 36 -129 56 -136 b 94 -135 83 -136 89 -136 b 304 -101 165 -126 235 -115 b 369 -87 326 -97 347 -93 b 382 -78 375 -86 382 -85 l 382 -76 b 367 -65 381 -68 374 -65 l 360 -65 b 342 -67 353 -65 347 -65 b 128 -94 271 -79 199 -86 b 85 -99 114 -97 99 -99 l 78 -99 b 65 -92 69 -99 65 -97 b 68 -79 65 -89 67 -85 b 81 -46 71 -68 75 -57 b 164 125 106 11 136 68 b 242 307 192 185 221 244 b 268 351 247 325 254 339 b 299 386 279 361 289 374 b 414 554 342 439 376 497 b 589 810 469 642 526 728 b 671 904 614 843 640 876 b 690 915 676 910 682 915 l 700 915 b 711 929 707 915 710 922 l 711 933 b 706 950 711 939 708 944 b 646 981 693 969 668 981 b 625 978 639 981 632 981 b 585 956 610 972 597 965 b 501 868 553 931 525 900 b 375 644 451 799 413 722 b 276 440 343 576 311 507 b 260 417 272 433 269 425 z "},"|":{"ha":681,"x_min":0,"x_max":0,"o":"m 26 -197 b 47 -179 39 -197 43 -194 b 135 39 69 -103 101 -32 b 331 438 196 174 263 306 b 599 878 411 590 496 739 b 654 965 619 906 638 935 b 661 990 660 974 661 982 b 647 1024 661 1001 657 1013 b 615 1046 638 1033 628 1040 b 601 1049 611 1047 606 1049 b 579 1039 593 1049 586 1046 b 536 986 563 1022 549 1004 b 435 811 497 931 465 871 b 167 250 343 625 253 438 b 46 -31 124 157 82 65 b 4 -167 29 -75 14 -119 b 3 -176 3 -169 3 -174 b 26 -197 3 -189 11 -197 z "},"}":{"ha":728,"x_min":0,"x_max":0,"o":"m 454 429 b 469 411 460 422 464 417 b 490 401 476 406 483 401 b 514 417 499 401 506 407 b 543 474 526 433 538 453 b 550 500 546 482 550 492 b 549 507 550 503 549 504 b 546 522 547 513 546 517 b 556 554 546 533 550 543 b 697 882 603 663 650 772 b 710 918 703 893 707 906 b 711 928 711 921 711 925 b 694 958 711 940 704 950 b 631 981 675 974 654 981 l 619 981 b 408 947 549 972 478 960 b 344 933 388 943 365 938 b 331 921 338 932 331 929 b 346 910 332 914 339 911 l 353 910 b 372 911 360 910 367 910 b 585 940 443 924 514 932 b 629 944 600 942 614 943 l 635 944 b 647 936 644 944 647 942 b 646 925 647 933 647 929 l 633 892 b 550 719 607 833 578 778 b 472 538 521 660 493 601 b 444 494 467 521 458 506 b 414 460 433 483 424 472 b 300 290 371 407 336 347 b 124 35 243 204 188 117 b 42 -60 99 3 74 -31 b 22 -69 36 -64 31 -69 l 15 -69 b 1 -85 7 -69 3 -76 l 1 -89 b 7 -104 1 -94 4 -100 b 67 -136 19 -124 43 -136 b 89 -132 74 -136 82 -135 b 129 -110 103 -128 117 -119 b 211 -22 161 -85 188 -56 b 339 201 263 47 301 124 b 436 404 371 269 401 338 b 454 429 440 413 443 421 z "},"~":{"ha":492,"x_min":0,"x_max":0,"o":"m 314 364 b 358 378 331 364 344 369 b 406 408 374 389 390 399 b 465 450 426 422 447 433 b 474 463 471 454 474 458 b 460 478 474 469 468 475 b 450 479 457 479 454 479 b 439 476 447 479 443 479 l 414 464 b 307 418 378 447 344 429 b 286 414 297 415 292 414 b 258 435 275 414 269 419 b 224 476 247 449 236 464 b 142 508 203 494 174 508 b 89 494 125 508 107 504 b 38 457 71 483 53 472 b 6 408 24 442 13 426 b 1 392 3 403 1 397 b 8 375 1 386 4 381 b 53 344 19 360 33 349 b 63 343 57 343 60 343 b 83 354 71 343 78 346 l 96 375 b 174 442 115 404 140 428 b 189 446 181 444 185 446 b 206 433 194 446 199 442 b 242 396 217 421 228 407 b 314 364 263 376 288 367 z "},"¡":{"ha":617,"x_min":0,"x_max":0,"o":"m 0 -581 b 8 -603 0 -589 3 -596 b 51 -639 18 -619 33 -632 b 71 -643 60 -642 65 -643 b 94 -628 79 -643 85 -639 b 146 -553 115 -606 132 -579 b 218 -418 171 -508 194 -464 b 465 86 306 -253 390 -86 b 539 293 494 153 522 221 b 543 313 540 299 543 306 b 517 336 543 324 532 335 b 510 338 514 336 511 338 b 493 321 500 338 496 332 b 401 101 469 244 436 172 b 228 -222 347 -8 289 -115 b 78 -460 182 -304 133 -383 b 10 -554 56 -490 31 -521 b 0 -581 6 -562 0 -571 z m 546 363 l 557 363 b 593 392 574 363 585 375 b 600 414 597 400 600 407 b 586 440 600 424 596 432 b 581 450 583 443 582 446 b 544 474 572 465 558 474 b 513 458 533 474 522 468 b 497 432 507 450 501 442 b 492 407 493 424 492 415 b 518 369 492 392 500 379 b 546 363 526 365 535 363 z "},"¢":{"ha":703,"x_min":0,"x_max":0,"o":"m 296 206 l 336 206 b 468 229 382 208 425 214 b 486 236 474 232 481 233 b 492 244 490 239 492 242 b 488 253 492 247 490 250 b 469 261 482 258 476 261 b 457 258 465 261 461 260 b 264 238 394 238 329 238 b 246 244 250 238 246 239 b 250 258 246 247 247 251 b 251 261 251 260 251 260 b 397 554 299 360 347 457 l 439 633 b 457 653 443 642 449 649 b 593 700 500 674 544 692 b 601 701 596 701 599 701 b 606 700 603 701 604 701 b 607 694 607 699 607 697 b 604 686 607 692 606 689 b 599 676 603 682 600 679 b 515 586 575 642 547 611 b 471 563 501 576 489 565 b 461 554 464 561 461 558 b 464 546 461 551 463 549 b 504 521 469 531 486 521 l 510 521 b 543 533 522 522 532 528 b 651 617 583 556 619 583 b 676 650 661 626 671 638 b 686 685 682 661 686 674 b 685 699 686 690 686 694 b 633 778 678 732 661 758 b 556 801 610 796 583 801 l 550 801 b 540 807 543 801 540 803 b 544 818 540 810 542 813 b 578 878 556 839 567 858 b 614 961 592 906 604 932 b 615 972 615 965 615 968 b 592 1006 615 986 607 997 b 572 1011 585 1010 578 1011 b 547 997 564 1011 556 1007 b 515 953 535 983 525 969 b 424 778 482 897 450 839 b 394 747 417 764 408 754 b 294 685 360 729 326 707 b 57 440 201 617 119 536 b 11 343 38 410 21 378 b 7 314 8 333 7 324 b 42 247 7 288 18 265 b 97 219 58 233 76 224 b 147 210 114 215 131 213 b 161 204 158 208 161 208 b 158 192 161 201 160 197 b 154 181 157 188 156 185 b 69 -22 124 114 96 46 b 26 -146 54 -62 39 -104 b 24 -158 25 -151 24 -154 b 38 -172 24 -165 29 -169 b 47 -174 42 -174 44 -174 b 65 -160 56 -174 61 -169 b 68 -151 67 -157 68 -154 b 217 189 113 -36 165 76 b 240 204 222 200 231 204 l 244 204 b 265 203 251 204 258 203 b 296 206 275 203 285 204 z m 326 571 b 319 547 326 561 322 554 l 190 264 b 169 243 183 247 179 243 b 156 244 167 243 161 243 b 94 256 135 247 114 250 b 76 276 81 260 76 264 l 76 283 b 88 324 76 297 82 310 b 161 429 106 363 132 397 b 314 565 207 481 258 525 b 326 571 318 568 319 571 z "},"£":{"ha":974,"x_min":0,"x_max":0,"o":"m 456 415 b 457 408 457 413 457 411 b 453 397 457 404 454 401 b 357 188 425 325 393 256 b 251 38 326 133 292 83 b 214 18 240 25 231 18 b 82 -7 169 15 125 7 b 22 -39 61 -15 40 -24 b 6 -69 11 -49 6 -58 b 21 -97 6 -78 11 -87 b 74 -119 36 -112 54 -119 b 89 -118 78 -119 83 -119 b 207 -62 133 -111 172 -90 b 281 -37 229 -44 253 -39 b 419 -33 326 -35 372 -33 b 494 -35 444 -33 469 -33 b 782 -54 590 -39 686 -43 b 935 -81 833 -60 885 -67 b 946 -83 939 -82 942 -83 l 949 -83 b 958 -75 954 -83 958 -81 b 957 -71 958 -74 957 -72 b 936 -53 953 -61 944 -56 b 875 -35 915 -44 896 -39 b 519 10 757 -10 639 0 b 315 19 451 14 383 19 l 313 19 b 307 22 310 19 308 19 b 317 36 307 28 313 32 b 414 163 351 76 385 118 b 556 408 467 242 514 324 b 593 433 564 425 575 433 b 669 439 618 433 643 439 b 721 442 686 440 704 442 b 753 439 732 442 742 442 b 769 446 758 439 767 439 b 771 451 771 447 771 450 b 764 465 771 456 767 461 b 731 479 756 476 743 478 b 644 483 703 482 674 483 l 625 483 b 604 481 618 483 611 481 b 597 482 601 481 600 482 l 597 485 b 604 503 597 493 601 497 b 650 596 619 535 635 565 b 772 829 689 675 728 753 b 821 894 786 853 800 876 b 832 911 829 900 832 906 b 825 926 832 915 831 919 b 764 960 810 949 788 960 b 715 943 747 960 731 954 b 697 925 708 938 703 932 b 642 846 675 900 657 874 b 556 658 607 786 582 722 b 492 494 533 604 513 549 b 463 472 486 481 478 474 b 446 471 457 472 451 472 b 328 458 407 467 367 465 b 303 450 319 457 311 456 b 289 431 294 446 289 439 b 290 422 289 428 290 425 b 326 393 296 404 308 393 l 333 393 b 353 397 340 394 347 396 b 456 415 388 403 422 410 z m 63 -86 b 131 -58 85 -69 107 -65 b 63 -86 114 -75 90 -85 z "},"¤":{"ha":454,"x_min":0,"x_max":0,"o":"m 28 236 l 31 236 b 44 247 39 236 42 242 b 128 332 69 278 99 306 b 142 339 133 336 138 339 b 153 335 146 339 149 338 b 182 326 163 329 172 326 b 215 335 193 326 204 329 b 239 349 224 339 229 349 b 243 347 240 349 242 347 b 261 321 253 344 256 331 b 265 314 263 319 264 317 b 306 258 278 294 290 275 b 321 249 311 254 315 249 b 328 251 324 249 325 250 b 331 257 329 253 331 256 b 324 271 331 263 325 267 b 283 354 307 297 292 324 b 276 367 282 358 279 364 b 271 376 272 371 271 374 b 276 388 271 381 274 383 b 311 474 297 414 311 442 b 310 488 311 478 310 483 l 310 490 b 322 515 310 500 315 510 b 411 581 349 542 379 561 b 433 594 418 585 426 589 b 438 603 436 597 438 600 b 433 611 438 606 436 608 b 419 617 429 615 424 617 b 406 614 415 617 410 615 b 307 558 371 597 338 581 b 296 554 303 556 300 554 b 283 560 292 554 288 556 b 225 585 265 574 246 585 b 189 572 213 585 201 581 b 183 571 186 571 185 571 b 175 576 179 571 176 572 b 144 650 163 600 149 622 b 117 676 143 664 129 676 l 114 676 b 101 664 106 676 101 672 b 107 647 103 658 106 653 b 146 575 118 622 129 597 b 157 549 154 565 157 557 b 146 521 157 540 154 532 b 107 414 125 488 107 453 b 113 378 107 403 108 390 b 114 372 114 376 114 374 b 107 360 114 368 111 364 b 94 350 103 357 99 354 b 11 276 67 326 36 304 b 3 261 7 272 3 267 b 6 253 3 258 4 256 b 28 236 11 243 19 238 z m 256 494 l 258 494 b 217 407 251 463 239 432 b 208 400 215 406 213 400 b 203 404 207 400 206 401 b 194 417 199 408 194 411 b 196 424 194 419 194 421 b 206 438 199 428 203 433 b 244 488 217 456 229 472 b 256 494 249 490 250 494 z "},"¥":{"ha":772,"x_min":0,"x_max":0,"o":"m 329 193 b 340 214 333 200 338 207 b 372 238 346 229 357 236 b 536 254 426 244 482 254 b 585 251 553 254 568 253 l 588 251 b 601 261 596 251 601 254 b 599 271 601 264 600 267 b 586 286 596 276 592 282 b 560 294 578 292 568 293 b 500 300 540 299 519 300 b 447 297 482 300 465 299 b 404 294 433 296 418 294 b 390 300 394 294 390 296 b 394 311 390 303 392 306 b 397 315 394 313 396 314 b 507 508 433 379 468 444 b 697 822 569 614 633 717 b 749 924 717 854 735 888 b 753 946 751 932 753 939 b 735 985 753 961 747 975 b 714 996 726 992 719 996 b 694 983 708 996 703 992 b 642 913 676 961 657 938 b 564 818 619 878 592 847 b 260 526 465 718 365 619 b 126 421 217 489 175 451 b 114 413 124 418 119 413 b 110 414 113 413 111 413 b 106 422 107 417 106 419 b 107 433 106 426 107 431 b 125 511 110 460 117 485 b 264 824 161 619 210 722 b 331 957 288 868 310 913 b 338 985 335 967 338 976 b 306 1033 338 1004 326 1021 b 278 1044 294 1040 286 1044 b 249 1022 268 1044 258 1038 b 196 933 228 994 211 964 b 69 558 135 815 97 689 b 54 432 60 517 54 475 b 108 378 54 400 81 378 b 135 385 117 378 126 379 b 165 404 146 390 156 397 b 258 483 199 428 228 456 b 504 719 340 563 422 642 b 525 739 511 726 518 733 b 536 746 528 742 531 746 l 539 746 b 531 728 535 739 533 733 b 369 415 475 625 422 519 b 311 301 350 378 331 340 b 282 281 306 289 297 283 b 121 260 228 275 174 267 b 69 246 103 257 86 253 b 46 231 61 242 53 238 b 38 211 40 225 38 218 b 44 192 38 204 40 199 b 67 178 51 182 58 178 b 76 179 69 178 74 178 b 253 218 135 193 193 207 b 263 215 257 218 260 218 b 228 181 258 188 253 182 l 186 176 b 42 156 138 169 89 167 b 8 131 19 150 8 143 b 19 103 8 124 13 114 b 22 99 21 101 22 100 b 46 85 31 89 38 85 b 58 86 50 85 54 85 b 168 111 94 97 131 106 b 210 118 182 114 196 118 l 215 118 b 207 97 215 108 211 103 b 132 -56 182 46 157 -4 b 92 -146 118 -85 106 -115 b 89 -158 90 -150 89 -154 b 107 -179 89 -167 94 -174 b 118 -182 111 -181 115 -182 b 135 -165 125 -182 129 -176 b 142 -153 138 -161 139 -157 b 285 114 188 -62 236 25 b 318 135 293 128 303 135 b 411 142 349 138 379 142 b 440 140 421 142 431 142 l 443 140 b 456 151 450 140 456 144 b 453 160 456 153 454 157 b 418 185 447 175 435 183 b 363 189 399 186 381 189 l 343 189 b 329 193 339 189 333 189 z "},"¦":{"ha":688,"x_min":0,"x_max":0,"o":"m 611 974 b 583 958 600 974 592 967 b 535 897 564 940 549 919 b 388 660 485 818 435 740 b 283 464 351 596 314 531 b 251 386 272 439 261 413 b 249 375 250 382 249 379 b 271 349 249 364 257 354 b 281 346 275 347 278 346 b 299 364 288 346 292 351 b 396 536 326 424 360 481 b 614 831 463 639 531 740 b 664 892 632 850 650 869 b 674 915 669 899 674 907 b 611 974 672 940 638 974 z m 1 -129 l 1 -132 b 24 -158 1 -144 11 -156 b 32 -160 26 -160 29 -160 b 49 -143 39 -160 43 -154 b 139 47 75 -78 106 -15 b 258 250 175 117 211 186 b 272 272 263 257 268 264 b 276 286 275 276 276 282 b 268 306 276 293 274 300 b 219 333 256 321 240 331 b 206 335 214 335 210 335 b 175 313 192 335 183 329 b 164 289 171 304 167 296 l 85 97 b 11 -94 60 33 32 -29 b 1 -129 7 -107 4 -119 z "},"§":{"ha":950,"x_min":0,"x_max":0,"o":"m 461 271 b 433 258 453 264 442 263 b 418 244 425 256 418 253 l 418 242 b 440 222 419 232 429 222 l 442 222 b 456 225 446 222 451 224 b 500 239 471 229 486 233 b 508 240 503 240 506 240 b 524 235 514 240 519 239 b 535 213 532 228 535 221 b 533 201 535 208 535 206 b 481 132 524 172 504 150 b 161 -8 388 56 282 6 b 122 -11 149 -10 136 -11 b 83 -7 110 -11 96 -10 b 63 13 68 -3 63 3 b 65 28 63 17 64 22 b 82 51 69 36 75 44 b 113 78 92 61 101 71 b 383 199 196 135 282 183 l 388 199 b 399 207 393 199 399 200 l 399 210 b 386 222 399 217 393 219 b 374 225 382 224 378 225 l 368 225 b 329 221 356 224 342 224 b 39 90 222 199 128 151 b 22 74 32 86 26 81 b 6 36 11 61 6 49 b 17 3 6 25 10 15 b 85 -47 33 -21 57 -37 b 160 -61 108 -56 133 -60 l 174 -61 b 490 24 286 -61 392 -29 b 572 88 521 40 549 61 b 606 163 594 113 606 138 b 589 221 606 182 600 201 b 568 251 582 232 575 242 b 561 263 564 256 561 257 l 561 265 b 581 276 567 271 574 274 b 708 358 626 300 668 328 b 750 394 724 369 738 381 b 764 428 760 404 764 415 b 760 447 764 433 763 440 b 704 504 750 475 729 492 b 638 528 683 514 661 521 b 397 588 558 550 476 565 b 356 601 383 592 369 596 b 342 615 346 606 342 610 b 346 629 342 618 343 624 b 365 658 350 640 357 650 b 408 699 378 674 392 688 b 753 840 513 771 628 818 b 821 846 775 844 799 846 l 842 846 b 853 840 849 846 853 844 b 849 832 853 839 851 836 b 825 803 842 822 833 813 b 700 696 788 763 744 729 b 613 642 672 676 644 657 b 592 633 606 638 600 633 b 586 635 590 633 589 635 b 581 636 585 635 582 636 b 571 629 576 636 572 633 b 569 625 569 628 569 626 b 575 613 569 621 572 617 b 628 583 586 593 607 583 b 640 585 632 583 636 585 b 674 596 653 588 664 592 b 863 711 743 625 804 665 b 907 754 879 724 894 738 b 935 819 922 772 935 793 l 935 824 b 832 953 935 883 890 939 b 781 958 815 957 797 958 b 733 956 765 958 749 957 b 529 892 663 944 594 919 b 325 768 456 860 386 821 b 275 707 306 750 288 731 b 264 665 268 693 264 679 b 272 629 264 654 267 642 b 338 557 288 599 308 574 b 356 544 344 553 351 551 b 342 535 353 538 346 538 b 307 511 329 528 318 521 b 271 444 283 490 271 468 b 288 392 271 428 276 410 b 365 321 306 360 333 338 b 443 283 392 307 417 296 b 461 271 449 279 457 279 z m 461 515 b 522 503 481 511 501 507 b 685 458 576 490 632 479 b 707 444 700 453 707 450 b 692 424 707 440 701 435 b 531 303 644 375 588 339 b 518 300 526 301 522 300 b 506 304 514 300 510 301 b 381 371 467 331 422 350 b 356 385 372 375 364 381 b 340 401 344 392 340 396 b 347 418 340 406 343 411 b 399 467 361 439 378 454 l 415 475 b 433 481 421 478 428 481 b 447 476 438 481 442 479 b 454 475 450 475 453 475 b 465 488 463 475 465 479 l 465 493 b 463 503 465 496 464 500 b 460 511 461 506 460 508 b 461 515 460 513 460 514 z "},"¨":{"ha":261,"x_min":0,"x_max":0,"o":"m 132 979 b 164 932 132 957 146 943 b 183 926 171 928 176 926 b 213 938 193 926 203 931 b 233 957 221 943 228 950 b 244 988 240 967 244 978 b 236 1014 244 997 242 1006 b 196 1038 226 1029 214 1038 b 183 1036 192 1038 188 1038 b 169 1033 179 1035 174 1033 b 140 1013 154 1033 146 1025 b 132 979 135 1003 132 992 z m 1 982 l 1 979 b 25 940 1 958 10 946 b 44 935 32 939 38 938 b 54 933 47 933 51 933 b 108 983 79 933 108 960 l 108 986 b 101 1007 108 994 106 1001 b 72 1029 93 1017 83 1024 b 50 1033 64 1032 57 1033 b 7 1003 31 1033 15 1024 b 1 982 4 996 1 988 z "},"©":{"ha":1008,"x_min":0,"x_max":0,"o":"m 1 190 l 1 176 b 14 81 1 144 6 113 b 136 -69 32 13 69 -40 b 236 -90 169 -85 203 -90 b 278 -87 250 -90 264 -89 b 467 -22 344 -79 407 -54 b 782 224 586 40 689 125 b 938 450 846 292 900 365 b 986 646 967 513 986 578 b 983 689 986 660 985 674 b 817 901 969 792 917 867 b 669 933 769 918 719 926 b 604 944 647 936 625 933 b 522 964 576 958 550 964 b 429 940 492 964 460 956 b 360 903 406 928 383 915 b 311 860 340 892 322 878 b 272 813 300 842 286 828 b 231 764 257 797 243 781 b 56 458 154 672 97 569 b 1 190 24 372 3 283 z m 942 682 l 942 668 b 872 426 942 581 914 501 b 658 161 817 325 744 238 b 406 -11 582 92 499 33 b 246 -60 354 -36 303 -53 b 228 -61 240 -60 235 -61 b 160 -47 206 -61 182 -56 b 97 24 129 -33 110 -7 b 78 132 83 58 78 94 b 79 165 78 143 78 154 b 222 549 93 306 149 431 b 350 717 260 608 301 665 b 546 867 407 778 471 829 b 586 882 558 874 572 878 b 610 885 594 883 603 885 b 643 875 621 885 632 882 b 654 871 647 872 651 871 b 663 886 658 871 661 875 b 675 894 665 894 668 894 b 854 844 736 883 799 872 b 933 747 896 824 921 790 b 942 682 939 725 942 703 z m 328 201 l 328 210 b 343 300 328 242 335 271 b 506 592 376 408 433 504 b 628 710 542 636 582 676 b 715 757 654 729 683 747 b 724 758 718 758 722 758 b 732 749 729 758 732 756 l 732 743 b 711 663 728 715 721 689 b 640 536 693 617 667 576 b 633 522 636 529 633 525 b 644 507 633 517 638 513 b 679 496 656 500 668 496 b 713 508 690 496 703 500 b 824 676 767 553 807 607 b 828 707 826 686 828 697 b 813 765 828 728 822 747 b 674 857 789 815 735 857 b 589 831 646 857 618 849 b 508 767 558 813 532 792 b 378 599 457 717 414 660 b 268 342 329 518 289 433 b 253 236 260 307 253 272 b 256 193 253 222 253 207 b 371 81 267 126 304 89 b 385 79 376 79 381 79 b 439 92 404 79 422 85 b 667 207 519 122 594 160 b 728 261 689 222 708 240 b 738 272 731 264 735 268 b 739 278 739 275 739 276 b 731 288 739 282 736 286 b 724 289 728 289 726 289 b 706 278 717 289 711 285 b 646 228 688 258 668 242 b 417 118 574 182 497 146 b 393 111 408 115 401 113 b 378 110 388 110 382 110 b 335 146 356 110 344 121 b 328 201 328 164 328 183 z "},"ª":{"ha":286,"x_min":0,"x_max":0,"o":"m 163 765 b 165 764 163 765 164 764 l 149 718 b 113 607 136 682 122 646 b 110 590 111 601 110 596 b 111 582 110 588 110 585 b 132 565 114 571 122 567 l 135 565 b 147 581 143 565 144 572 b 154 606 149 589 151 597 b 253 810 183 676 214 744 b 264 833 257 817 261 825 b 268 850 267 839 268 844 b 253 878 268 861 263 869 b 229 889 243 886 235 889 b 208 872 219 889 214 883 b 197 860 204 864 201 860 b 183 867 194 860 190 863 b 129 885 165 879 147 885 b 58 847 103 885 78 872 b 35 810 49 836 42 824 b 0 696 15 774 4 736 b 15 661 0 682 1 668 b 38 656 22 657 29 656 b 60 661 44 656 53 657 b 78 676 65 665 72 671 b 131 732 96 694 113 714 b 163 765 140 743 151 754 z m 176 829 b 61 701 140 783 104 743 b 176 829 78 758 138 822 z "},"«":{"ha":639,"x_min":0,"x_max":0,"o":"m 371 571 l 371 574 b 315 625 371 600 342 625 b 304 624 311 625 308 625 b 268 611 292 621 281 617 b 97 518 208 585 153 551 b 29 471 74 503 50 488 b 6 428 13 457 6 444 b 11 401 6 421 7 411 b 74 319 24 368 46 342 b 251 171 133 269 194 224 b 261 164 254 168 258 165 b 269 161 264 163 267 161 b 276 164 272 161 274 161 b 279 169 278 165 279 168 b 276 178 279 172 278 175 b 263 197 274 186 268 192 b 185 272 238 222 211 247 b 78 372 149 304 111 336 b 68 389 72 379 68 385 b 78 404 68 393 72 399 b 122 436 90 418 107 426 b 249 497 164 460 206 478 b 357 553 286 514 322 532 b 371 571 364 557 371 563 z m 624 571 l 624 574 b 568 625 624 600 594 625 b 557 624 564 625 561 625 b 521 611 544 621 533 617 b 350 518 461 585 406 551 b 282 471 326 503 303 488 b 258 428 265 457 258 444 b 264 401 258 421 260 411 b 326 319 276 368 299 342 b 504 171 386 269 447 224 b 514 164 507 168 511 165 b 522 161 517 163 519 161 b 529 164 525 161 526 161 b 532 169 531 165 532 168 b 529 178 532 172 531 175 b 515 197 526 186 521 192 b 438 272 490 222 464 247 b 331 372 401 304 364 336 b 321 389 325 379 321 385 b 331 404 321 393 325 399 b 375 436 343 418 360 426 b 501 497 417 460 458 478 b 610 553 539 514 575 532 b 624 571 617 557 624 563 z "},"¬":{"ha":500,"x_min":0,"x_max":0,"o":"m 379 354 l 399 354 b 413 347 408 354 413 353 b 408 336 413 344 411 340 b 360 239 393 304 378 271 b 353 228 357 235 354 232 b 351 221 351 225 351 224 b 363 201 351 213 356 206 b 371 199 365 199 368 199 b 385 207 376 199 381 203 b 408 236 393 217 401 226 b 465 325 428 265 444 296 b 476 357 474 336 476 347 b 457 400 476 374 468 388 b 401 422 440 417 421 422 b 382 421 394 422 389 421 b 242 410 335 417 289 413 b 54 390 179 406 117 399 b 14 382 40 389 26 388 b 3 368 6 379 3 375 b 4 360 3 365 3 363 b 47 332 13 342 28 333 b 182 339 93 332 138 336 l 236 343 b 379 354 283 347 331 350 z "},"®":{"ha":828,"x_min":0,"x_max":0,"o":"m 3 550 l 3 528 b 28 418 3 493 11 456 b 282 265 69 325 176 265 b 331 269 299 265 314 267 b 488 349 390 281 442 310 b 656 513 547 400 604 454 b 763 647 693 556 731 600 b 769 663 765 653 769 657 b 763 672 769 665 768 669 b 760 678 760 674 760 675 b 763 688 760 681 761 685 b 779 731 768 701 775 715 b 808 876 796 778 808 826 b 806 915 808 890 807 903 b 765 1021 800 954 789 989 b 546 1125 710 1096 633 1125 l 522 1125 b 300 1044 442 1119 368 1088 b 61 783 196 979 117 892 b 3 550 26 711 3 638 z m 450 725 b 474 764 458 738 465 751 l 494 806 b 499 822 497 811 499 817 b 492 842 499 829 496 835 b 429 879 476 864 456 875 l 425 879 b 404 868 417 879 410 875 b 388 844 399 861 393 853 b 274 547 332 753 293 653 b 271 517 271 538 271 526 b 281 496 271 508 275 501 b 301 488 288 490 294 488 b 322 500 308 488 317 492 b 375 576 340 526 357 551 b 392 594 383 589 388 594 b 406 575 396 594 399 588 b 442 517 417 554 429 535 b 546 451 468 482 500 456 b 547 447 547 450 547 449 b 544 443 547 446 546 444 b 376 321 493 396 442 350 b 282 297 346 307 315 299 l 269 297 b 111 394 199 297 146 332 b 82 515 92 432 82 474 b 83 546 82 525 82 536 b 243 890 94 681 154 792 b 454 1043 301 957 372 1008 b 599 1072 500 1061 549 1072 l 615 1072 b 703 1046 646 1069 676 1061 b 776 914 753 1017 774 969 l 776 892 b 739 719 776 832 763 774 b 618 543 710 653 671 593 b 547 496 597 524 575 506 b 525 492 538 493 531 492 b 500 513 515 492 510 497 b 451 601 483 543 468 572 b 447 611 449 606 447 608 b 457 619 447 614 450 617 b 539 650 485 629 513 639 b 643 713 576 667 611 688 b 697 778 665 731 685 751 b 703 804 701 788 703 796 b 686 844 703 819 697 833 b 644 863 674 857 660 863 b 621 858 638 863 629 861 b 569 826 603 850 585 839 b 458 726 529 797 492 764 b 453 722 457 725 454 724 b 450 725 453 724 451 724 z m 632 810 b 474 689 589 751 533 718 b 632 810 494 725 585 794 z "},"¯":{"ha":350,"x_min":0,"x_max":0,"o":"m 69 899 l 90 903 b 232 931 138 914 185 924 b 313 943 258 935 286 939 b 332 960 325 946 332 951 b 328 972 332 963 331 967 b 293 997 321 986 310 996 l 274 997 b 53 983 200 996 126 988 b 21 981 42 982 31 982 b 3 967 8 979 3 975 b 4 957 3 964 3 961 b 32 915 10 940 19 926 b 69 899 42 906 54 899 z "},"°":{"ha":214,"x_min":0,"x_max":0,"o":"m 86 1053 b 47 1032 72 1053 61 1047 b 3 921 19 1000 6 963 l 3 917 b 69 847 3 875 36 847 b 90 851 76 847 83 849 b 186 936 133 867 167 894 b 194 968 192 947 194 957 b 175 1013 194 983 188 999 b 86 1053 151 1039 122 1053 z m 156 983 l 156 976 b 149 947 156 965 153 956 b 74 879 132 914 107 892 b 64 876 71 878 67 876 b 60 878 63 876 61 876 b 57 885 57 881 57 882 b 60 894 57 888 58 892 b 76 925 64 906 69 915 b 139 990 93 950 114 972 b 147 996 140 992 144 996 b 151 994 149 996 150 996 b 156 983 156 993 154 988 z "},"±":{"ha":807,"x_min":0,"x_max":0,"o":"m 85 392 b 240 413 139 393 189 406 b 350 424 276 417 313 422 b 368 417 364 424 368 424 b 365 404 368 414 367 410 b 350 356 361 388 356 372 b 299 158 332 290 311 225 b 297 139 297 151 297 144 l 297 131 b 329 104 299 118 315 104 b 344 126 344 104 343 117 b 449 415 372 225 411 321 b 474 432 454 426 461 432 b 604 438 517 435 561 438 b 644 436 618 438 631 436 b 772 418 688 433 732 433 b 781 417 775 417 778 417 b 790 426 786 417 790 419 b 789 433 790 428 790 431 b 763 460 786 447 775 454 b 653 482 728 475 690 478 b 506 488 604 488 556 488 b 488 492 492 488 488 488 b 493 507 488 494 489 499 b 524 571 504 528 515 549 b 528 592 526 578 528 586 b 513 629 528 606 522 617 b 475 654 503 640 490 649 b 460 657 469 656 464 657 b 440 640 453 657 447 653 b 428 610 436 631 432 621 b 396 506 417 575 406 540 b 372 486 392 493 386 486 b 189 479 311 485 250 481 b 83 468 153 478 118 475 b 18 450 61 465 39 460 b 3 435 8 446 3 442 b 8 419 3 431 6 426 b 49 392 18 404 31 394 b 67 390 56 392 61 390 b 85 392 74 390 79 392 z m 565 19 l 639 19 b 656 32 650 19 656 24 b 653 43 656 35 654 39 b 624 61 647 54 636 60 b 513 68 586 65 550 68 l 490 68 b 404 65 463 67 433 67 b 306 60 372 64 339 63 b 124 49 246 57 185 51 b 43 39 97 47 71 44 b 17 31 35 38 25 35 b 3 10 8 26 3 19 l 3 7 b 54 -46 3 -19 28 -46 l 57 -46 b 83 -44 65 -46 75 -46 b 365 4 176 -24 269 -7 b 565 19 432 11 497 19 z "},"²":{"ha":244,"x_min":0,"x_max":0,"o":"m 71 864 b 67 854 69 861 68 857 l 67 849 b 90 818 69 828 78 818 b 113 825 97 818 104 819 b 140 835 121 829 129 835 b 133 819 140 826 136 824 b 92 771 121 803 107 786 b 17 700 68 747 42 724 b 4 679 8 693 4 686 b 14 658 4 674 7 667 b 71 631 29 640 49 632 b 192 621 111 626 151 624 l 204 621 b 214 629 211 622 214 625 b 213 636 214 632 214 633 b 188 653 207 646 197 650 b 131 663 168 656 150 658 b 82 671 115 665 97 664 b 92 682 83 678 88 679 b 181 753 122 706 153 726 b 217 799 196 765 208 781 b 224 828 221 808 224 818 b 203 876 224 846 215 861 b 157 900 190 893 175 900 b 135 897 150 900 142 900 b 71 864 111 890 90 878 z "},"³":{"ha":207,"x_min":0,"x_max":0,"o":"m 107 764 b 122 781 108 772 117 775 b 171 824 139 794 157 807 b 185 860 181 835 185 847 b 161 904 185 876 176 892 b 144 910 157 907 151 910 l 140 910 b 88 900 122 908 104 906 b 64 876 71 894 64 888 b 71 854 64 869 65 863 b 83 839 75 849 83 846 l 83 838 b 69 818 83 829 74 825 l 68 817 b 54 783 58 806 54 794 b 78 740 54 769 61 756 b 106 724 85 732 96 729 b 115 715 113 721 115 718 b 108 706 115 713 114 710 b 71 675 96 694 83 685 b 13 636 51 661 33 649 b 1 622 7 633 1 631 l 1 619 b 22 603 4 611 13 603 b 39 606 28 603 33 603 b 158 667 81 622 119 643 b 175 692 169 674 175 682 b 171 708 175 697 174 703 b 133 750 165 728 151 740 b 107 764 125 754 114 757 z "},"´":{"ha":286,"x_min":0,"x_max":0,"o":"m 76 864 b 103 872 86 864 94 867 b 238 960 147 900 194 928 b 265 983 247 967 257 975 b 271 996 268 988 271 992 b 269 1001 271 997 271 1000 b 229 1028 265 1014 247 1028 b 215 1024 225 1028 219 1026 b 22 932 154 988 89 957 l 14 928 b 3 917 7 925 3 921 b 7 906 3 914 4 910 b 76 864 24 882 47 869 z "},"µ":{"ha":371,"x_min":0,"x_max":0,"o":"m 76 510 b 72 508 75 510 74 510 b 63 501 68 507 64 504 l 51 490 b 0 415 32 467 15 442 l -19 382 b -53 319 -31 361 -42 340 b -61 304 -56 314 -58 308 b -71 275 -67 294 -69 285 b -65 261 -72 268 -69 264 l -64 261 b -31 269 -50 254 -39 257 l -29 269 l -21 292 b 24 392 -8 325 7 360 b 17 351 21 379 18 365 b 15 336 17 346 17 340 b 14 310 14 326 14 318 b 15 290 14 303 14 297 b 47 260 22 269 32 260 b 72 269 56 260 64 263 b 90 289 79 275 85 282 b 103 304 94 293 99 299 b 165 378 122 328 143 351 b 156 331 161 360 158 343 b 153 315 154 325 154 319 b 150 282 151 304 150 293 b 151 265 150 276 150 271 b 183 233 156 244 165 233 b 194 235 188 233 190 233 b 217 246 203 236 210 240 l 226 256 b 247 276 233 263 240 269 b 279 308 258 286 269 297 b 386 404 313 343 349 375 b 392 408 389 406 390 407 b 393 414 393 410 393 413 l 393 417 b 385 419 390 418 388 419 b 371 414 379 419 375 418 b 360 407 367 411 364 408 l 340 393 b 261 325 314 372 288 349 b 217 285 246 311 232 297 l 214 282 b 210 279 213 281 211 281 b 204 278 208 278 206 278 l 201 278 b 200 283 200 279 200 282 b 203 293 200 286 201 289 b 204 299 204 294 204 297 b 244 406 215 335 229 371 b 264 456 253 421 260 438 b 265 463 265 458 265 461 b 239 497 265 478 257 490 b 228 500 235 499 232 500 b 207 481 221 500 214 493 l 196 461 b 179 433 192 451 186 442 b 132 376 164 414 147 394 b 83 318 115 357 99 338 l 82 317 b 76 308 81 314 78 311 b 65 301 74 306 69 303 l 65 306 b 69 319 65 311 67 315 b 71 324 69 321 69 322 b 103 392 79 347 90 369 b 115 413 107 399 111 406 b 138 453 122 425 129 439 b 142 468 140 457 142 463 b 140 478 142 471 142 474 b 86 510 128 499 110 508 z "},"¶":{"ha":1407,"x_min":0,"x_max":0,"o":"m 979 356 l 979 361 b 1071 529 1010 417 1040 474 b 1086 543 1074 536 1079 540 b 1201 599 1128 554 1165 576 b 1350 724 1257 633 1308 674 b 1392 821 1374 750 1392 782 l 1392 825 b 1347 932 1390 865 1374 901 b 1168 1022 1300 985 1238 1011 b 1081 1028 1139 1026 1110 1028 b 936 1015 1033 1028 985 1024 b 685 947 850 1000 767 976 b 196 675 507 881 343 793 b 40 506 135 626 81 572 b 8 429 25 482 14 457 b 6 403 7 421 6 411 b 33 336 6 378 15 356 b 113 285 56 313 82 296 b 239 263 153 271 196 265 l 272 263 b 351 264 299 263 325 263 b 518 275 407 265 463 271 b 618 285 551 279 585 282 l 624 285 b 631 281 628 285 631 283 b 628 271 631 278 629 275 b 625 261 628 268 626 264 b 557 65 601 196 578 131 b 521 -58 543 25 531 -17 b 518 -74 519 -64 518 -68 b 521 -82 518 -76 518 -79 b 551 -97 528 -92 539 -97 l 556 -97 b 575 -76 569 -97 571 -86 b 713 278 614 44 664 161 b 738 297 717 290 725 296 b 843 311 774 303 808 307 b 851 313 846 311 849 313 b 860 306 857 313 860 310 b 856 293 860 303 858 299 b 821 218 844 268 833 243 b 703 -58 779 126 739 35 b 675 -149 692 -89 682 -118 b 674 -157 674 -151 674 -154 b 696 -179 674 -168 681 -175 b 706 -181 700 -181 703 -181 b 725 -164 715 -181 721 -175 b 739 -129 731 -153 733 -140 b 939 289 797 14 871 150 b 1010 339 956 321 975 335 b 1108 363 1043 343 1076 354 b 1119 371 1114 363 1119 365 b 1106 381 1118 379 1113 379 b 1082 376 1097 381 1090 378 b 979 356 1049 368 1014 360 z m 868 890 l 868 888 b 863 871 868 881 865 875 b 651 333 792 692 718 514 b 618 310 646 317 636 311 b 388 293 542 303 465 297 b 321 292 365 292 343 292 b 163 306 268 292 215 294 b 110 321 144 310 128 314 b 78 369 89 332 78 347 l 78 374 b 104 451 78 403 89 428 b 197 561 129 493 161 529 b 542 779 300 653 418 722 b 839 885 638 825 736 860 b 864 890 847 888 854 890 z m 1104 924 l 1115 924 b 1160 922 1129 924 1144 924 b 1171 918 1168 922 1171 921 b 1168 910 1171 915 1169 914 b 1132 854 1156 890 1144 872 b 1031 654 1094 790 1063 722 b 886 356 982 556 932 457 b 861 336 881 344 874 338 b 754 324 825 332 790 328 b 744 322 750 324 747 322 b 736 328 739 322 736 324 b 740 342 736 331 738 336 b 946 771 803 488 868 632 b 986 854 961 797 975 825 b 996 894 992 867 996 881 b 1019 918 997 914 1000 917 b 1104 924 1047 919 1075 924 z m 1122 610 b 1131 629 1122 619 1126 624 l 1222 771 b 1285 885 1246 807 1268 844 b 1294 896 1288 892 1290 896 b 1306 892 1297 896 1300 894 b 1325 868 1319 885 1325 881 b 1324 858 1325 865 1324 863 b 1304 801 1321 838 1314 819 b 1175 647 1272 740 1226 692 b 1122 610 1158 635 1143 621 z "},"·":{"ha":146,"x_min":0,"x_max":0,"o":"m 54 478 b 28 469 46 476 36 475 b 7 438 14 461 7 450 b 14 415 7 431 8 424 b 25 393 18 408 21 401 b 69 364 33 375 51 364 b 82 365 74 364 78 364 b 129 422 107 374 129 401 l 129 426 b 119 446 128 433 125 440 b 54 478 103 467 81 475 z "},"∙":{"ha":146,"x_min":0,"x_max":0,"o":"m 54 478 b 28 469 46 476 36 475 b 7 438 14 461 7 450 b 14 415 7 431 8 424 b 25 393 18 408 21 401 b 69 364 33 375 51 364 b 82 365 74 364 78 364 b 129 422 107 374 129 401 l 129 426 b 119 446 128 433 125 440 b 54 478 103 467 81 475 z "},"¸":{"ha":307,"x_min":0,"x_max":0,"o":"m 1 -87 l 1 -90 b 63 -149 1 -122 31 -149 b 74 -147 67 -149 69 -147 b 151 -107 104 -140 128 -125 b 282 69 210 -58 250 3 b 286 89 285 76 286 82 b 258 128 286 104 276 118 b 238 135 250 132 243 135 b 211 117 228 135 219 129 b 188 75 201 104 193 90 b 149 38 181 54 168 44 b 53 -6 115 25 82 13 b 1 -87 21 -25 4 -51 z m 151 13 b 156 6 154 10 156 8 l 156 4 b 106 -87 140 -28 126 -60 b 68 -118 96 -101 83 -111 b 51 -122 61 -121 56 -122 b 38 -99 42 -122 38 -115 l 38 -94 b 58 -47 38 -76 46 -60 b 151 13 85 -21 117 -1 z "},"¹":{"ha":174,"x_min":0,"x_max":0,"o":"m 160 864 b 128 904 157 883 146 897 b 111 908 121 907 115 908 b 89 892 101 908 96 903 b 75 864 83 883 79 874 b 15 694 54 808 32 753 b 3 642 10 678 6 660 l 3 635 b 19 607 3 621 8 611 b 29 604 24 606 26 604 b 38 614 33 604 36 607 b 83 732 46 656 65 694 b 156 854 103 776 128 817 b 160 864 157 857 158 861 z "},"º":{"ha":207,"x_min":0,"x_max":0,"o":"m 193 774 b 154 833 192 799 178 822 b 122 853 143 839 132 844 b 96 864 113 860 104 864 b 65 846 85 864 75 858 b 1 701 31 803 10 756 l 1 696 b 14 663 1 683 6 672 b 61 638 28 646 43 638 b 94 647 72 638 83 640 b 178 726 131 665 158 692 b 193 774 188 740 192 757 z m 68 693 b 75 717 68 703 72 710 b 115 790 86 742 101 767 b 125 801 118 794 121 799 b 133 804 128 804 131 804 b 142 803 136 804 139 804 b 146 796 144 801 146 799 b 144 790 146 794 144 792 b 68 693 140 760 101 708 z "},"»":{"ha":639,"x_min":0,"x_max":0,"o":"m 254 215 l 254 213 b 310 161 254 186 283 161 b 321 163 314 161 317 161 b 356 175 333 165 344 169 b 528 269 415 201 472 235 b 596 317 551 283 575 299 b 619 358 613 329 619 342 b 614 385 619 365 618 375 b 551 467 601 418 578 444 b 374 615 492 517 431 563 b 364 622 371 618 367 621 b 356 625 361 624 358 625 b 349 622 353 625 351 625 b 346 617 347 621 346 618 b 349 608 346 614 347 611 b 363 589 351 601 357 594 b 440 515 388 564 414 539 b 547 414 476 482 514 450 b 557 397 554 407 557 403 b 547 382 557 393 554 389 b 503 350 535 368 518 360 b 376 289 461 328 419 308 b 268 233 339 272 303 254 b 254 215 261 229 254 225 z m 1 215 l 1 213 b 57 161 1 186 31 161 b 68 163 61 161 64 161 b 103 175 81 165 92 169 b 275 269 163 201 219 235 b 343 317 299 283 322 299 b 367 358 360 329 367 342 b 361 385 367 365 365 375 b 299 467 349 418 325 444 b 121 615 239 517 178 563 b 111 622 118 618 114 621 b 103 625 108 624 106 625 b 96 622 100 625 99 625 b 93 617 94 621 93 618 b 96 608 93 614 94 611 b 110 589 99 601 104 594 b 188 515 135 564 161 539 b 294 414 224 482 261 450 b 304 397 301 407 304 403 b 294 382 304 393 301 389 b 250 350 282 368 265 360 b 124 289 208 328 167 308 b 15 233 86 272 50 254 b 1 215 8 229 1 225 z "},"¼":{"ha":868,"x_min":0,"x_max":0,"o":"m 542 904 l 543 903 b 538 892 542 899 539 896 b 425 696 496 829 458 763 b 207 261 351 551 276 407 b 53 -74 153 150 99 40 b 22 -164 40 -103 29 -132 b 21 -179 21 -169 21 -174 l 21 -185 b 49 -206 22 -197 35 -204 b 67 -187 61 -206 65 -199 b 85 -133 71 -169 78 -151 b 161 29 108 -78 135 -25 b 357 406 224 157 290 282 b 546 724 417 514 478 619 b 676 932 590 792 635 861 b 708 999 689 953 700 975 b 711 1014 710 1004 711 1008 b 696 1050 711 1026 706 1039 b 676 1063 689 1058 683 1063 b 657 1050 671 1063 664 1058 b 529 931 617 1008 572 969 b 186 628 417 828 303 726 b 78 543 151 599 115 568 b 68 538 75 542 72 538 b 64 540 67 538 65 539 b 61 546 63 542 61 543 b 63 553 61 547 63 550 b 65 563 63 556 64 560 b 94 640 72 590 83 615 b 235 879 133 725 183 803 b 279 950 251 901 267 925 b 288 978 285 961 288 969 b 265 1014 288 990 281 1001 b 239 1029 257 1021 249 1025 b 215 1033 231 1032 222 1033 b 175 1013 200 1033 186 1028 l 158 992 b 89 869 129 954 110 913 b 4 607 50 786 18 700 b 1 574 3 596 1 585 b 4 546 1 565 3 556 b 56 503 10 518 31 503 b 83 510 64 503 74 504 b 125 538 99 517 111 528 b 294 686 183 585 239 636 b 476 850 356 740 415 796 b 542 904 497 868 519 886 z m 592 264 b 586 244 592 254 589 250 b 532 132 568 207 549 169 b 479 4 513 90 493 49 b 469 -32 475 -8 472 -19 l 469 -37 b 500 -74 469 -56 482 -71 l 506 -74 b 518 -62 513 -74 517 -71 b 550 21 524 -32 536 -6 b 774 392 615 150 688 275 b 843 493 799 424 821 458 b 851 511 847 499 851 504 b 850 519 851 514 851 517 b 797 557 843 543 819 557 b 764 544 786 557 774 553 b 735 515 753 536 743 525 b 683 436 715 490 697 464 l 629 328 b 601 311 624 315 615 311 l 582 311 b 521 307 561 311 540 310 b 471 304 504 306 488 306 b 479 317 472 311 476 313 b 618 444 524 361 571 403 b 635 458 624 449 629 454 b 640 472 639 463 640 468 b 639 481 640 475 640 478 b 585 529 628 506 610 521 b 569 532 579 531 575 532 b 532 513 556 532 543 524 b 381 357 478 465 428 413 b 346 314 368 343 356 329 b 339 293 342 306 339 299 b 349 272 339 286 342 281 b 429 229 371 247 397 229 b 456 233 438 229 446 231 b 479 240 463 236 471 238 b 592 264 515 250 553 258 z "},"½":{"ha":633,"x_min":0,"x_max":0,"o":"m 81 646 l 78 646 b 93 679 83 657 88 669 b 133 756 106 706 119 731 b 231 925 165 813 199 868 b 243 960 239 939 243 950 b 217 999 243 972 235 983 b 192 1015 210 1006 200 1011 b 161 1024 178 1021 169 1024 b 126 994 147 1024 139 1015 b 122 989 125 993 124 990 b 7 693 71 896 31 797 b 1 642 4 676 1 658 l 1 631 b 56 583 1 607 29 583 b 81 592 65 583 74 585 b 118 622 93 603 107 611 b 238 733 158 658 197 696 b 447 925 306 799 375 864 b 458 932 451 928 454 932 l 461 932 b 446 901 456 921 451 911 b 368 743 417 850 393 797 b 239 460 326 649 283 554 b 72 92 181 339 124 217 b 33 -22 57 54 42 17 l 33 -28 b 53 -51 33 -40 40 -47 b 61 -53 56 -51 58 -53 b 79 -36 71 -53 75 -49 b 168 163 104 32 136 97 b 308 439 214 256 260 347 b 438 676 350 518 392 599 b 540 865 474 738 510 800 b 576 964 556 897 569 929 b 578 982 578 971 578 976 b 557 1032 578 1001 572 1018 b 532 1047 547 1042 539 1047 b 506 1033 524 1047 515 1042 b 419 950 476 1006 447 978 b 194 736 346 876 271 806 b 97 654 164 707 131 679 b 81 646 92 650 89 646 z m 460 367 b 447 333 460 351 453 343 b 314 163 411 271 367 214 b 253 103 293 143 272 124 b 242 83 246 96 242 89 b 250 64 242 76 244 71 b 311 32 267 42 288 32 b 329 33 317 32 324 32 b 542 56 400 44 471 51 b 576 57 553 56 564 57 b 603 54 585 57 594 56 l 608 54 b 618 60 613 54 617 54 l 618 63 b 611 75 618 68 615 71 b 588 88 606 82 597 85 b 531 94 569 92 550 94 l 518 94 b 367 88 468 93 418 93 l 357 88 b 346 89 353 88 350 88 b 354 100 346 96 350 97 b 426 164 378 121 403 142 b 540 296 471 201 510 246 b 563 346 550 313 558 329 b 565 367 564 353 565 360 b 561 390 565 374 564 382 b 497 461 550 422 529 446 b 469 467 488 465 479 467 b 444 461 461 467 453 465 b 349 386 406 446 374 419 b 336 354 340 375 336 364 b 356 315 336 340 343 326 b 372 306 363 308 367 306 b 389 318 378 306 383 310 b 460 367 407 342 431 354 z "},"¾":{"ha":867,"x_min":0,"x_max":0,"o":"m 668 967 b 660 950 668 958 663 954 b 490 683 596 865 540 776 b 249 239 410 535 326 389 b 131 -8 207 158 165 76 b 115 -61 125 -26 118 -43 l 115 -68 b 138 -97 115 -82 124 -93 b 146 -99 140 -97 143 -99 b 158 -85 153 -99 157 -94 b 190 -1 164 -56 178 -28 b 371 328 246 111 307 219 b 608 706 446 457 524 583 b 732 903 653 769 697 833 b 756 971 742 925 751 947 b 757 982 756 975 757 979 b 740 1024 757 999 751 1013 b 724 1035 733 1031 729 1035 b 710 1031 719 1035 715 1033 b 689 1018 701 1026 694 1022 b 364 792 576 947 469 872 b 289 735 339 774 314 753 b 275 726 282 729 278 726 b 261 733 271 726 268 729 b 232 753 251 740 242 746 b 199 769 221 760 208 761 b 219 792 203 781 213 786 b 306 885 251 819 282 850 b 322 936 317 901 322 919 b 313 979 322 950 319 964 b 231 1036 296 1013 264 1036 b 221 1035 228 1036 224 1035 b 79 982 169 1028 122 1011 b 47 951 67 972 56 963 b 39 929 42 944 39 938 b 42 915 39 925 40 921 b 72 881 47 900 57 888 b 85 876 78 878 81 876 b 100 886 90 876 94 879 b 122 904 107 893 114 899 b 206 939 149 919 175 932 b 214 942 208 940 211 942 b 219 939 215 942 217 942 b 206 919 217 931 211 925 b 146 854 186 897 167 875 b 92 794 128 835 110 814 b 82 772 85 788 82 781 b 86 756 82 768 83 761 b 139 718 99 728 115 718 l 154 718 b 226 703 179 718 203 714 b 236 692 231 700 236 699 l 228 683 b 67 533 172 636 117 586 b 17 464 47 513 29 490 b 8 436 11 454 8 444 b 40 397 8 419 19 407 b 63 392 47 394 54 393 b 122 399 83 392 103 393 b 253 469 171 414 214 438 b 308 540 276 489 294 513 b 325 608 319 563 325 586 b 311 669 325 629 321 649 b 294 700 307 681 294 689 b 296 706 294 703 296 704 b 325 733 300 718 315 725 b 644 956 426 815 531 892 b 668 967 651 960 658 965 z m 267 657 b 251 603 264 638 260 619 b 156 488 229 557 194 519 b 74 436 131 467 103 450 b 57 431 68 435 63 432 l 54 431 b 49 438 50 431 49 433 l 49 442 b 61 469 51 451 57 461 b 124 549 79 499 101 524 b 246 667 163 590 203 629 b 249 669 247 667 247 668 b 258 674 253 672 256 674 b 265 664 261 674 264 671 b 267 657 267 661 267 658 z m 519 242 b 524 249 522 246 522 249 b 586 301 544 267 565 283 b 651 357 608 319 631 338 b 664 376 660 364 664 369 b 658 396 664 382 663 388 b 640 418 654 404 649 411 b 610 432 628 428 618 432 b 579 417 600 432 592 428 b 496 338 549 393 524 364 b 438 275 475 318 456 297 b 426 250 431 265 426 258 b 436 228 426 243 429 236 b 515 183 456 197 482 183 l 525 183 b 613 190 554 186 583 189 b 625 185 621 190 625 189 l 622 176 b 618 165 621 172 619 169 b 561 29 597 119 578 75 b 540 -37 553 7 544 -15 b 539 -46 539 -40 539 -43 b 561 -71 539 -58 547 -68 b 567 -72 564 -71 565 -72 b 583 -53 574 -72 578 -67 b 690 171 615 24 653 97 b 710 196 696 181 700 190 b 717 207 714 199 717 203 b 715 213 717 208 715 211 b 724 232 715 219 721 225 b 778 322 742 263 758 293 b 842 435 801 358 824 396 b 846 457 844 442 846 450 b 818 496 846 474 838 488 b 801 500 811 499 806 500 b 781 490 794 500 788 497 b 751 451 769 479 760 465 b 699 349 729 419 715 383 b 656 251 685 315 671 283 b 638 236 653 243 649 236 l 604 236 b 519 242 576 236 549 236 z "},"¿":{"ha":689,"x_min":0,"x_max":0,"o":"m 167 -543 b 83 -529 139 -543 110 -542 b 67 -517 71 -525 67 -522 b 72 -500 67 -512 68 -507 b 131 -415 89 -471 110 -443 b 311 -208 188 -343 250 -276 b 432 -58 356 -161 397 -111 b 543 117 471 -1 508 57 b 596 219 563 150 582 183 b 604 258 600 233 604 244 l 604 265 b 589 293 604 276 599 286 b 581 296 586 294 583 296 b 571 286 576 296 572 293 b 546 224 568 263 557 243 b 393 7 500 147 450 75 b 226 -172 340 -56 283 -114 b 113 -292 189 -211 150 -250 b 36 -394 85 -324 57 -357 b 6 -497 18 -428 6 -461 b 8 -525 6 -507 7 -515 b 111 -643 17 -574 51 -631 b 161 -649 128 -646 143 -649 l 174 -649 b 300 -631 217 -649 258 -642 b 560 -503 394 -606 483 -567 b 633 -403 592 -475 618 -443 b 643 -361 639 -387 643 -374 b 606 -292 643 -333 629 -311 b 581 -281 599 -285 590 -281 b 571 -282 578 -281 575 -281 b 561 -292 565 -283 561 -287 b 564 -299 561 -294 563 -296 b 569 -311 568 -303 569 -307 b 563 -331 569 -318 565 -325 b 546 -356 557 -339 551 -349 b 429 -460 514 -399 474 -432 b 167 -543 349 -510 263 -540 z m 675 414 b 654 464 675 439 669 451 b 635 475 649 469 642 475 b 622 469 631 475 626 474 b 607 465 618 465 613 467 b 571 417 585 460 571 439 b 585 383 571 406 575 393 b 633 358 599 369 614 361 l 640 358 b 672 385 656 358 667 368 b 675 414 674 394 674 404 z "},"À":{"ha":1796,"x_min":0,"x_max":0,"o":"m 1244 361 b 1246 357 1244 360 1246 358 b 1240 344 1246 353 1243 349 b 1157 165 1213 285 1183 225 b 1053 -110 1118 75 1081 -15 b 1031 -226 1042 -149 1032 -186 l 1031 -229 b 1085 -286 1031 -262 1054 -286 b 1114 -279 1094 -286 1104 -283 b 1157 -246 1131 -271 1144 -258 b 1332 -24 1228 -181 1283 -106 b 1394 125 1360 24 1382 72 b 1403 197 1400 150 1403 174 b 1360 338 1403 246 1390 293 b 1356 353 1357 342 1356 347 b 1374 381 1356 365 1363 376 b 1394 386 1381 383 1388 385 b 1503 401 1431 390 1467 396 b 1694 425 1567 410 1631 418 b 1822 439 1738 431 1779 435 b 1839 450 1829 440 1838 440 l 1839 451 b 1821 467 1839 458 1831 465 b 1797 465 1814 467 1806 467 b 1640 450 1744 460 1693 456 b 1407 421 1563 442 1485 432 b 1399 419 1404 419 1401 419 b 1392 422 1397 419 1394 419 b 1400 442 1393 429 1397 436 b 1558 718 1453 533 1506 626 b 1688 954 1603 796 1649 872 b 1706 1006 1694 971 1701 988 b 1707 1022 1707 1011 1707 1017 b 1671 1089 1707 1047 1694 1074 b 1654 1094 1665 1093 1660 1094 b 1639 1090 1649 1094 1644 1093 b 1607 1067 1628 1082 1617 1075 b 1293 778 1497 976 1396 876 b 1035 521 1206 693 1121 607 b 1004 507 1026 513 1017 507 l 1000 507 b 881 515 960 513 921 515 b 729 506 831 515 779 511 b 336 410 594 489 464 456 b 64 285 242 375 150 336 b 19 251 49 275 33 264 b 6 225 10 243 6 233 b 19 199 6 217 10 208 b 56 179 29 189 42 183 b 94 175 68 176 82 175 b 297 199 164 176 231 188 b 767 283 454 226 610 256 b 796 289 776 286 786 289 b 806 288 799 289 803 288 b 799 276 804 282 801 279 l 661 131 b 514 -24 613 79 563 28 b 300 -235 444 -97 374 -168 b 235 -281 281 -253 261 -271 b 226 -289 229 -282 226 -285 b 235 -300 226 -292 229 -296 b 274 -314 247 -310 260 -314 b 299 -310 282 -314 290 -312 b 347 -282 317 -303 332 -293 b 431 -211 376 -261 404 -237 b 626 -3 499 -144 561 -74 b 776 163 676 51 726 107 b 897 293 817 207 857 250 b 931 311 906 304 917 310 b 1160 349 1007 324 1083 338 b 1244 361 1189 354 1217 360 z m 64 218 b 75 233 65 228 71 231 b 146 281 96 253 121 267 b 446 399 242 332 343 368 b 724 456 538 425 629 444 b 885 465 776 463 831 465 b 938 464 901 465 919 465 b 958 463 944 464 951 463 b 968 458 961 461 965 461 l 968 457 b 964 449 968 453 965 451 b 871 353 933 417 901 385 b 840 336 863 343 853 338 b 438 269 707 314 572 292 b 181 228 351 256 267 242 b 86 217 149 222 118 217 b 78 215 83 217 81 215 b 64 218 74 215 69 217 z m 1583 964 b 1585 958 1583 963 1585 960 b 1578 943 1585 951 1581 947 b 1349 551 1500 814 1422 683 b 1285 431 1326 511 1306 471 b 1274 422 1281 425 1278 422 b 1265 425 1271 422 1268 424 b 1096 492 1213 458 1156 478 b 1088 496 1094 493 1093 494 b 1583 964 1249 658 1407 821 z m 1092 -232 b 1089 -222 1090 -229 1089 -225 b 1092 -210 1089 -218 1090 -214 b 1151 -43 1106 -153 1128 -97 b 1325 304 1203 76 1264 190 b 1326 307 1325 306 1325 306 b 1336 318 1331 314 1333 318 b 1344 307 1339 318 1342 314 b 1364 240 1357 286 1363 264 l 1364 224 b 1349 135 1364 194 1358 164 b 1242 -68 1326 60 1288 -6 b 1114 -217 1204 -122 1163 -172 b 1097 -231 1110 -221 1104 -226 b 1092 -232 1096 -232 1093 -232 z m 1236 397 b 960 356 1143 383 1054 368 b 979 381 965 369 972 375 b 1036 442 997 401 1017 421 b 1058 451 1042 449 1050 451 l 1064 451 b 1229 403 1121 442 1176 426 b 1236 397 1231 401 1232 400 z m 1746 1178 b 1815 1219 1775 1183 1799 1196 b 1819 1231 1818 1224 1819 1228 b 1808 1242 1819 1235 1815 1239 l 1800 1246 b 1607 1338 1733 1271 1668 1301 b 1593 1342 1603 1340 1597 1342 b 1553 1315 1575 1342 1557 1328 b 1551 1310 1551 1314 1551 1311 b 1557 1297 1551 1306 1554 1301 b 1585 1274 1565 1289 1575 1281 b 1719 1186 1628 1242 1675 1214 b 1746 1178 1728 1181 1736 1178 z "},"Á":{"ha":1796,"x_min":0,"x_max":0,"o":"m 1244 361 b 1246 357 1244 360 1246 358 b 1240 344 1246 353 1243 349 b 1157 165 1213 285 1183 225 b 1053 -110 1118 75 1081 -15 b 1031 -226 1042 -149 1032 -186 l 1031 -229 b 1085 -286 1031 -262 1054 -286 b 1114 -279 1094 -286 1104 -283 b 1157 -246 1131 -271 1144 -258 b 1332 -24 1228 -181 1283 -106 b 1394 125 1360 24 1382 72 b 1403 197 1400 150 1403 174 b 1360 338 1403 246 1390 293 b 1356 353 1357 342 1356 347 b 1374 381 1356 365 1363 376 b 1394 386 1381 383 1388 385 b 1503 401 1431 390 1467 396 b 1694 425 1567 410 1631 418 b 1822 439 1738 431 1779 435 b 1839 450 1829 440 1838 440 l 1839 451 b 1821 467 1839 458 1831 465 b 1797 465 1814 467 1806 467 b 1640 450 1744 460 1693 456 b 1407 421 1563 442 1485 432 b 1399 419 1404 419 1401 419 b 1392 422 1397 419 1394 419 b 1400 442 1393 429 1397 436 b 1558 718 1453 533 1506 626 b 1688 954 1603 796 1649 872 b 1706 1006 1694 971 1701 988 b 1707 1022 1707 1011 1707 1017 b 1671 1089 1707 1047 1694 1074 b 1654 1094 1665 1093 1660 1094 b 1639 1090 1649 1094 1644 1093 b 1607 1067 1628 1082 1617 1075 b 1293 778 1497 976 1396 876 b 1035 521 1206 693 1121 607 b 1004 507 1026 513 1017 507 l 1000 507 b 881 515 960 513 921 515 b 729 506 831 515 779 511 b 336 410 594 489 464 456 b 64 285 242 375 150 336 b 19 251 49 275 33 264 b 6 225 10 243 6 233 b 19 199 6 217 10 208 b 56 179 29 189 42 183 b 94 175 68 176 82 175 b 297 199 164 176 231 188 b 767 283 454 226 610 256 b 796 289 776 286 786 289 b 806 288 799 289 803 288 b 799 276 804 282 801 279 l 661 131 b 514 -24 613 79 563 28 b 300 -235 444 -97 374 -168 b 235 -281 281 -253 261 -271 b 226 -289 229 -282 226 -285 b 235 -300 226 -292 229 -296 b 274 -314 247 -310 260 -314 b 299 -310 282 -314 290 -312 b 347 -282 317 -303 332 -293 b 431 -211 376 -261 404 -237 b 626 -3 499 -144 561 -74 b 776 163 676 51 726 107 b 897 293 817 207 857 250 b 931 311 906 304 917 310 b 1160 349 1007 324 1083 338 b 1244 361 1189 354 1217 360 z m 64 218 b 75 233 65 228 71 231 b 146 281 96 253 121 267 b 446 399 242 332 343 368 b 724 456 538 425 629 444 b 885 465 776 463 831 465 b 938 464 901 465 919 465 b 958 463 944 464 951 463 b 968 458 961 461 965 461 l 968 457 b 964 449 968 453 965 451 b 871 353 933 417 901 385 b 840 336 863 343 853 338 b 438 269 707 314 572 292 b 181 228 351 256 267 242 b 86 217 149 222 118 217 b 78 215 83 217 81 215 b 64 218 74 215 69 217 z m 1583 964 b 1585 958 1583 963 1585 960 b 1578 943 1585 951 1581 947 b 1349 551 1500 814 1422 683 b 1285 431 1326 511 1306 471 b 1274 422 1281 425 1278 422 b 1265 425 1271 422 1268 424 b 1096 492 1213 458 1156 478 b 1088 496 1094 493 1093 494 b 1583 964 1249 658 1407 821 z m 1092 -232 b 1089 -222 1090 -229 1089 -225 b 1092 -210 1089 -218 1090 -214 b 1151 -43 1106 -153 1128 -97 b 1325 304 1203 76 1264 190 b 1326 307 1325 306 1325 306 b 1336 318 1331 314 1333 318 b 1344 307 1339 318 1342 314 b 1364 240 1357 286 1363 264 l 1364 224 b 1349 135 1364 194 1358 164 b 1242 -68 1326 60 1288 -6 b 1114 -217 1204 -122 1163 -172 b 1097 -231 1110 -221 1104 -226 b 1092 -232 1096 -232 1093 -232 z m 1236 397 b 960 356 1143 383 1054 368 b 979 381 965 369 972 375 b 1036 442 997 401 1017 421 b 1058 451 1042 449 1050 451 l 1064 451 b 1229 403 1121 442 1176 426 b 1236 397 1231 401 1232 400 z m 1708 1190 b 1735 1199 1718 1190 1726 1193 b 1869 1286 1779 1226 1826 1254 b 1897 1310 1879 1293 1889 1301 b 1903 1322 1900 1314 1903 1318 b 1901 1328 1903 1324 1903 1326 b 1861 1354 1897 1340 1879 1354 b 1847 1350 1857 1354 1851 1353 b 1654 1258 1786 1314 1721 1283 l 1646 1254 b 1635 1243 1639 1251 1635 1247 b 1639 1232 1635 1240 1636 1236 b 1708 1190 1656 1208 1679 1196 z "},"Â":{"ha":1796,"x_min":0,"x_max":0,"o":"m 1244 361 b 1246 357 1244 360 1246 358 b 1240 344 1246 353 1243 349 b 1157 165 1213 285 1183 225 b 1053 -110 1118 75 1081 -15 b 1031 -226 1042 -149 1032 -186 l 1031 -229 b 1085 -286 1031 -262 1054 -286 b 1114 -279 1094 -286 1104 -283 b 1157 -246 1131 -271 1144 -258 b 1332 -24 1228 -181 1283 -106 b 1394 125 1360 24 1382 72 b 1403 197 1400 150 1403 174 b 1360 338 1403 246 1390 293 b 1356 353 1357 342 1356 347 b 1374 381 1356 365 1363 376 b 1394 386 1381 383 1388 385 b 1503 401 1431 390 1467 396 b 1694 425 1567 410 1631 418 b 1822 439 1738 431 1779 435 b 1839 450 1829 440 1838 440 l 1839 451 b 1821 467 1839 458 1831 465 b 1797 465 1814 467 1806 467 b 1640 450 1744 460 1693 456 b 1407 421 1563 442 1485 432 b 1399 419 1404 419 1401 419 b 1392 422 1397 419 1394 419 b 1400 442 1393 429 1397 436 b 1558 718 1453 533 1506 626 b 1688 954 1603 796 1649 872 b 1706 1006 1694 971 1701 988 b 1707 1022 1707 1011 1707 1017 b 1671 1089 1707 1047 1694 1074 b 1654 1094 1665 1093 1660 1094 b 1639 1090 1649 1094 1644 1093 b 1607 1067 1628 1082 1617 1075 b 1293 778 1497 976 1396 876 b 1035 521 1206 693 1121 607 b 1004 507 1026 513 1017 507 l 1000 507 b 881 515 960 513 921 515 b 729 506 831 515 779 511 b 336 410 594 489 464 456 b 64 285 242 375 150 336 b 19 251 49 275 33 264 b 6 225 10 243 6 233 b 19 199 6 217 10 208 b 56 179 29 189 42 183 b 94 175 68 176 82 175 b 297 199 164 176 231 188 b 767 283 454 226 610 256 b 796 289 776 286 786 289 b 806 288 799 289 803 288 b 799 276 804 282 801 279 l 661 131 b 514 -24 613 79 563 28 b 300 -235 444 -97 374 -168 b 235 -281 281 -253 261 -271 b 226 -289 229 -282 226 -285 b 235 -300 226 -292 229 -296 b 274 -314 247 -310 260 -314 b 299 -310 282 -314 290 -312 b 347 -282 317 -303 332 -293 b 431 -211 376 -261 404 -237 b 626 -3 499 -144 561 -74 b 776 163 676 51 726 107 b 897 293 817 207 857 250 b 931 311 906 304 917 310 b 1160 349 1007 324 1083 338 b 1244 361 1189 354 1217 360 z m 64 218 b 75 233 65 228 71 231 b 146 281 96 253 121 267 b 446 399 242 332 343 368 b 724 456 538 425 629 444 b 885 465 776 463 831 465 b 938 464 901 465 919 465 b 958 463 944 464 951 463 b 968 458 961 461 965 461 l 968 457 b 964 449 968 453 965 451 b 871 353 933 417 901 385 b 840 336 863 343 853 338 b 438 269 707 314 572 292 b 181 228 351 256 267 242 b 86 217 149 222 118 217 b 78 215 83 217 81 215 b 64 218 74 215 69 217 z m 1583 964 b 1585 958 1583 963 1585 960 b 1578 943 1585 951 1581 947 b 1349 551 1500 814 1422 683 b 1285 431 1326 511 1306 471 b 1274 422 1281 425 1278 422 b 1265 425 1271 422 1268 424 b 1096 492 1213 458 1156 478 b 1088 496 1094 493 1093 494 b 1583 964 1249 658 1407 821 z m 1092 -232 b 1089 -222 1090 -229 1089 -225 b 1092 -210 1089 -218 1090 -214 b 1151 -43 1106 -153 1128 -97 b 1325 304 1203 76 1264 190 b 1326 307 1325 306 1325 306 b 1336 318 1331 314 1333 318 b 1344 307 1339 318 1342 314 b 1364 240 1357 286 1363 264 l 1364 224 b 1349 135 1364 194 1358 164 b 1242 -68 1326 60 1288 -6 b 1114 -217 1204 -122 1163 -172 b 1097 -231 1110 -221 1104 -226 b 1092 -232 1096 -232 1093 -232 z m 1236 397 b 960 356 1143 383 1054 368 b 979 381 965 369 972 375 b 1036 442 997 401 1017 421 b 1058 451 1042 449 1050 451 l 1064 451 b 1229 403 1121 442 1176 426 b 1236 397 1231 401 1232 400 z m 1693 1318 b 1650 1299 1676 1318 1663 1308 b 1564 1207 1618 1271 1589 1240 b 1554 1183 1557 1199 1554 1190 b 1574 1157 1554 1174 1561 1165 b 1597 1149 1582 1151 1590 1149 b 1624 1163 1606 1149 1614 1153 b 1633 1172 1628 1165 1631 1169 b 1699 1238 1653 1196 1675 1218 b 1724 1253 1711 1247 1718 1253 b 1750 1236 1731 1253 1738 1247 b 1844 1165 1781 1211 1811 1186 b 1876 1151 1854 1158 1865 1153 b 1888 1161 1883 1151 1888 1156 b 1886 1167 1888 1163 1888 1164 b 1868 1185 1882 1175 1875 1181 b 1782 1264 1836 1207 1810 1235 l 1754 1292 b 1693 1318 1738 1307 1717 1317 z "},"Ã":{"ha":1796,"x_min":0,"x_max":0,"o":"m 1244 361 b 1246 357 1244 360 1246 358 b 1240 344 1246 353 1243 349 b 1157 165 1213 285 1183 225 b 1053 -110 1118 75 1081 -15 b 1031 -226 1042 -149 1032 -186 l 1031 -229 b 1085 -286 1031 -262 1054 -286 b 1114 -279 1094 -286 1104 -283 b 1157 -246 1131 -271 1144 -258 b 1332 -24 1228 -181 1283 -106 b 1394 125 1360 24 1382 72 b 1403 197 1400 150 1403 174 b 1360 338 1403 246 1390 293 b 1356 353 1357 342 1356 347 b 1374 381 1356 365 1363 376 b 1394 386 1381 383 1388 385 b 1503 401 1431 390 1467 396 b 1694 425 1567 410 1631 418 b 1822 439 1738 431 1779 435 b 1839 450 1829 440 1838 440 l 1839 451 b 1821 467 1839 458 1831 465 b 1797 465 1814 467 1806 467 b 1640 450 1744 460 1693 456 b 1407 421 1563 442 1485 432 b 1399 419 1404 419 1401 419 b 1392 422 1397 419 1394 419 b 1400 442 1393 429 1397 436 b 1558 718 1453 533 1506 626 b 1688 954 1603 796 1649 872 b 1706 1006 1694 971 1701 988 b 1707 1022 1707 1011 1707 1017 b 1671 1089 1707 1047 1694 1074 b 1654 1094 1665 1093 1660 1094 b 1639 1090 1649 1094 1644 1093 b 1607 1067 1628 1082 1617 1075 b 1293 778 1497 976 1396 876 b 1035 521 1206 693 1121 607 b 1004 507 1026 513 1017 507 l 1000 507 b 881 515 960 513 921 515 b 729 506 831 515 779 511 b 336 410 594 489 464 456 b 64 285 242 375 150 336 b 19 251 49 275 33 264 b 6 225 10 243 6 233 b 19 199 6 217 10 208 b 56 179 29 189 42 183 b 94 175 68 176 82 175 b 297 199 164 176 231 188 b 767 283 454 226 610 256 b 796 289 776 286 786 289 b 806 288 799 289 803 288 b 799 276 804 282 801 279 l 661 131 b 514 -24 613 79 563 28 b 300 -235 444 -97 374 -168 b 235 -281 281 -253 261 -271 b 226 -289 229 -282 226 -285 b 235 -300 226 -292 229 -296 b 274 -314 247 -310 260 -314 b 299 -310 282 -314 290 -312 b 347 -282 317 -303 332 -293 b 431 -211 376 -261 404 -237 b 626 -3 499 -144 561 -74 b 776 163 676 51 726 107 b 897 293 817 207 857 250 b 931 311 906 304 917 310 b 1160 349 1007 324 1083 338 b 1244 361 1189 354 1217 360 z m 64 218 b 75 233 65 228 71 231 b 146 281 96 253 121 267 b 446 399 242 332 343 368 b 724 456 538 425 629 444 b 885 465 776 463 831 465 b 938 464 901 465 919 465 b 958 463 944 464 951 463 b 968 458 961 461 965 461 l 968 457 b 964 449 968 453 965 451 b 871 353 933 417 901 385 b 840 336 863 343 853 338 b 438 269 707 314 572 292 b 181 228 351 256 267 242 b 86 217 149 222 118 217 b 78 215 83 217 81 215 b 64 218 74 215 69 217 z m 1583 964 b 1585 958 1583 963 1585 960 b 1578 943 1585 951 1581 947 b 1349 551 1500 814 1422 683 b 1285 431 1326 511 1306 471 b 1274 422 1281 425 1278 422 b 1265 425 1271 422 1268 424 b 1096 492 1213 458 1156 478 b 1088 496 1094 493 1093 494 b 1583 964 1249 658 1407 821 z m 1092 -232 b 1089 -222 1090 -229 1089 -225 b 1092 -210 1089 -218 1090 -214 b 1151 -43 1106 -153 1128 -97 b 1325 304 1203 76 1264 190 b 1326 307 1325 306 1325 306 b 1336 318 1331 314 1333 318 b 1344 307 1339 318 1342 314 b 1364 240 1357 286 1363 264 l 1364 224 b 1349 135 1364 194 1358 164 b 1242 -68 1326 60 1288 -6 b 1114 -217 1204 -122 1163 -172 b 1097 -231 1110 -221 1104 -226 b 1092 -232 1096 -232 1093 -232 z m 1236 397 b 960 356 1143 383 1054 368 b 979 381 965 369 972 375 b 1036 442 997 401 1017 421 b 1058 451 1042 449 1050 451 l 1064 451 b 1229 403 1121 442 1176 426 b 1236 397 1231 401 1232 400 z m 1793 1189 b 1831 1203 1807 1189 1822 1192 b 1881 1272 1849 1225 1864 1249 b 1885 1281 1883 1275 1885 1278 b 1879 1292 1885 1285 1882 1289 b 1864 1299 1874 1296 1869 1299 b 1854 1294 1861 1299 1857 1297 b 1828 1272 1846 1288 1836 1281 b 1799 1250 1818 1264 1810 1256 b 1768 1240 1786 1243 1776 1240 b 1733 1257 1757 1240 1746 1246 b 1675 1296 1715 1272 1696 1286 b 1631 1307 1660 1303 1644 1307 b 1532 1238 1583 1307 1546 1271 b 1528 1219 1529 1232 1528 1225 b 1538 1196 1528 1211 1531 1203 b 1557 1176 1543 1189 1550 1182 b 1582 1167 1567 1169 1574 1167 b 1608 1186 1592 1167 1600 1174 b 1624 1211 1613 1194 1618 1203 b 1656 1240 1632 1224 1643 1233 b 1675 1246 1663 1244 1669 1246 b 1699 1236 1683 1246 1690 1243 b 1742 1206 1713 1226 1726 1215 b 1793 1189 1757 1196 1774 1190 z "},"Ä":{"ha":1796,"x_min":0,"x_max":0,"o":"m 1244 361 b 1246 357 1244 360 1246 358 b 1240 344 1246 353 1243 349 b 1157 165 1213 285 1183 225 b 1053 -110 1118 75 1081 -15 b 1031 -226 1042 -149 1032 -186 l 1031 -229 b 1085 -286 1031 -262 1054 -286 b 1114 -279 1094 -286 1104 -283 b 1157 -246 1131 -271 1144 -258 b 1332 -24 1228 -181 1283 -106 b 1394 125 1360 24 1382 72 b 1403 197 1400 150 1403 174 b 1360 338 1403 246 1390 293 b 1356 353 1357 342 1356 347 b 1374 381 1356 365 1363 376 b 1394 386 1381 383 1388 385 b 1503 401 1431 390 1467 396 b 1694 425 1567 410 1631 418 b 1822 439 1738 431 1779 435 b 1839 450 1829 440 1838 440 l 1839 451 b 1821 467 1839 458 1831 465 b 1797 465 1814 467 1806 467 b 1640 450 1744 460 1693 456 b 1407 421 1563 442 1485 432 b 1399 419 1404 419 1401 419 b 1392 422 1397 419 1394 419 b 1400 442 1393 429 1397 436 b 1558 718 1453 533 1506 626 b 1688 954 1603 796 1649 872 b 1706 1006 1694 971 1701 988 b 1707 1022 1707 1011 1707 1017 b 1671 1089 1707 1047 1694 1074 b 1654 1094 1665 1093 1660 1094 b 1639 1090 1649 1094 1644 1093 b 1607 1067 1628 1082 1617 1075 b 1293 778 1497 976 1396 876 b 1035 521 1206 693 1121 607 b 1004 507 1026 513 1017 507 l 1000 507 b 881 515 960 513 921 515 b 729 506 831 515 779 511 b 336 410 594 489 464 456 b 64 285 242 375 150 336 b 19 251 49 275 33 264 b 6 225 10 243 6 233 b 19 199 6 217 10 208 b 56 179 29 189 42 183 b 94 175 68 176 82 175 b 297 199 164 176 231 188 b 767 283 454 226 610 256 b 796 289 776 286 786 289 b 806 288 799 289 803 288 b 799 276 804 282 801 279 l 661 131 b 514 -24 613 79 563 28 b 300 -235 444 -97 374 -168 b 235 -281 281 -253 261 -271 b 226 -289 229 -282 226 -285 b 235 -300 226 -292 229 -296 b 274 -314 247 -310 260 -314 b 299 -310 282 -314 290 -312 b 347 -282 317 -303 332 -293 b 431 -211 376 -261 404 -237 b 626 -3 499 -144 561 -74 b 776 163 676 51 726 107 b 897 293 817 207 857 250 b 931 311 906 304 917 310 b 1160 349 1007 324 1083 338 b 1244 361 1189 354 1217 360 z m 64 218 b 75 233 65 228 71 231 b 146 281 96 253 121 267 b 446 399 242 332 343 368 b 724 456 538 425 629 444 b 885 465 776 463 831 465 b 938 464 901 465 919 465 b 958 463 944 464 951 463 b 968 458 961 461 965 461 l 968 457 b 964 449 968 453 965 451 b 871 353 933 417 901 385 b 840 336 863 343 853 338 b 438 269 707 314 572 292 b 181 228 351 256 267 242 b 86 217 149 222 118 217 b 78 215 83 217 81 215 b 64 218 74 215 69 217 z m 1583 964 b 1585 958 1583 963 1585 960 b 1578 943 1585 951 1581 947 b 1349 551 1500 814 1422 683 b 1285 431 1326 511 1306 471 b 1274 422 1281 425 1278 422 b 1265 425 1271 422 1268 424 b 1096 492 1213 458 1156 478 b 1088 496 1094 493 1093 494 b 1583 964 1249 658 1407 821 z m 1092 -232 b 1089 -222 1090 -229 1089 -225 b 1092 -210 1089 -218 1090 -214 b 1151 -43 1106 -153 1128 -97 b 1325 304 1203 76 1264 190 b 1326 307 1325 306 1325 306 b 1336 318 1331 314 1333 318 b 1344 307 1339 318 1342 314 b 1364 240 1357 286 1363 264 l 1364 224 b 1349 135 1364 194 1358 164 b 1242 -68 1326 60 1288 -6 b 1114 -217 1204 -122 1163 -172 b 1097 -231 1110 -221 1104 -226 b 1092 -232 1096 -232 1093 -232 z m 1236 397 b 960 356 1143 383 1054 368 b 979 381 965 369 972 375 b 1036 442 997 401 1017 421 b 1058 451 1042 449 1050 451 l 1064 451 b 1229 403 1121 442 1176 426 b 1236 397 1231 401 1232 400 z m 1703 1219 b 1735 1172 1703 1197 1717 1183 b 1754 1167 1742 1168 1747 1167 b 1783 1178 1764 1167 1774 1171 b 1804 1197 1792 1183 1799 1190 b 1815 1228 1811 1207 1815 1218 b 1807 1254 1815 1238 1813 1246 b 1767 1278 1797 1269 1785 1278 b 1754 1276 1763 1278 1758 1278 b 1740 1274 1750 1275 1744 1274 b 1711 1253 1725 1274 1717 1265 b 1703 1219 1706 1243 1703 1232 z m 1572 1222 l 1572 1219 b 1596 1181 1572 1199 1581 1186 b 1615 1175 1603 1179 1608 1178 b 1625 1174 1618 1174 1622 1174 b 1679 1224 1650 1174 1679 1200 l 1679 1226 b 1672 1247 1679 1235 1676 1242 b 1643 1269 1664 1257 1654 1264 b 1621 1274 1635 1272 1628 1274 b 1578 1243 1601 1274 1586 1264 b 1572 1222 1575 1236 1572 1228 z "}}}
